<svg id="Layer_1" data-name="Layer 1" xmlns="http://www.w3.org/2000/svg" xmlns:xlink="http://www.w3.org/1999/xlink" viewBox="0 0 100 100"><defs><style>.cls-1{fill:none;}.cls-2{fill:#fff;opacity:0;}.cls-3{clip-path:url(#clip-path);}.cls-4{clip-path:url(#clip-path-2);}.cls-5{clip-path:url(#clip-path-3);}.cls-6{clip-path:url(#clip-path-4);}.cls-7{clip-path:url(#clip-path-5);}.cls-8{clip-path:url(#clip-path-6);}</style><clipPath id="clip-path"><rect class="cls-1" x="25.89" y="2.31" width="48.21" height="95.39"/></clipPath><clipPath id="clip-path-2"><rect class="cls-1" x="45.62" y="2.31" width="8.96" height="23.04"/></clipPath><clipPath id="clip-path-3"><rect class="cls-1" x="56.37" y="2.31" width="3.59" height="10.49"/></clipPath><clipPath id="clip-path-4"><rect class="cls-1" x="58.17" y="2.31" width="5.38" height="8.7"/></clipPath><clipPath id="clip-path-5"><rect class="cls-1" x="40.24" y="2.31" width="3.59" height="8.7"/></clipPath><clipPath id="clip-path-6"><rect class="cls-1" x="38.44" y="2.31" width="3.59" height="8.7"/></clipPath></defs><rect class="cls-2" width="100" height="100"/><g class="cls-3"><path d="M70.61,95.59h0Zm-39.88-.75a55.46,55.46,0,0,0,13.39.88c1.12-22.32,3-43.92,5.45-64.22a.76.76,0,0,1,.77-.68h0a.77.77,0,0,1,.77.69c2.27,20.44,4,41.4,5.23,64a50.7,50.7,0,0,0,13.51-.62c.16-4.58.35-9.13.53-13.55,1.11-26.59,2.16-51.73-4-77a149.32,149.32,0,0,1-32.3-.24C27.4,33.77,29.07,64.8,30.73,94.84ZM41,97.37a52.34,52.34,0,0,1-11.15-1.12.76.76,0,0,1-.61-.72C27.5,65,25.75,33.35,32.69,3.13a.8.8,0,0,1,.87-.61,147.63,147.63,0,0,0,33.33.25.79.79,0,0,1,.84.59c6.4,25.7,5.34,51.14,4.22,78.09-.2,4.6-.39,9.37-.55,14.16a.79.79,0,0,1-.63.75,52,52,0,0,1-15.27.69.8.8,0,0,1-.69-.74C53.7,76,52.21,57,50.3,38.59,48.2,57,46.64,76.48,45.65,96.51a.78.78,0,0,1-.73.74c-1.36.08-2.67.12-4,.12"/></g><path d="M52.45,11.16c-1.44,0-3,0-4.47-.07-2.06-.06-4.19-.17-6.31-.32l-2.29-.19c-2.4-.21-4.84-.49-7.23-.82a.79.79,0,0,1-.66-.89.77.77,0,0,1,.88-.67c2.36.33,4.77.61,7.15.81.76.08,1.51.13,2.26.19,2.1.15,4.2.26,6.24.31,1.52.05,3,.08,4.43.08,2.08,0,4.18-.05,6.25-.14q1.15,0,2.31-.12c2.43-.14,4.86-.34,7.23-.6a.77.77,0,0,1,.86.69.78.78,0,0,1-.69.87c-2.39.27-4.85.47-7.3.62L58.76,11c-2.09.09-4.21.13-6.31.13"/><g class="cls-4"><path d="M48,23.64h-.22a.78.78,0,0,1-.74-.79c0-4.57.14-9.1.21-12.56l.14-5.95a.78.78,0,1,1,1.56,0l-.13,6c-.06,3.23-.15,7.42-.21,11.69a3.41,3.41,0,0,0,2.28-1.61,7.87,7.87,0,0,0,.66-3.59l.16-6.46a.77.77,0,0,1,.8-.76.79.79,0,0,1,.77.8l-.17,6.46a9.07,9.07,0,0,1-.86,4.34A5,5,0,0,1,48,23.64"/></g><g class="cls-5"><path d="M58.73,11a.79.79,0,0,1-.78-.74L57.9,9.6c-.13-1.78-.25-3.56-.39-5.35a.8.8,0,0,1,.73-.84.79.79,0,0,1,.84.73c.13,1.78.26,3.57.38,5.35l0,.69a.78.78,0,0,1-.72.84h-.06"/></g><g class="cls-6"><path d="M61.06,10.91a.79.79,0,0,1-.78-.74l-.4-6A.79.79,0,0,1,61.45,4l.39,6.05a.79.79,0,0,1-.73.84h0"/></g><g class="cls-7"><path d="M41.72,10.77h-.08a.8.8,0,0,1-.7-.87L41.49,4a.8.8,0,0,1,.86-.72.79.79,0,0,1,.7.86l-.55,5.87a.79.79,0,0,1-.78.72"/></g><g class="cls-8"><path d="M39.45,10.58h-.06a.78.78,0,0,1-.71-.85q.23-2.93.47-5.85A.78.78,0,0,1,40,3.17a.77.77,0,0,1,.71.84l-.48,5.85a.78.78,0,0,1-.78.72"/></g><path d="M70.84,26.78a.79.79,0,0,1-.52-.21,25.7,25.7,0,0,1-7.94-13.46.81.81,0,0,1,.6-.95.79.79,0,0,1,.94.6A24,24,0,0,0,71.37,25.4a.79.79,0,0,1,.06,1.11.76.76,0,0,1-.59.27"/><path d="M29.75,27a.81.81,0,0,1-.51-.18.8.8,0,0,1-.09-1.12,35.22,35.22,0,0,0,6.93-13.17.78.78,0,1,1,1.5.43,36.6,36.6,0,0,1-7.24,13.76.74.74,0,0,1-.59.28"/><path d="M49.25,7.22a1,1,0,1,1,1,1,1.05,1.05,0,0,1-1-1"/></svg>