<svg xmlns="http://www.w3.org/2000/svg" xmlns:xlink="http://www.w3.org/1999/xlink" width="100" zoomAndPan="magnify" viewBox="0 0 75 74.999997" height="100" preserveAspectRatio="xMidYMid meet" version="1.0"><defs><clipPath id="fea83563f3"><path d="M 2.503906 4.5625 L 72 4.5625 L 72 70.5625 L 2.503906 70.5625 Z M 2.503906 4.5625 " clip-rule="nonzero"/></clipPath></defs><g clip-path="url(#fea83563f3)"><path fill="#000000" d="M 15.566406 32.886719 C 15.765625 32.636719 15.953125 32.375 16.132812 32.117188 C 14.40625 30.929688 12.445312 30.207031 10.664062 29.113281 C 8.863281 28.003906 7.046875 26.921875 5.175781 25.921875 C 5.140625 25.910156 5.113281 25.890625 5.082031 25.871094 C 5.070312 25.863281 5.0625 25.859375 5.054688 25.855469 C 4.871094 26.066406 4.6875 26.277344 4.5 26.480469 C 8.007812 28.921875 11.8125 30.867188 15.566406 32.886719 Z M 19.488281 27.382812 C 19.5 21.730469 18.785156 15.921875 15.164062 11.789062 C 13.378906 14.644531 10.988281 17.019531 9.171875 19.847656 C 8.097656 21.515625 7.085938 23.238281 5.890625 24.816406 C 7.949219 25.929688 9.894531 27.238281 11.949219 28.347656 C 13.59375 29.234375 15.316406 29.9375 16.855469 31.011719 C 17.652344 29.746094 18.410156 28.457031 19.488281 27.382812 Z M 41.753906 6.035156 C 40.089844 6.335938 38.464844 6.917969 36.761719 6.847656 C 35.339844 6.789062 33.96875 6.535156 32.582031 6.277344 C 34.679688 8.84375 39.316406 8.246094 41.753906 6.035156 Z M 44.113281 6.210938 C 43.917969 6.152344 43.714844 6.105469 43.515625 6.050781 C 40.574219 9.949219 33.339844 10.675781 30.917969 6.0625 C 30.597656 6.160156 30.28125 6.269531 29.972656 6.382812 C 31 9.351562 34.046875 11.128906 37.183594 11.019531 C 40.460938 10.902344 42.746094 9.035156 44.113281 6.210938 Z M 58.777344 11.046875 C 58.742188 11.089844 55.875 9.726562 55.585938 9.613281 C 53.628906 8.84375 51.609375 8.214844 49.585938 7.660156 C 48.78125 7.445312 47.90625 7.363281 47.132812 7.085938 C 46.953125 7.019531 45.519531 6.394531 45.394531 6.609375 C 43.550781 9.949219 40.699219 12.675781 36.621094 12.320312 C 35.867188 12.253906 35.105469 12.125 34.382812 11.914062 C 31.804688 11.167969 29.550781 9.417969 28.777344 6.769531 C 28.402344 6.832031 28.042969 7.027344 27.65625 7.105469 C 27.589844 7.121094 27.523438 7.121094 27.464844 7.113281 C 23.621094 8.132812 19.804688 9.222656 16.25 11.046875 C 19.289062 14.644531 20.324219 19.675781 20.667969 24.269531 C 21.167969 31.058594 20.308594 37.933594 20.308594 44.738281 C 20.308594 48.339844 20.652344 51.925781 20.082031 55.496094 C 19.515625 58.957031 19.859375 62.535156 19.144531 65.96875 C 18.875 67.222656 22.394531 68.210938 23.136719 68.386719 C 24.675781 68.75 26.246094 68.9375 27.839844 68.96875 C 34.152344 69.089844 40.496094 69.136719 46.804688 68.976562 C 48.503906 68.933594 50.246094 68.851562 51.886719 68.390625 C 52.671875 68.167969 56.105469 67.28125 55.886719 65.96875 C 55.285156 62.253906 55.351562 58.472656 54.832031 54.738281 C 54.367188 51.433594 54.730469 48.070312 54.722656 44.738281 C 54.691406 37.984375 53.773438 30.992188 54.367188 24.269531 C 54.773438 19.65625 55.726562 14.667969 58.777344 11.046875 Z M 68.6875 24.601562 C 67.460938 22.894531 66.4375 21.042969 65.179688 19.320312 C 63.375 16.851562 61.304688 14.59375 59.671875 12.007812 C 56.015625 16.363281 55.460938 22.472656 55.558594 28.304688 C 55.921875 29.300781 56.730469 30.347656 57.566406 31.285156 C 57.570312 31.285156 57.578125 31.28125 57.582031 31.28125 C 61.585938 29.726562 65.480469 27.484375 68.6875 24.601562 Z M 70.210938 26.476562 C 69.957031 26.207031 69.71875 25.929688 69.484375 25.648438 C 66.28125 28.496094 62.484375 30.707031 58.515625 32.308594 C 58.71875 32.523438 58.910156 32.722656 59.089844 32.910156 C 62.863281 30.878906 66.683594 28.933594 70.210938 26.476562 Z M 71.683594 26.109375 C 72.011719 26.429688 71.882812 26.90625 71.546875 27.148438 C 67.703125 29.929688 63.457031 32.046875 59.292969 34.296875 C 59.042969 34.4375 58.703125 34.417969 58.496094 34.195312 C 57.703125 33.328125 56.566406 32.1875 55.632812 30.953125 C 55.6875 32.472656 55.769531 33.945312 55.824219 35.347656 C 56.015625 40.757812 55.933594 46.136719 55.898438 51.542969 C 55.878906 53.847656 56.523438 56.058594 56.636719 58.347656 C 56.761719 61.058594 56.769531 63.761719 57.332031 66.433594 C 57.375 66.652344 57.339844 66.917969 57.15625 67.074219 C 54.621094 69.289062 51.421875 70.097656 48.117188 70.246094 C 42.777344 70.488281 37.4375 70.1875 32.101562 70.304688 C 27.199219 70.414062 21.800781 70.535156 17.875 67.074219 C 17.691406 66.917969 17.65625 66.652344 17.699219 66.433594 C 18.320312 63.488281 18.09375 60.546875 18.457031 57.585938 C 18.75 55.269531 19.179688 53.039062 19.097656 50.695312 C 18.925781 45.574219 19.011719 40.460938 19.203125 35.347656 C 19.277344 33.484375 19.398438 31.484375 19.457031 29.429688 C 18.292969 30.957031 17.460938 32.722656 16.207031 34.195312 C 16.003906 34.421875 15.660156 34.429688 15.410156 34.296875 C 11.242188 32.046875 6.996094 29.929688 3.152344 27.148438 C 2.816406 26.90625 2.691406 26.429688 3.019531 26.109375 C 5.453125 23.777344 6.804688 20.714844 8.816406 18.066406 C 10.71875 15.570312 12.832031 13.242188 14.40625 10.511719 C 14.554688 10.253906 14.800781 10.167969 15.03125 10.203125 C 15.046875 10.191406 15.0625 10.179688 15.082031 10.164062 C 19.324219 7.890625 23.960938 6.671875 28.585938 5.457031 C 28.59375 5.460938 28.597656 5.464844 28.601562 5.46875 C 29.414062 5.199219 30.199219 4.871094 31.027344 4.660156 C 31.230469 4.609375 31.398438 4.648438 31.535156 4.734375 C 31.542969 4.738281 31.558594 4.75 31.570312 4.753906 C 33.527344 5.097656 35.566406 5.714844 37.570312 5.496094 C 39.347656 5.304688 41.035156 4.710938 42.820312 4.5625 C 42.972656 4.550781 43.09375 4.585938 43.191406 4.640625 C 43.257812 4.636719 43.339844 4.640625 43.414062 4.660156 C 48.996094 5.988281 54.847656 7.433594 59.949219 10.164062 C 60.054688 10.222656 60.117188 10.289062 60.175781 10.363281 C 60.21875 10.40625 60.261719 10.457031 60.292969 10.511719 C 61.996094 13.46875 64.433594 15.832031 66.3125 18.652344 C 68.003906 21.207031 69.445312 23.96875 71.683594 26.109375 " fill-opacity="1" fill-rule="nonzero"/></g></svg>