<svg xmlns="http://www.w3.org/2000/svg" xmlns:xlink="http://www.w3.org/1999/xlink" width="100" zoomAndPan="magnify" viewBox="0 0 75 74.999997" height="100" preserveAspectRatio="xMidYMid meet" version="1.0"><defs><clipPath id="c3ade1a575"><path d="M 2.703125 5.003906 L 36.917969 5.003906 L 36.917969 70.226562 L 2.703125 70.226562 Z M 2.703125 5.003906 " clip-rule="nonzero"/></clipPath><clipPath id="04f1277f6a"><path d="M 53 37 L 72.285156 37 L 72.285156 63.179688 L 53 63.179688 Z M 53 37 " clip-rule="nonzero"/></clipPath><clipPath id="6e18338090"><path d="M 41 27.894531 L 64 27.894531 L 64 47 L 41 47 Z M 41 27.894531 " clip-rule="nonzero"/></clipPath><clipPath id="932943e445"><path d="M 40.207031 35 L 45 35 L 45 40 L 40.207031 40 Z M 40.207031 35 " clip-rule="nonzero"/></clipPath><clipPath id="44d2e93614"><path d="M 40.207031 33 L 44 33 L 44 37 L 40.207031 37 Z M 40.207031 33 " clip-rule="nonzero"/></clipPath></defs><g clip-path="url(#c3ade1a575)"><path fill="#000000" d="M 6.992188 25.300781 C 7.847656 23.015625 10.207031 22.5625 12.441406 22.285156 C 9.242188 22.289062 4.722656 22.402344 4.386719 26.492188 C 4.175781 29.09375 4.5 31.667969 4.46875 34.28125 C 4.394531 40.992188 3.925781 47.722656 4.011719 54.429688 C 4.039062 56.773438 4 59.761719 5.328125 61.804688 C 5.722656 62.410156 6.277344 62.890625 6.933594 63.265625 C 6.195312 61.214844 6.644531 58.433594 6.503906 56.472656 C 6.101562 50.929688 6.214844 45.375 6.242188 39.820312 C 6.257812 37.0625 6.199219 34.304688 6.289062 31.546875 C 6.355469 29.507812 6.269531 27.234375 6.992188 25.300781 Z M 11.007812 68.621094 C 11.257812 68.664062 11.414062 68.335938 11.410156 68.09375 C 11.402344 67.996094 11.367188 67.910156 11.316406 67.835938 C 11.210938 67.734375 11.074219 67.679688 10.929688 67.675781 C 10.921875 67.679688 10.914062 67.6875 10.914062 67.691406 C 10.550781 68.015625 10.34375 68.5 11.007812 68.621094 Z M 11.726562 66.433594 C 12.152344 66.554688 12.792969 66.457031 12.878906 65.957031 C 12.410156 65.890625 11.90625 65.820312 11.382812 65.738281 C 11.398438 66.035156 11.472656 66.363281 11.726562 66.433594 Z M 12.371094 24.804688 C 12.84375 24.375 13.382812 24.074219 13.960938 23.859375 C 13.023438 23.996094 12.066406 24.074219 11.191406 24.414062 C 8.921875 25.296875 8.355469 27.667969 8.308594 29.894531 C 8.226562 33.542969 8.570312 37.1875 8.464844 40.851562 C 8.359375 44.757812 8.148438 48.703125 8.265625 52.613281 C 8.320312 54.625 8.613281 56.605469 8.742188 58.609375 C 8.859375 60.519531 8.976562 62.398438 9.511719 64.238281 C 10.246094 64.421875 10.996094 64.554688 11.71875 64.664062 C 11.308594 64 11.375 63.011719 11.410156 62.28125 C 11.464844 60.945312 11.480469 59.613281 11.480469 58.277344 C 11.472656 55.664062 11.617188 52.996094 11.328125 50.394531 C 10.683594 44.632812 11.476562 38.972656 11.410156 33.210938 C 11.355469 30.871094 10.328125 26.660156 12.371094 24.804688 Z M 13.421875 9.800781 C 13.035156 9.796875 12.636719 9.855469 12.253906 9.859375 C 12.046875 13.558594 12.296875 17.265625 12.28125 20.96875 C 12.523438 20.964844 12.761719 20.960938 12.996094 20.957031 C 13.035156 17.234375 13.371094 13.523438 13.421875 9.800781 Z M 14.925781 23.113281 C 14.914062 23.082031 14.902344 23.054688 14.886719 23.023438 C 14.863281 23.027344 14.847656 23.03125 14.824219 23.03125 C 13.355469 23.257812 11.8125 23.234375 10.398438 23.726562 C 7.988281 24.558594 7.695312 26.472656 7.539062 28.808594 C 7.25 33.191406 7.386719 37.59375 7.34375 41.984375 C 7.308594 46.570312 7.238281 51.175781 7.566406 55.75 C 7.664062 57.121094 7.636719 58.488281 7.695312 59.851562 C 7.746094 61.0625 7.648438 62.875 8.511719 63.835938 C 8.554688 63.886719 8.585938 63.933594 8.609375 63.988281 C 8.703125 64.015625 8.792969 64.042969 8.886719 64.070312 C 8.359375 62.058594 8.324219 60.03125 8.132812 57.957031 C 7.929688 55.710938 7.679688 53.507812 7.691406 51.242188 C 7.71875 46.5625 8.007812 41.867188 7.980469 37.1875 C 7.960938 33.632812 7.050781 29.613281 8.464844 26.226562 C 9.613281 23.488281 12.511719 23.738281 14.925781 23.113281 Z M 18.742188 9.515625 C 18.742188 9.484375 18.746094 9.460938 18.75 9.433594 C 18.636719 9.332031 18.566406 9.179688 18.554688 9.015625 C 18.539062 8.726562 18.519531 8.441406 18.507812 8.15625 C 17.90625 8.097656 17.289062 8.214844 16.6875 8.195312 C 15.988281 8.175781 15.300781 8.148438 14.613281 8.253906 C 14.621094 8.601562 14.628906 8.949219 14.609375 9.296875 C 14.601562 9.386719 14.582031 9.476562 14.542969 9.546875 C 14.511719 13.347656 14.15625 17.136719 14.117188 20.933594 C 14.128906 20.933594 14.140625 20.933594 14.152344 20.933594 C 14.351562 20.929688 14.546875 20.929688 14.746094 20.925781 C 15.589844 19.707031 17.148438 19.449219 18.75 19.359375 C 18.746094 19.335938 18.742188 19.3125 18.742188 19.28125 C 18.742188 16.277344 18.742188 9.515625 18.742188 9.515625 Z M 19.644531 8.566406 C 20.007812 8.597656 20.371094 8.636719 20.730469 8.601562 C 20.644531 7.785156 20.527344 7.15625 19.589844 6.832031 C 18.855469 6.585938 18.121094 6.355469 17.335938 6.328125 C 15.574219 6.273438 14.011719 6.640625 12.464844 7.46875 C 12.410156 7.890625 12.371094 8.308594 12.332031 8.730469 C 12.726562 8.71875 13.113281 8.6875 13.5 8.691406 C 13.5 8.425781 13.492188 8.15625 13.492188 7.890625 C 13.492188 7.839844 13.496094 7.792969 13.503906 7.753906 C 13.507812 7.53125 13.621094 7.320312 13.902344 7.25 C 14.828125 7.019531 15.738281 7.058594 16.6875 7.070312 C 17.519531 7.078125 18.347656 6.933594 19.171875 7.125 C 19.378906 7.175781 19.5 7.308594 19.546875 7.464844 C 19.585938 7.539062 19.613281 7.625 19.613281 7.730469 C 19.613281 8.011719 19.628906 8.292969 19.644531 8.566406 Z M 21.136719 19.230469 C 21.175781 16.085938 21.171875 12.835938 20.835938 9.707031 C 20.511719 9.726562 20.183594 9.71875 19.859375 9.699219 C 19.859375 13.019531 19.859375 16.328125 19.859375 19.28125 C 19.859375 19.292969 19.855469 19.304688 19.855469 19.316406 C 20.28125 19.292969 20.710938 19.257812 21.136719 19.230469 Z M 24.132812 20.65625 C 22.992188 19.894531 21.066406 20.417969 19.570312 20.453125 C 18.5 20.484375 17.324219 20.460938 16.464844 20.90625 C 18.050781 20.902344 19.640625 20.914062 21.230469 20.90625 C 22.183594 20.90625 23.15625 20.773438 24.132812 20.65625 Z M 26.671875 22.855469 C 28.433594 22.847656 30.273438 22.671875 32.046875 22.769531 C 31.367188 22.535156 30.660156 22.363281 30.011719 22.183594 C 28.585938 21.792969 27.390625 21.703125 26.082031 21.773438 C 26.09375 21.832031 26.105469 21.886719 26.117188 21.949219 C 26.238281 22.65625 25.15625 22.960938 25.039062 22.25 C 25.015625 22.109375 24.984375 21.984375 24.949219 21.863281 C 24.828125 21.878906 24.703125 21.894531 24.578125 21.90625 C 21.5625 22.257812 18.488281 22.054688 15.4375 22.050781 C 15.386719 22.179688 15.34375 22.316406 15.3125 22.46875 C 15.320312 22.523438 15.320312 22.578125 15.3125 22.636719 C 15.441406 22.875 15.558594 23.128906 15.65625 23.386719 C 15.667969 23.410156 15.667969 23.433594 15.667969 23.457031 C 16.535156 23.335938 17.429688 23.308594 18.269531 23.265625 C 21.070312 23.125 23.855469 22.878906 26.671875 22.855469 Z M 32.570312 66.128906 C 32.90625 65.980469 33.246094 65.367188 33.148438 65.074219 C 33.132812 65.035156 33.113281 64.992188 33.089844 64.945312 C 32.898438 64.832031 32.644531 64.785156 32.492188 64.964844 C 32.3125 65.175781 32.265625 65.511719 32.28125 65.78125 C 32.28125 65.800781 32.285156 65.816406 32.292969 65.835938 C 32.363281 65.957031 32.449219 66.066406 32.546875 66.125 C 32.554688 66.125 32.5625 66.125 32.570312 66.128906 Z M 33.949219 64.167969 C 34.183594 63.910156 34.277344 63.578125 34.183594 63.222656 C 33.894531 63.351562 33.597656 63.460938 33.289062 63.558594 C 33.550781 63.707031 33.777344 63.914062 33.949219 64.167969 Z M 35.121094 35.785156 C 35.257812 32.882812 35.542969 29.9375 35.464844 27.03125 C 35.457031 26.710938 35.421875 26.425781 35.371094 26.164062 C 35.234375 25.929688 35.039062 25.738281 34.792969 25.597656 C 34.746094 25.570312 34.707031 25.542969 34.664062 25.515625 L 34.511719 25.464844 C 34.414062 25.433594 34.316406 25.382812 34.207031 25.371094 C 34.101562 25.347656 34.003906 25.320312 33.886719 25.304688 C 33.761719 25.292969 33.636719 25.28125 33.515625 25.269531 C 31.535156 25.175781 29.699219 25.109375 28.40625 25.121094 C 28.082031 25.105469 27.785156 25.128906 27.519531 25.140625 C 27.257812 25.15625 27.03125 25.160156 26.84375 25.164062 C 26.472656 25.167969 26.265625 25.148438 26.261719 25.105469 C 26.253906 25.058594 26.453125 24.996094 26.816406 24.921875 C 26.996094 24.878906 27.21875 24.839844 27.480469 24.792969 C 27.738281 24.742188 28.027344 24.6875 28.363281 24.671875 C 29.714844 24.542969 31.523438 24.539062 33.574219 24.640625 C 33.695312 24.648438 33.824219 24.664062 33.945312 24.675781 C 34.074219 24.691406 34.21875 24.726562 34.351562 24.753906 C 34.484375 24.777344 34.613281 24.832031 34.738281 24.882812 L 34.792969 24.902344 C 34.171875 24.164062 33.152344 23.898438 31.832031 23.90625 C 27.296875 23.933594 22.789062 24.175781 18.269531 24.394531 C 16.46875 24.480469 13.300781 24.335938 12.671875 26.53125 C 12.035156 28.761719 12.472656 30.945312 12.527344 33.210938 C 12.589844 38.738281 11.757812 44.21875 12.375 49.742188 C 12.664062 52.355469 12.585938 54.992188 12.59375 57.613281 C 12.601562 58.941406 12.609375 60.273438 12.550781 61.601562 C 12.511719 62.59375 12.203125 64.171875 13.3125 64.757812 C 13.449219 64.828125 13.601562 64.894531 13.75 64.949219 C 13.777344 64.957031 13.804688 64.960938 13.835938 64.964844 C 13.9375 64.984375 14.019531 65.023438 14.085938 65.074219 C 15.367188 65.480469 16.898438 65.4375 18.335938 65.324219 C 18.148438 38.429688 18.214844 30.175781 18.371094 30.171875 C 18.523438 30.171875 18.703125 38.417969 18.894531 65.273438 C 19.359375 65.234375 19.8125 65.1875 20.238281 65.152344 C 20.597656 65.125 20.957031 65.082031 21.3125 65.035156 C 21.132812 38.371094 21.199219 30.175781 21.351562 30.171875 C 21.503906 30.171875 21.6875 38.347656 21.878906 64.945312 C 23.566406 64.667969 25.25 64.226562 26.914062 63.828125 C 26.914062 63.203125 26.914062 62.527344 26.917969 61.933594 C 26.914062 61.542969 26.914062 61.101562 26.914062 60.726562 C 26.902344 60.351562 26.890625 59.980469 26.882812 59.613281 C 26.875 58.878906 26.800781 58.171875 26.753906 57.476562 C 26.703125 56.769531 26.652344 56.078125 26.605469 55.40625 C 26.546875 54.734375 26.535156 54.078125 26.519531 53.4375 C 26.503906 52.796875 26.484375 52.171875 26.472656 51.5625 C 26.46875 50.347656 26.464844 49.191406 26.453125 48.101562 C 26.484375 43.726562 26.566406 40.320312 26.640625 37.722656 C 26.722656 35.125 26.785156 33.332031 26.820312 32.191406 C 26.867188 31.046875 26.90625 30.550781 26.945312 30.550781 C 26.980469 30.550781 27.015625 31.046875 27.039062 32.191406 C 27.066406 33.332031 27.054688 35.128906 27.039062 37.730469 C 27.015625 40.328125 26.972656 43.734375 26.972656 48.101562 C 26.984375 49.191406 26.996094 50.34375 27.007812 51.558594 C 27.027344 52.160156 27.042969 52.785156 27.0625 53.417969 C 27.082031 54.058594 27.09375 54.710938 27.152344 55.378906 C 27.203125 56.042969 27.253906 56.726562 27.304688 57.429688 C 27.351562 58.132812 27.433594 58.871094 27.4375 59.609375 C 27.453125 59.980469 27.460938 60.375 27.472656 60.753906 C 27.472656 61.128906 27.472656 61.539062 27.476562 61.925781 C 27.476562 62.484375 27.472656 63.113281 27.472656 63.695312 C 27.722656 63.640625 27.96875 63.585938 28.214844 63.53125 C 28.578125 63.453125 29.097656 63.382812 29.695312 63.285156 C 29.460938 56.972656 29.4375 51.746094 29.382812 47.441406 C 29.351562 43.054688 29.355469 39.628906 29.359375 37.015625 C 29.375 34.402344 29.410156 32.59375 29.445312 31.445312 C 29.480469 30.296875 29.515625 29.800781 29.554688 29.800781 C 29.59375 29.800781 29.628906 30.296875 29.660156 31.449219 C 29.699219 32.597656 29.722656 34.402344 29.757812 37.011719 C 29.792969 39.625 29.835938 43.046875 29.902344 47.441406 C 29.984375 51.726562 30.023438 56.941406 30.25 63.199219 C 32.457031 62.839844 35.277344 62.183594 35.203125 60.320312 C 35.109375 57.96875 35.101562 55.628906 35.121094 53.273438 C 35.167969 47.4375 34.835938 41.617188 35.121094 35.785156 Z M 35.964844 24.707031 C 36.664062 26.058594 36.589844 27.964844 36.511719 29.945312 C 36.273438 36.046875 36.179688 42.0625 36.242188 48.167969 C 36.273438 51.328125 36.210938 54.488281 36.203125 57.652344 C 36.199219 58.949219 36.871094 61.375 35.652344 62.351562 C 35.5 62.476562 35.34375 62.589844 35.183594 62.691406 C 35.53125 63.636719 35.242188 64.683594 34.414062 65.257812 C 34.4375 66.074219 33.929688 66.914062 33.179688 67.226562 C 32.859375 67.359375 32.554688 67.363281 32.277344 67.277344 C 32.238281 67.265625 32.195312 67.25 32.164062 67.230469 C 31.625 67.160156 31.324219 66.753906 31.214844 66.242188 C 30.878906 65.554688 30.800781 64.695312 31.097656 64.078125 C 30.679688 64.164062 30.261719 64.242188 29.851562 64.332031 C 27.304688 64.878906 24.753906 65.585938 22.1875 66.03125 C 20.042969 66.402344 17.546875 66.613281 15.375 66.433594 C 14.890625 66.394531 14.414062 66.324219 13.960938 66.210938 C 13.789062 66.957031 13.1875 67.449219 12.457031 67.578125 C 12.535156 67.816406 12.546875 68.082031 12.503906 68.34375 C 12.46875 68.640625 12.367188 68.925781 12.183594 69.167969 C 11.878906 69.644531 11.402344 70.019531 10.847656 70.101562 C 9.957031 70.238281 9.277344 69.539062 9.167969 68.679688 C 9.152344 68.558594 9.152344 68.4375 9.164062 68.316406 C 9.046875 67.875 9.195312 67.398438 9.589844 67.054688 C 9.75 66.914062 9.9375 66.808594 10.136719 66.726562 C 10.160156 66.710938 10.179688 66.691406 10.203125 66.679688 C 10.285156 66.636719 10.375 66.605469 10.46875 66.578125 C 10.34375 66.261719 10.28125 65.90625 10.265625 65.546875 C 9.300781 65.367188 8.320312 65.125 7.425781 64.777344 C 7.347656 64.886719 7.242188 64.984375 7.109375 65.046875 C 7.089844 65.050781 7.074219 65.058594 7.054688 65.066406 C 7.105469 66.066406 5.929688 67.316406 4.871094 66.964844 C 4.109375 66.714844 3.472656 65.789062 3.757812 64.96875 C 3.871094 64.632812 4.117188 64.324219 4.421875 64.128906 C 4.546875 63.976562 4.714844 63.921875 4.878906 63.933594 C 5.019531 63.90625 5.171875 63.90625 5.320312 63.929688 C 5.339844 63.820312 5.371094 63.71875 5.421875 63.625 C 5.085938 63.339844 4.785156 63.019531 4.542969 62.652344 C 3.167969 60.535156 2.964844 57.75 2.90625 55.285156 C 2.71875 47.105469 3.71875 38.898438 3.328125 30.71875 C 3.21875 28.394531 2.703125 25.160156 4.425781 23.253906 C 5.980469 21.527344 8.664062 21.125 11.164062 21.007812 C 11.183594 16.386719 10.785156 11.765625 11.378906 7.167969 C 11.398438 7.027344 11.453125 6.917969 11.535156 6.832031 C 11.570312 6.722656 11.648438 6.628906 11.78125 6.554688 C 13.449219 5.636719 15.402344 5.003906 17.335938 5.203125 C 18.640625 5.335938 20.460938 5.539062 21.332031 6.660156 C 22.261719 7.871094 22.046875 10.585938 22.101562 12.011719 C 22.183594 14.394531 22.277344 16.785156 22.253906 19.167969 C 23.667969 19.140625 24.917969 19.34375 25.621094 20.511719 C 26.292969 20.464844 26.953125 20.457031 27.605469 20.546875 C 29.625 20.8125 31.488281 21.484375 33.410156 22.136719 C 34.941406 22.652344 35.179688 22.929688 35.910156 24.320312 C 35.980469 24.457031 35.988281 24.589844 35.964844 24.707031 Z M 5.242188 65.125 C 5.234375 65.113281 5.222656 65.101562 5.191406 65.074219 C 5.183594 65.066406 5.171875 65.058594 5.171875 65.050781 C 5.167969 65.050781 5.167969 65.050781 5.160156 65.050781 C 5.046875 65.25 4.941406 65.480469 5 65.574219 C 5.039062 65.648438 5.179688 65.667969 5.25 65.667969 C 5.273438 65.667969 5.300781 65.667969 5.328125 65.664062 C 5.332031 65.664062 5.332031 65.664062 5.335938 65.664062 C 5.328125 65.660156 5.335938 65.65625 5.339844 65.652344 C 5.34375 65.621094 5.363281 65.574219 5.367188 65.597656 C 5.367188 65.554688 5.371094 65.515625 5.367188 65.472656 C 5.363281 65.445312 5.355469 65.40625 5.355469 65.394531 C 5.3125 65.230469 5.351562 65.296875 5.253906 65.152344 C 5.246094 65.136719 5.242188 65.128906 5.242188 65.125 Z M 5.359375 65.648438 L 5.355469 65.648438 C 5.355469 65.652344 5.355469 65.65625 5.355469 65.65625 C 5.355469 65.65625 5.355469 65.652344 5.359375 65.648438 Z M 5.351562 65.667969 C 5.351562 65.667969 5.351562 65.664062 5.355469 65.664062 L 5.355469 65.660156 C 5.351562 65.664062 5.351562 65.664062 5.34375 65.664062 L 5.339844 65.667969 L 5.339844 65.671875 C 5.34375 65.667969 5.351562 65.667969 5.351562 65.667969 " fill-opacity="1" fill-rule="nonzero"/></g><path fill="#000000" d="M 23 25.355469 C 23 25.441406 22.253906 25.519531 21.054688 25.582031 C 20.753906 25.59375 20.429688 25.609375 20.074219 25.621094 C 19.722656 25.644531 19.34375 25.667969 18.945312 25.695312 C 18.546875 25.71875 18.128906 25.738281 17.699219 25.765625 C 17.480469 25.777344 17.265625 25.785156 17.039062 25.796875 C 16.800781 25.804688 16.558594 25.800781 16.324219 25.789062 C 15.863281 25.761719 15.425781 25.726562 15.039062 25.773438 C 14.9375 25.777344 14.859375 25.796875 14.78125 25.816406 C 14.742188 25.824219 14.703125 25.824219 14.660156 25.839844 L 14.519531 25.902344 L 14.375 25.964844 L 14.367188 25.96875 L 14.285156 26.023438 C 14.207031 26.074219 14.132812 26.121094 14.070312 26.183594 C 13.53125 26.625 13.363281 27.3125 13.296875 27.882812 C 13.226562 28.464844 13.226562 28.957031 13.199219 29.300781 C 13.171875 29.644531 13.132812 29.828125 13.085938 29.828125 C 13.042969 29.828125 13.003906 29.636719 12.953125 29.308594 C 12.90625 28.96875 12.839844 28.480469 12.851562 27.851562 C 12.863281 27.535156 12.894531 27.179688 13.015625 26.808594 C 13.132812 26.4375 13.347656 26.042969 13.691406 25.742188 C 13.769531 25.660156 13.863281 25.59375 13.957031 25.53125 L 14.03125 25.480469 L 14.0625 25.457031 L 14.082031 25.441406 L 14.085938 25.4375 L 14.125 25.417969 L 14.40625 25.285156 C 14.460938 25.265625 14.527344 25.25 14.59375 25.230469 C 14.71875 25.199219 14.855469 25.160156 14.964844 25.15625 C 15.441406 25.09375 15.90625 25.128906 16.359375 25.15625 C 16.585938 25.167969 16.804688 25.175781 17.003906 25.164062 C 17.230469 25.160156 17.453125 25.152344 17.671875 25.144531 C 18.105469 25.132812 18.523438 25.125 18.921875 25.109375 C 19.320312 25.109375 19.695312 25.101562 20.050781 25.097656 C 20.410156 25.109375 20.742188 25.125 21.042969 25.132812 C 22.253906 25.191406 23 25.265625 23 25.355469 " fill-opacity="1" fill-rule="nonzero"/><path fill="#000000" d="M 6.765625 24.117188 C 6.824219 24.207031 6.257812 24.570312 5.839844 25.507812 C 5.40625 26.425781 5.171875 27.855469 5.132812 29.460938 C 5.085938 31.066406 5.171875 32.53125 5.183594 33.601562 C 5.199219 34.671875 5.128906 35.34375 5.039062 35.339844 C 4.953125 35.335938 4.875 34.691406 4.738281 33.632812 C 4.621094 32.570312 4.457031 31.097656 4.503906 29.4375 C 4.542969 27.792969 4.859375 26.261719 5.445312 25.296875 C 5.730469 24.808594 6.066406 24.484375 6.320312 24.3125 C 6.574219 24.132812 6.742188 24.085938 6.765625 24.117188 " fill-opacity="1" fill-rule="nonzero"/><path fill="#000000" d="M 5.417969 59.53125 C 5.613281 59.96875 5.832031 60.191406 5.785156 60.226562 C 5.761719 60.242188 5.507812 60.113281 5.199219 59.652344 C 4.910156 59.199219 4.644531 58.457031 4.53125 57.519531 C 4.398438 56.589844 4.410156 55.46875 4.421875 54.261719 C 4.414062 53.046875 4.40625 51.710938 4.398438 50.304688 C 4.398438 47.496094 4.4375 44.953125 4.492188 43.109375 C 4.546875 41.269531 4.625 40.128906 4.714844 40.128906 C 4.800781 40.128906 4.878906 41.269531 4.9375 43.109375 C 4.992188 44.953125 5.027344 47.496094 5.027344 50.304688 C 5.023438 51.714844 5.019531 53.042969 5 54.273438 C 4.953125 55.492188 4.902344 56.574219 4.972656 57.476562 C 5.027344 58.378906 5.210938 59.078125 5.417969 59.53125 " fill-opacity="1" fill-rule="nonzero"/><g clip-path="url(#04f1277f6a)"><path fill="#000000" d="M 54.6875 62.351562 L 70.929688 62.351562 C 71.238281 62.351562 71.480469 62.113281 71.480469 61.800781 L 71.480469 38.925781 C 71.480469 38.617188 71.238281 38.375 70.929688 38.375 L 54.675781 38.375 C 54.53125 38.375 54.390625 38.429688 54.285156 38.535156 C 54.183594 38.640625 54.132812 38.773438 54.132812 38.917969 L 54.132812 61.800781 C 54.136719 62.113281 54.375 62.351562 54.6875 62.351562 Z M 54.679688 37.578125 L 70.929688 37.578125 C 71.679688 37.578125 72.285156 38.183594 72.285156 38.9375 L 72.285156 61.808594 C 72.285156 62.5625 71.679688 63.167969 70.929688 63.167969 L 54.683594 63.167969 C 53.933594 63.167969 53.328125 62.5625 53.328125 61.808594 L 53.328125 38.933594 C 53.320312 38.582031 53.453125 38.238281 53.710938 37.984375 C 53.964844 37.714844 54.308594 37.578125 54.679688 37.578125 Z M 54.679688 37.578125 " fill-opacity="1" fill-rule="evenodd"/></g><path fill="#000000" d="M 69.921875 60.738281 C 69.945312 60.738281 69.976562 60.738281 70 60.746094 C 70.027344 60.753906 70.050781 60.761719 70.074219 60.769531 C 70.097656 60.78125 70.121094 60.796875 70.144531 60.8125 C 70.167969 60.828125 70.183594 60.84375 70.210938 60.859375 C 70.226562 60.875 70.242188 60.898438 70.257812 60.921875 C 70.273438 60.945312 70.28125 60.96875 70.296875 60.996094 C 70.304688 61.019531 70.3125 61.042969 70.320312 61.066406 C 70.328125 61.089844 70.328125 61.121094 70.328125 61.148438 C 70.328125 61.171875 70.328125 61.203125 70.320312 61.226562 C 70.3125 61.25 70.304688 61.273438 70.296875 61.296875 C 70.289062 61.324219 70.273438 61.347656 70.257812 61.371094 C 70.242188 61.394531 70.222656 61.410156 70.210938 61.433594 C 70.191406 61.449219 70.167969 61.46875 70.144531 61.480469 C 70.121094 61.5 70.097656 61.507812 70.074219 61.523438 C 70.050781 61.53125 70.027344 61.539062 70 61.546875 C 69.945312 61.554688 69.898438 61.554688 69.839844 61.546875 C 69.816406 61.539062 69.792969 61.53125 69.769531 61.523438 C 69.746094 61.511719 69.722656 61.496094 69.699219 61.480469 C 69.671875 61.464844 69.65625 61.449219 69.632812 61.433594 C 69.5625 61.363281 69.515625 61.257812 69.515625 61.148438 C 69.515625 61.121094 69.515625 61.089844 69.523438 61.066406 C 69.53125 61.042969 69.539062 61.019531 69.546875 60.996094 C 69.554688 60.96875 69.570312 60.945312 69.585938 60.921875 C 69.601562 60.898438 69.617188 60.882812 69.632812 60.859375 C 69.648438 60.84375 69.671875 60.824219 69.699219 60.8125 C 69.722656 60.792969 69.746094 60.785156 69.769531 60.769531 C 69.792969 60.761719 69.816406 60.753906 69.839844 60.746094 C 69.867188 60.738281 69.890625 60.738281 69.921875 60.738281 Z M 69.921875 60.738281 " fill-opacity="1" fill-rule="evenodd"/><path fill="#000000" d="M 55.683594 60.738281 C 55.707031 60.738281 55.738281 60.738281 55.765625 60.746094 C 55.789062 60.753906 55.8125 60.761719 55.835938 60.769531 C 55.859375 60.78125 55.882812 60.796875 55.910156 60.8125 C 55.933594 60.828125 55.949219 60.84375 55.972656 60.859375 C 55.988281 60.875 56.003906 60.898438 56.019531 60.921875 C 56.035156 60.945312 56.042969 60.96875 56.058594 60.996094 C 56.066406 61.019531 56.074219 61.042969 56.082031 61.066406 C 56.089844 61.089844 56.089844 61.121094 56.089844 61.148438 C 56.089844 61.171875 56.089844 61.203125 56.082031 61.226562 C 56.074219 61.25 56.066406 61.273438 56.058594 61.296875 C 56.050781 61.324219 56.035156 61.347656 56.019531 61.371094 C 56.003906 61.394531 55.988281 61.410156 55.972656 61.433594 C 55.957031 61.449219 55.933594 61.46875 55.910156 61.480469 C 55.882812 61.5 55.859375 61.507812 55.835938 61.523438 C 55.8125 61.53125 55.789062 61.539062 55.765625 61.546875 C 55.707031 61.554688 55.660156 61.554688 55.605469 61.546875 C 55.578125 61.539062 55.558594 61.53125 55.53125 61.523438 C 55.507812 61.511719 55.484375 61.496094 55.460938 61.480469 C 55.4375 61.464844 55.421875 61.449219 55.398438 61.433594 C 55.378906 61.417969 55.363281 61.394531 55.347656 61.371094 C 55.332031 61.347656 55.324219 61.324219 55.308594 61.296875 C 55.300781 61.273438 55.292969 61.25 55.285156 61.226562 C 55.277344 61.203125 55.277344 61.171875 55.277344 61.148438 C 55.277344 61.121094 55.277344 61.089844 55.285156 61.066406 C 55.292969 61.042969 55.300781 61.019531 55.308594 60.996094 C 55.316406 60.96875 55.332031 60.945312 55.347656 60.921875 C 55.363281 60.898438 55.382812 60.882812 55.398438 60.859375 C 55.414062 60.84375 55.4375 60.824219 55.460938 60.8125 C 55.484375 60.792969 55.507812 60.785156 55.53125 60.769531 C 55.558594 60.761719 55.578125 60.753906 55.605469 60.746094 C 55.636719 60.738281 55.660156 60.738281 55.683594 60.738281 Z M 55.683594 60.738281 " fill-opacity="1" fill-rule="evenodd"/><path fill="#000000" d="M 69.921875 39.191406 C 69.945312 39.191406 69.976562 39.191406 70 39.199219 C 70.027344 39.207031 70.050781 39.214844 70.074219 39.222656 C 70.097656 39.230469 70.121094 39.246094 70.144531 39.261719 C 70.167969 39.28125 70.183594 39.296875 70.210938 39.3125 C 70.226562 39.328125 70.242188 39.351562 70.257812 39.375 C 70.273438 39.398438 70.28125 39.421875 70.296875 39.445312 C 70.304688 39.472656 70.3125 39.496094 70.320312 39.519531 C 70.328125 39.542969 70.328125 39.574219 70.328125 39.597656 C 70.328125 39.625 70.328125 39.65625 70.320312 39.679688 C 70.3125 39.703125 70.304688 39.726562 70.296875 39.75 C 70.289062 39.773438 70.273438 39.796875 70.257812 39.824219 C 70.242188 39.847656 70.222656 39.863281 70.210938 39.886719 C 70.191406 39.902344 70.167969 39.917969 70.144531 39.933594 C 70.121094 39.949219 70.097656 39.957031 70.074219 39.972656 C 70.050781 39.980469 70.027344 39.992188 70 40 C 69.945312 40.007812 69.898438 40.007812 69.839844 40 C 69.816406 39.992188 69.792969 39.980469 69.769531 39.972656 C 69.746094 39.964844 69.722656 39.949219 69.699219 39.933594 C 69.671875 39.917969 69.65625 39.902344 69.632812 39.886719 C 69.617188 39.871094 69.601562 39.847656 69.585938 39.824219 C 69.570312 39.796875 69.5625 39.773438 69.546875 39.75 C 69.539062 39.726562 69.53125 39.703125 69.523438 39.679688 C 69.515625 39.65625 69.515625 39.625 69.515625 39.597656 C 69.515625 39.496094 69.554688 39.390625 69.632812 39.3125 C 69.648438 39.292969 69.671875 39.277344 69.699219 39.261719 C 69.722656 39.246094 69.746094 39.238281 69.769531 39.222656 C 69.792969 39.214844 69.816406 39.207031 69.839844 39.199219 C 69.867188 39.191406 69.890625 39.191406 69.921875 39.191406 Z M 69.921875 39.191406 " fill-opacity="1" fill-rule="evenodd"/><path fill="#000000" d="M 55.683594 39.191406 C 55.707031 39.191406 55.738281 39.191406 55.765625 39.199219 C 55.789062 39.207031 55.8125 39.214844 55.835938 39.222656 C 55.859375 39.230469 55.882812 39.246094 55.910156 39.261719 C 55.933594 39.28125 55.949219 39.296875 55.972656 39.3125 C 56.042969 39.382812 56.089844 39.484375 56.089844 39.597656 C 56.089844 39.625 56.089844 39.65625 56.082031 39.679688 C 56.074219 39.703125 56.066406 39.726562 56.058594 39.75 C 56.050781 39.773438 56.035156 39.796875 56.019531 39.824219 C 56.003906 39.847656 55.988281 39.863281 55.972656 39.886719 C 55.957031 39.902344 55.933594 39.917969 55.910156 39.933594 C 55.882812 39.949219 55.859375 39.957031 55.835938 39.972656 C 55.8125 39.980469 55.789062 39.992188 55.765625 40 C 55.707031 40.007812 55.660156 40.007812 55.605469 40 C 55.578125 39.992188 55.558594 39.980469 55.53125 39.972656 C 55.507812 39.964844 55.484375 39.949219 55.460938 39.933594 C 55.4375 39.917969 55.421875 39.902344 55.398438 39.886719 C 55.324219 39.816406 55.277344 39.710938 55.277344 39.597656 C 55.277344 39.496094 55.316406 39.390625 55.398438 39.3125 C 55.414062 39.292969 55.4375 39.277344 55.460938 39.261719 C 55.484375 39.246094 55.507812 39.238281 55.53125 39.222656 C 55.558594 39.214844 55.578125 39.207031 55.605469 39.199219 C 55.636719 39.191406 55.660156 39.191406 55.683594 39.191406 Z M 55.683594 39.191406 " fill-opacity="1" fill-rule="evenodd"/><path fill="#000000" d="M 65.546875 53.136719 L 63.972656 53.136719 C 63.75 53.136719 63.566406 52.953125 63.566406 52.730469 L 63.566406 49.421875 L 60.035156 53.683594 L 61.519531 53.683594 C 61.746094 53.683594 61.929688 53.867188 61.929688 54.089844 L 61.929688 57.398438 Z M 63.980469 47.902344 C 64.027344 47.902344 64.078125 47.910156 64.117188 47.925781 C 64.277344 47.984375 64.378906 48.132812 64.378906 48.308594 L 64.378906 52.335938 L 66.417969 52.335938 C 66.578125 52.335938 66.71875 52.425781 66.78125 52.570312 C 66.847656 52.714844 66.824219 52.882812 66.726562 53.003906 L 61.839844 58.765625 C 61.730469 58.890625 61.554688 58.941406 61.394531 58.882812 C 61.234375 58.828125 61.128906 58.675781 61.128906 58.507812 L 61.128906 54.503906 L 59.179688 54.503906 C 59.019531 54.503906 58.886719 54.414062 58.816406 54.273438 C 58.75 54.128906 58.765625 53.960938 58.871094 53.839844 L 63.667969 48.054688 C 63.75 47.949219 63.863281 47.902344 63.980469 47.902344 Z M 63.980469 47.902344 " fill-opacity="1" fill-rule="evenodd"/><path fill="#000000" d="M 67.238281 44.339844 C 67.703125 44.339844 68.085938 43.953125 68.085938 43.492188 C 68.085938 43.027344 67.703125 42.644531 67.238281 42.644531 C 66.777344 42.644531 66.394531 43.027344 66.394531 43.492188 C 66.394531 43.953125 66.769531 44.339844 67.238281 44.339844 Z M 67.238281 41.835938 C 68.148438 41.835938 68.890625 42.582031 68.890625 43.492188 C 68.890625 44.402344 68.148438 45.144531 67.238281 45.144531 C 66.328125 45.144531 65.585938 44.402344 65.585938 43.492188 C 65.585938 42.578125 66.328125 41.835938 67.238281 41.835938 Z M 67.238281 41.835938 " fill-opacity="1" fill-rule="evenodd"/><path fill="#000000" d="M 62.800781 44.339844 C 63.261719 44.339844 63.644531 43.953125 63.644531 43.492188 C 63.644531 43.027344 63.261719 42.644531 62.800781 42.644531 C 62.335938 42.644531 61.953125 43.027344 61.953125 43.492188 C 61.960938 43.953125 62.335938 44.339844 62.800781 44.339844 Z M 62.800781 41.835938 C 63.710938 41.835938 64.453125 42.582031 64.453125 43.492188 C 64.453125 44.402344 63.710938 45.144531 62.800781 45.144531 C 61.890625 45.144531 61.148438 44.402344 61.148438 43.492188 C 61.144531 42.578125 61.886719 41.835938 62.800781 41.835938 Z M 62.800781 41.835938 " fill-opacity="1" fill-rule="evenodd"/><path fill="#000000" d="M 58.367188 44.339844 C 58.828125 44.339844 59.214844 43.953125 59.214844 43.492188 C 59.214844 43.027344 58.828125 42.644531 58.367188 42.644531 C 57.902344 42.644531 57.519531 43.027344 57.519531 43.492188 C 57.519531 43.953125 57.902344 44.339844 58.367188 44.339844 Z M 58.367188 41.835938 C 59.277344 41.835938 60.019531 42.582031 60.019531 43.492188 C 60.019531 44.402344 59.277344 45.144531 58.367188 45.144531 C 57.457031 45.144531 56.714844 44.402344 56.714844 43.492188 C 56.714844 42.578125 57.457031 41.835938 58.367188 41.835938 Z M 58.367188 41.835938 " fill-opacity="1" fill-rule="evenodd"/><g clip-path="url(#6e18338090)"><path fill="#000000" d="M 55.835938 27.90625 C 59.898438 27.90625 63.207031 31.214844 63.207031 35.285156 L 63.207031 35.84375 C 63.207031 36.066406 63.023438 36.25 62.804688 36.25 C 62.582031 36.25 62.398438 36.066406 62.398438 35.84375 L 62.398438 35.285156 C 62.398438 31.664062 59.453125 28.714844 55.835938 28.714844 C 54.078125 28.714844 52.433594 29.402344 51.195312 30.640625 C 49.957031 31.886719 49.273438 33.539062 49.273438 35.285156 L 49.273438 42.644531 C 49.273438 44.65625 47.636719 46.289062 45.621094 46.289062 C 44.648438 46.289062 43.730469 45.914062 43.050781 45.226562 C 42.363281 44.539062 41.988281 43.625 41.988281 42.652344 L 41.988281 39.550781 C 41.988281 39.328125 42.171875 39.144531 42.398438 39.144531 C 42.621094 39.144531 42.804688 39.328125 42.804688 39.550781 L 42.804688 42.652344 C 42.804688 43.410156 43.101562 44.121094 43.628906 44.65625 C 44.160156 45.195312 44.871094 45.480469 45.632812 45.480469 C 47.195312 45.480469 48.472656 44.210938 48.472656 42.644531 L 48.472656 35.285156 C 48.472656 33.324219 49.238281 31.472656 50.628906 30.074219 C 52.011719 28.671875 53.863281 27.90625 55.835938 27.90625 Z M 55.835938 27.90625 " fill-opacity="1" fill-rule="evenodd"/></g><g clip-path="url(#932943e445)"><path fill="#000000" d="M 43.761719 36.066406 L 41.015625 36.066406 L 41.015625 39.039062 L 43.761719 39.039062 Z M 40.613281 35.890625 Z M 40.847656 35.257812 L 43.9375 35.257812 C 44.289062 35.257812 44.578125 35.546875 44.578125 35.898438 L 44.578125 39.214844 C 44.578125 39.566406 44.289062 39.851562 43.9375 39.851562 L 40.847656 39.851562 C 40.496094 39.851562 40.207031 39.566406 40.207031 39.214844 L 40.207031 35.898438 C 40.207031 35.890625 40.207031 35.882812 40.207031 35.875 C 40.230469 35.523438 40.511719 35.257812 40.847656 35.257812 Z M 40.847656 35.257812 " fill-opacity="1" fill-rule="evenodd"/></g><g clip-path="url(#44d2e93614)"><path fill="#000000" d="M 41.597656 33.253906 L 43.195312 33.253906 C 43.570312 33.253906 43.875 33.558594 43.875 33.933594 L 43.875 35.667969 C 43.875 35.890625 43.691406 36.074219 43.472656 36.074219 C 43.25 36.074219 43.066406 35.890625 43.066406 35.667969 L 43.066406 34.070312 L 41.734375 34.070312 L 41.734375 35.667969 C 41.734375 35.890625 41.550781 36.074219 41.332031 36.074219 C 41.109375 36.074219 40.933594 35.890625 40.933594 35.667969 L 40.933594 33.933594 C 40.917969 33.558594 41.222656 33.253906 41.597656 33.253906 Z M 41.597656 33.253906 " fill-opacity="1" fill-rule="evenodd"/></g><path fill="#000000" d="M 59.621094 35.425781 L 65.984375 35.425781 C 66.480469 35.425781 66.886719 35.835938 66.886719 36.328125 L 66.886719 37.984375 C 66.886719 38.207031 66.703125 38.390625 66.480469 38.390625 C 66.253906 38.390625 66.070312 38.207031 66.070312 37.984375 L 66.070312 36.328125 C 66.070312 36.28125 66.03125 36.234375 65.976562 36.234375 L 59.609375 36.234375 C 59.5625 36.234375 59.515625 36.273438 59.515625 36.328125 L 59.515625 37.984375 C 59.515625 38.207031 59.332031 38.390625 59.109375 38.390625 C 58.882812 38.390625 58.699219 38.207031 58.699219 37.984375 L 58.699219 36.328125 C 58.726562 35.828125 59.125 35.425781 59.621094 35.425781 Z M 59.621094 35.425781 " fill-opacity="1" fill-rule="evenodd"/></svg>