<svg xmlns="http://www.w3.org/2000/svg" xmlns:xlink="http://www.w3.org/1999/xlink" width="100" zoomAndPan="magnify" viewBox="0 0 75 74.999997" height="100" preserveAspectRatio="xMidYMid meet" version="1.0"><defs><clipPath id="98d2711c20"><path d="M 2.628906 0 L 72.378906 0 L 72.378906 73.496094 L 2.628906 73.496094 Z M 2.628906 0 " clip-rule="nonzero"/></clipPath></defs><g clip-path="url(#98d2711c20)"><path fill="#000000" d="M 68.410156 16.625 L 61.808594 16.625 C 63.011719 14.488281 62.199219 8.605469 61.105469 5.332031 C 57.523438 -5.195312 43.40625 6.253906 40.960938 8.421875 C 39.90625 7.574219 37.296875 7.976562 36.046875 7.886719 C 35.375 7.886719 34.753906 8.066406 34.179688 8.417969 C 31.757812 6.265625 17.621094 -5.191406 14.042969 5.320312 C 12.949219 8.59375 12.128906 14.488281 13.332031 16.625 L 6.730469 16.625 C 6.214844 16.625 5.714844 16.722656 5.238281 16.921875 C 4.761719 17.121094 4.339844 17.402344 3.976562 17.765625 C 3.613281 18.128906 3.328125 18.550781 3.132812 19.027344 C 2.933594 19.503906 2.835938 20 2.835938 20.515625 L 2.835938 34.234375 C 2.835938 34.40625 2.867188 34.570312 2.933594 34.730469 C 3 34.890625 3.09375 35.03125 3.214844 35.152344 C 3.335938 35.273438 3.476562 35.367188 3.636719 35.433594 C 3.796875 35.5 3.960938 35.53125 4.132812 35.53125 L 6.675781 35.53125 L 6.675781 69.605469 C 6.679688 70.121094 6.777344 70.617188 6.976562 71.09375 C 7.171875 71.570312 7.453125 71.992188 7.820312 72.355469 C 8.183594 72.71875 8.605469 73 9.082031 73.199219 C 9.558594 73.398438 10.054688 73.496094 10.574219 73.496094 C 17.488281 73.496094 64.566406 73.496094 64.566406 73.496094 C 65.082031 73.496094 65.582031 73.398438 66.058594 73.199219 C 66.535156 73 66.953125 72.71875 67.320312 72.355469 C 67.683594 71.992188 67.964844 71.570312 68.164062 71.09375 C 68.363281 70.617188 68.460938 70.121094 68.460938 69.605469 L 68.460938 35.53125 L 71.007812 35.53125 C 71.179688 35.53125 71.34375 35.5 71.503906 35.433594 C 71.664062 35.367188 71.804688 35.273438 71.925781 35.152344 C 72.046875 35.03125 72.140625 34.890625 72.207031 34.730469 C 72.273438 34.570312 72.304688 34.40625 72.304688 34.234375 L 72.304688 20.515625 C 72.304688 20 72.207031 19.503906 72.007812 19.027344 C 71.808594 18.550781 71.527344 18.128906 71.164062 17.765625 C 70.796875 17.402344 70.378906 17.121094 69.898438 16.921875 C 69.421875 16.722656 68.925781 16.625 68.410156 16.625 Z M 44.378906 16.625 C 47.726562 13.550781 55.804688 11.765625 59.714844 11.210938 C 59.980469 13.425781 59.945312 16.171875 58.277344 16.625 Z M 43.082031 32.9375 C 42.984375 32.925781 32.152344 32.945312 32.058594 32.9375 L 32.058594 19.21875 C 32.058594 19.21875 42.03125 19.222656 43.082031 19.21875 Z M 54.191406 3.585938 C 57.667969 2.71875 58.824219 5.863281 59.261719 8.660156 C 55.90625 9.148438 47.46875 10.710938 42.707031 14.5625 C 42.78125 13.199219 42.726562 11.839844 42.546875 10.484375 C 45.964844 7.410156 49.847656 5.109375 54.191406 3.585938 Z M 36.046875 10.480469 L 39.09375 10.480469 C 39.230469 10.480469 39.359375 10.507812 39.484375 10.558594 C 39.609375 10.609375 39.71875 10.683594 39.8125 10.777344 C 39.90625 10.875 39.980469 10.984375 40.03125 11.109375 C 40.085938 11.230469 40.109375 11.359375 40.109375 11.496094 L 40.109375 16.625 L 35.03125 16.625 L 35.03125 11.496094 C 35.03125 11.359375 35.054688 11.230469 35.105469 11.109375 C 35.160156 10.984375 35.230469 10.875 35.328125 10.777344 C 35.421875 10.683594 35.53125 10.609375 35.65625 10.558594 C 35.78125 10.507812 35.910156 10.480469 36.046875 10.480469 Z M 16.535156 6.042969 C 16.664062 5.585938 16.878906 5.175781 17.171875 4.804688 C 17.46875 4.433594 17.824219 4.132812 18.234375 3.902344 C 18.648438 3.671875 19.09375 3.53125 19.5625 3.476562 C 20.035156 3.421875 20.496094 3.457031 20.953125 3.585938 C 25.292969 5.109375 29.175781 7.40625 32.59375 10.484375 C 32.421875 11.839844 32.367188 13.195312 32.433594 14.558594 C 27.667969 10.710938 19.234375 9.148438 15.878906 8.660156 C 16.066406 7.796875 16.277344 6.921875 16.535156 6.042969 Z M 15.425781 11.210938 C 19.488281 11.785156 27.003906 13.453125 30.859375 16.625 L 16.863281 16.625 C 15.195312 16.171875 15.160156 13.425781 15.425781 11.210938 Z M 5.429688 20.515625 C 5.429688 20.34375 5.464844 20.179688 5.53125 20.019531 C 5.597656 19.863281 5.691406 19.722656 5.8125 19.601562 C 5.933594 19.476562 6.074219 19.382812 6.234375 19.320312 C 6.390625 19.253906 6.558594 19.21875 6.730469 19.21875 L 29.460938 19.21875 L 29.460938 32.9375 C 27.902344 32.933594 6.363281 32.9375 5.429688 32.9375 Z M 9.273438 69.605469 L 9.273438 35.53125 L 31.195312 35.53125 L 31.195312 70.902344 L 10.574219 70.902344 C 10.402344 70.902344 10.234375 70.867188 10.074219 70.804688 C 9.917969 70.738281 9.777344 70.644531 9.65625 70.523438 C 9.535156 70.398438 9.441406 70.261719 9.375 70.101562 C 9.308594 69.941406 9.273438 69.777344 9.273438 69.605469 Z M 33.792969 70.902344 L 33.792969 35.53125 L 41.347656 35.53125 L 41.347656 70.902344 Z M 65.867188 69.605469 C 65.867188 69.777344 65.832031 69.941406 65.765625 70.101562 C 65.699219 70.261719 65.605469 70.398438 65.484375 70.523438 C 65.363281 70.644531 65.222656 70.738281 65.0625 70.804688 C 64.90625 70.867188 64.738281 70.902344 64.566406 70.902344 L 43.945312 70.902344 L 43.945312 35.53125 L 65.867188 35.53125 Z M 69.707031 32.9375 C 68.882812 32.941406 47.128906 32.933594 45.679688 32.9375 L 45.679688 19.21875 L 68.410156 19.21875 C 68.582031 19.21875 68.746094 19.253906 68.90625 19.320312 C 69.066406 19.382812 69.207031 19.476562 69.328125 19.601562 C 69.449219 19.722656 69.542969 19.863281 69.609375 20.019531 C 69.675781 20.179688 69.707031 20.34375 69.707031 20.515625 Z M 69.707031 32.9375 " fill-opacity="1" fill-rule="nonzero"/></g></svg>