<svg xmlns="http://www.w3.org/2000/svg" xmlns:xlink="http://www.w3.org/1999/xlink" width="100" zoomAndPan="magnify" viewBox="0 0 75 74.999997" height="100" preserveAspectRatio="xMidYMid meet" version="1.0"><defs><clipPath id="ec51fcc042"><path d="M 2.730469 16.726562 L 72.480469 16.726562 L 72.480469 57.976562 L 2.730469 57.976562 Z M 2.730469 16.726562 " clip-rule="nonzero"/></clipPath></defs><g clip-path="url(#ec51fcc042)"><path fill="#000000" d="M 72.464844 44.03125 C 72.472656 43.988281 72.46875 43.941406 72.464844 43.898438 C 72.464844 43.851562 72.464844 43.808594 72.453125 43.761719 C 72.441406 43.71875 72.421875 43.679688 72.402344 43.636719 C 72.382812 43.59375 72.363281 43.554688 72.335938 43.519531 C 72.308594 43.480469 72.273438 43.449219 72.238281 43.417969 C 72.210938 43.394531 72.191406 43.363281 72.164062 43.34375 C 71.964844 43.207031 67.414062 40.222656 61.234375 39.105469 C 63.453125 33.34375 63.226562 27.9375 63.210938 27.609375 C 63.207031 27.570312 63.191406 27.535156 63.183594 27.496094 C 63.171875 27.457031 63.167969 27.414062 63.152344 27.378906 C 63.128906 27.324219 63.097656 27.277344 63.0625 27.230469 C 63.042969 27.207031 63.03125 27.179688 63.007812 27.15625 C 62.964844 27.113281 62.914062 27.078125 62.863281 27.046875 C 62.835938 27.03125 62.8125 27.011719 62.785156 27 C 62.734375 26.980469 62.679688 26.96875 62.625 26.960938 C 62.589844 26.953125 62.5625 26.9375 62.53125 26.9375 C 62.160156 26.917969 53.652344 26.523438 46.460938 31.085938 C 44.625 22.910156 38.398438 17.238281 38.089844 16.960938 C 38.058594 16.9375 38.023438 16.925781 37.992188 16.90625 C 37.953125 16.882812 37.917969 16.851562 37.875 16.835938 C 37.828125 16.816406 37.785156 16.8125 37.742188 16.804688 C 37.695312 16.792969 37.652344 16.785156 37.605469 16.785156 C 37.558594 16.785156 37.515625 16.792969 37.472656 16.804688 C 37.425781 16.8125 37.382812 16.816406 37.339844 16.835938 C 37.296875 16.851562 37.257812 16.882812 37.21875 16.90625 C 37.1875 16.925781 37.152344 16.9375 37.125 16.960938 C 36.8125 17.238281 30.578125 22.914062 28.75 31.101562 C 21.5625 26.554688 13.058594 26.914062 12.683594 26.933594 C 12.660156 26.9375 12.636719 26.949219 12.609375 26.953125 C 12.542969 26.960938 12.480469 26.972656 12.421875 27 C 12.402344 27.007812 12.390625 27.019531 12.375 27.027344 C 12.3125 27.0625 12.253906 27.101562 12.203125 27.15625 C 12.183594 27.175781 12.171875 27.199219 12.152344 27.222656 C 12.117188 27.273438 12.085938 27.316406 12.0625 27.375 C 12.042969 27.414062 12.039062 27.457031 12.027344 27.5 C 12.019531 27.539062 12.003906 27.570312 12 27.609375 C 11.984375 27.9375 11.757812 33.355469 13.984375 39.125 C 7.800781 40.238281 3.246094 43.230469 3.046875 43.363281 C 3.015625 43.382812 2.996094 43.414062 2.972656 43.4375 C 2.9375 43.46875 2.898438 43.5 2.871094 43.539062 C 2.84375 43.574219 2.824219 43.617188 2.804688 43.660156 C 2.789062 43.699219 2.765625 43.738281 2.757812 43.78125 C 2.746094 43.828125 2.746094 43.871094 2.742188 43.917969 C 2.738281 43.964844 2.734375 44.007812 2.742188 44.050781 C 2.75 44.097656 2.769531 44.144531 2.785156 44.191406 C 2.796875 44.222656 2.796875 44.257812 2.816406 44.289062 C 3.046875 44.714844 8.597656 54.761719 18.910156 57.289062 C 20.441406 57.664062 21.996094 57.855469 23.570312 57.855469 C 28.117188 57.855469 32.824219 56.273438 37.621094 53.160156 C 42.40625 56.261719 47.101562 57.835938 51.636719 57.835938 C 53.210938 57.835938 54.769531 57.648438 56.300781 57.273438 C 66.613281 54.742188 72.164062 44.695312 72.394531 44.269531 C 72.410156 44.238281 72.414062 44.203125 72.425781 44.167969 C 72.441406 44.121094 72.460938 44.078125 72.464844 44.03125 Z M 61.78125 28.34375 C 61.761719 30.855469 61.257812 39.964844 55.183594 45.96875 C 51.382812 49.726562 46.078125 51.613281 39.410156 51.605469 C 44.421875 46.664062 46.96875 41.269531 46.96875 35.550781 C 46.96875 34.542969 46.890625 33.558594 46.746094 32.605469 C 52.527344 28.703125 59.597656 28.355469 61.78125 28.34375 Z M 37.605469 18.484375 C 39.164062 20.050781 44.039062 25.429688 45.25 32.421875 C 45.253906 32.429688 45.253906 32.4375 45.257812 32.445312 C 45.429688 33.453125 45.53125 34.492188 45.53125 35.5625 C 45.527344 41.171875 42.855469 46.476562 37.605469 51.347656 C 32.355469 46.476562 29.6875 41.171875 29.683594 35.5625 C 29.679688 27.074219 35.824219 20.277344 37.605469 18.484375 Z M 28.464844 32.621094 C 28.324219 33.570312 28.246094 34.546875 28.246094 35.550781 C 28.246094 41.269531 30.792969 46.664062 35.804688 51.609375 C 29.132812 51.617188 23.828125 49.730469 20.027344 45.972656 C 13.960938 39.972656 13.453125 30.863281 13.433594 28.347656 C 15.617188 28.363281 22.679688 28.730469 28.464844 32.621094 Z M 19.265625 55.910156 C 10.9375 53.875 5.753906 46.332031 4.425781 44.1875 C 5.835938 43.359375 9.730469 41.28125 14.554688 40.46875 C 15.578125 42.730469 17.007812 44.992188 19.003906 46.96875 C 22.953125 50.878906 28.363281 52.90625 35.113281 53.027344 C 29.617188 56.167969 24.296875 57.140625 19.265625 55.910156 Z M 55.957031 55.890625 C 50.929688 57.121094 45.617188 56.15625 40.128906 53.027344 C 46.863281 52.898438 52.265625 50.875 56.210938 46.96875 C 58.210938 44.988281 59.640625 42.722656 60.667969 40.453125 C 65.476562 41.265625 69.375 43.34375 70.785156 44.171875 C 69.460938 46.3125 64.289062 53.84375 55.957031 55.890625 Z M 55.957031 55.890625 " fill-opacity="1" fill-rule="nonzero"/></g></svg>