<svg xmlns="http://www.w3.org/2000/svg" xmlns:xlink="http://www.w3.org/1999/xlink" width="100" zoomAndPan="magnify" viewBox="0 0 75 74.999997" height="100" preserveAspectRatio="xMidYMid meet" version="1.0"><defs><clipPath id="8cae1469ec"><path d="M 13.953125 1.621094 L 61.203125 1.621094 L 61.203125 73.621094 L 13.953125 73.621094 Z M 13.953125 1.621094 " clip-rule="nonzero"/></clipPath></defs><path fill="#000000" d="M 18.453125 42.683594 C 18.453125 43.304688 18.960938 43.808594 19.578125 43.808594 L 26.328125 43.808594 L 26.328125 41.558594 L 19.578125 41.558594 C 18.960938 41.558594 18.453125 42.066406 18.453125 42.683594 Z M 18.453125 42.683594 " fill-opacity="1" fill-rule="nonzero"/><path fill="#000000" d="M 18.453125 48.308594 C 18.453125 48.925781 18.960938 49.433594 19.578125 49.433594 L 26.328125 49.433594 L 26.328125 47.183594 L 19.578125 47.183594 C 18.960938 47.183594 18.453125 47.691406 18.453125 48.308594 Z M 18.453125 48.308594 " fill-opacity="1" fill-rule="nonzero"/><path fill="#000000" d="M 18.453125 53.933594 C 18.453125 54.550781 18.960938 55.058594 19.578125 55.058594 L 26.328125 55.058594 L 26.328125 52.808594 L 19.578125 52.808594 C 18.960938 52.808594 18.453125 53.316406 18.453125 53.933594 Z M 18.453125 53.933594 " fill-opacity="1" fill-rule="nonzero"/><g clip-path="url(#8cae1469ec)"><path fill="#000000" d="M 30.265625 73.621094 L 59.515625 73.621094 C 60.472656 73.621094 61.203125 72.890625 61.203125 71.933594 L 61.203125 24.683594 C 61.203125 23.730469 60.472656 22.996094 59.515625 22.996094 L 46.015625 22.996094 L 46.015625 12.875 C 46.015625 12.816406 46.015625 12.761719 46.015625 12.761719 C 46.015625 12.703125 46.015625 12.703125 46.015625 12.648438 C 46.015625 12.59375 46.015625 12.59375 45.960938 12.535156 C 45.960938 12.480469 45.960938 12.480469 45.90625 12.421875 C 45.90625 12.367188 45.847656 12.367188 45.847656 12.3125 C 45.847656 12.253906 45.792969 12.253906 45.792969 12.199219 C 45.792969 12.199219 45.734375 12.140625 45.734375 12.140625 C 45.734375 12.085938 45.679688 12.085938 45.679688 12.03125 C 45.679688 12.03125 45.625 11.972656 45.625 11.972656 C 45.566406 11.972656 45.566406 11.917969 45.511719 11.917969 C 45.453125 11.917969 45.453125 11.859375 45.398438 11.859375 C 45.34375 11.859375 45.34375 11.804688 45.285156 11.804688 C 45.230469 11.804688 45.230469 11.804688 45.171875 11.75 C 45.117188 11.75 45.117188 11.75 45.0625 11.75 C 45.003906 11.75 45.003906 11.75 44.949219 11.75 C 44.949219 11.75 44.890625 11.75 44.890625 11.75 L 31.390625 11.75 L 31.390625 2.75 C 31.390625 2.75 31.390625 2.691406 31.390625 2.691406 C 31.390625 2.636719 31.390625 2.578125 31.390625 2.523438 C 31.390625 2.46875 31.390625 2.46875 31.335938 2.410156 C 31.335938 2.355469 31.335938 2.355469 31.28125 2.296875 C 31.28125 2.242188 31.222656 2.1875 31.222656 2.128906 C 31.222656 2.128906 31.222656 2.128906 31.222656 2.074219 C 31.167969 2.015625 31.109375 1.960938 31.054688 1.90625 C 31.054688 1.90625 31 1.847656 31 1.847656 C 30.941406 1.847656 30.941406 1.792969 30.886719 1.792969 C 30.828125 1.792969 30.828125 1.734375 30.773438 1.734375 C 30.71875 1.734375 30.71875 1.679688 30.660156 1.679688 C 30.605469 1.679688 30.546875 1.625 30.546875 1.625 C 30.546875 1.625 30.492188 1.625 30.492188 1.625 C 30.4375 1.625 30.324219 1.625 30.265625 1.625 C 30.210938 1.625 30.097656 1.625 30.042969 1.625 C 29.984375 1.625 29.984375 1.625 29.984375 1.625 C 29.929688 1.625 29.875 1.625 29.875 1.679688 C 29.816406 1.679688 29.761719 1.734375 29.703125 1.734375 C 29.703125 1.734375 29.648438 1.734375 29.648438 1.734375 L 14.460938 11.859375 C 14.40625 11.917969 14.347656 11.972656 14.292969 11.972656 C 14.292969 11.972656 14.234375 12.03125 14.234375 12.03125 C 14.234375 12.085938 14.179688 12.085938 14.179688 12.140625 C 14.179688 12.199219 14.125 12.199219 14.125 12.253906 C 14.125 12.3125 14.066406 12.3125 14.066406 12.367188 C 14.066406 12.421875 14.066406 12.421875 14.011719 12.480469 C 14.011719 12.535156 14.011719 12.535156 13.953125 12.59375 C 13.953125 12.648438 13.953125 12.761719 13.953125 12.816406 L 13.953125 61.1875 C 13.953125 61.808594 14.460938 62.3125 15.078125 62.3125 L 28.578125 62.3125 L 28.578125 71.875 C 28.578125 72.890625 29.3125 73.621094 30.265625 73.621094 Z M 58.953125 71.371094 L 30.828125 71.371094 L 30.828125 25.246094 L 58.953125 25.246094 Z M 33.136719 22.996094 L 43.765625 15.125 L 43.765625 22.996094 Z M 18.792969 11.75 L 29.140625 4.828125 L 29.140625 11.75 Z M 16.203125 60.121094 L 16.203125 14 L 41.460938 14 L 29.03125 23.222656 C 28.636719 23.503906 28.523438 23.953125 28.578125 24.402344 C 28.578125 24.515625 28.523438 24.628906 28.523438 24.683594 L 28.523438 60.121094 Z M 16.203125 60.121094 " fill-opacity="1" fill-rule="nonzero"/></g><path fill="#000000" d="M 33.078125 47.914062 C 33.078125 47.972656 33.078125 47.972656 33.078125 48.027344 C 33.078125 48.082031 33.078125 48.082031 33.136719 48.140625 C 33.136719 48.195312 33.136719 48.195312 33.191406 48.253906 C 33.191406 48.308594 33.25 48.308594 33.25 48.363281 C 33.25 48.421875 33.304688 48.421875 33.304688 48.476562 C 33.304688 48.535156 33.359375 48.535156 33.359375 48.535156 C 33.359375 48.589844 33.417969 48.589844 33.417969 48.589844 C 33.417969 48.589844 33.417969 48.589844 33.472656 48.644531 C 33.472656 48.644531 33.53125 48.644531 33.53125 48.703125 C 33.53125 48.703125 33.585938 48.757812 33.585938 48.757812 C 33.640625 48.757812 33.640625 48.816406 33.699219 48.816406 C 33.699219 48.816406 33.753906 48.816406 33.753906 48.871094 C 33.8125 48.871094 33.867188 48.925781 33.867188 48.925781 C 33.867188 48.925781 33.921875 48.925781 33.921875 48.925781 C 33.980469 48.925781 34.035156 48.925781 34.148438 48.925781 L 55.523438 48.925781 C 56.140625 48.925781 56.648438 48.421875 56.648438 47.800781 L 56.648438 31.996094 C 56.648438 31.378906 56.140625 30.871094 55.523438 30.871094 L 34.203125 30.871094 C 33.585938 30.871094 33.078125 31.378906 33.078125 31.996094 L 33.078125 47.746094 C 33.078125 47.746094 33.078125 47.800781 33.078125 47.800781 C 33.078125 47.859375 33.078125 47.859375 33.078125 47.914062 Z M 40.167969 42.179688 L 44.105469 46.621094 L 36.566406 46.621094 Z M 47.085938 46.621094 L 44.835938 44.089844 L 49.335938 39.195312 L 54.453125 43.359375 L 54.453125 46.621094 Z M 54.453125 33.121094 L 54.453125 40.433594 L 49.953125 36.777344 C 49.953125 36.777344 49.898438 36.722656 49.898438 36.722656 C 49.84375 36.722656 49.84375 36.664062 49.785156 36.664062 C 49.730469 36.664062 49.730469 36.609375 49.671875 36.609375 C 49.617188 36.609375 49.617188 36.554688 49.5625 36.554688 C 49.503906 36.554688 49.503906 36.554688 49.449219 36.496094 C 49.390625 36.496094 49.390625 36.496094 49.335938 36.496094 C 49.28125 36.496094 49.28125 36.496094 49.222656 36.496094 C 49.167969 36.496094 49.167969 36.496094 49.109375 36.496094 C 49.054688 36.496094 49.054688 36.496094 49 36.496094 C 48.941406 36.496094 48.941406 36.496094 48.886719 36.496094 C 48.828125 36.496094 48.828125 36.496094 48.773438 36.554688 C 48.71875 36.554688 48.71875 36.554688 48.660156 36.609375 C 48.605469 36.609375 48.605469 36.664062 48.546875 36.664062 C 48.492188 36.664062 48.492188 36.722656 48.4375 36.722656 C 48.378906 36.722656 48.378906 36.777344 48.324219 36.777344 C 48.324219 36.777344 48.265625 36.835938 48.265625 36.835938 L 43.203125 42.347656 L 40.953125 39.703125 C 40.953125 39.703125 40.898438 39.648438 40.898438 39.648438 C 40.898438 39.648438 40.84375 39.589844 40.84375 39.589844 C 40.785156 39.535156 40.785156 39.535156 40.730469 39.535156 C 40.730469 39.535156 40.671875 39.476562 40.671875 39.476562 C 40.617188 39.476562 40.5625 39.421875 40.5625 39.421875 C 40.5625 39.421875 40.503906 39.421875 40.503906 39.421875 C 40.449219 39.421875 40.390625 39.421875 40.390625 39.421875 C 40.390625 39.421875 40.335938 39.421875 40.335938 39.421875 C 40.28125 39.421875 40.222656 39.421875 40.167969 39.421875 C 40.167969 39.421875 40.109375 39.421875 40.109375 39.421875 C 40.054688 39.421875 40 39.421875 40 39.421875 C 40 39.421875 39.941406 39.421875 39.941406 39.421875 C 39.886719 39.421875 39.886719 39.476562 39.828125 39.476562 C 39.773438 39.476562 39.773438 39.476562 39.71875 39.535156 C 39.660156 39.535156 39.660156 39.589844 39.660156 39.589844 C 39.605469 39.589844 39.605469 39.648438 39.546875 39.648438 C 39.546875 39.648438 39.492188 39.703125 39.492188 39.703125 C 39.492188 39.703125 39.4375 39.757812 39.4375 39.757812 L 35.328125 44.539062 L 35.328125 33.121094 Z M 54.453125 33.121094 " fill-opacity="1" fill-rule="nonzero"/><path fill="#000000" d="M 39.828125 36.496094 C 39.828125 36.644531 39.800781 36.789062 39.746094 36.925781 C 39.6875 37.066406 39.605469 37.1875 39.5 37.292969 C 39.394531 37.398438 39.273438 37.480469 39.136719 37.535156 C 38.996094 37.59375 38.855469 37.621094 38.703125 37.621094 C 38.554688 37.621094 38.414062 37.59375 38.273438 37.535156 C 38.136719 37.480469 38.015625 37.398438 37.910156 37.292969 C 37.804688 37.1875 37.722656 37.066406 37.664062 36.925781 C 37.609375 36.789062 37.578125 36.644531 37.578125 36.496094 C 37.578125 36.347656 37.609375 36.203125 37.664062 36.066406 C 37.722656 35.929688 37.804688 35.808594 37.910156 35.703125 C 38.015625 35.597656 38.136719 35.515625 38.273438 35.457031 C 38.414062 35.402344 38.554688 35.371094 38.703125 35.371094 C 38.855469 35.371094 38.996094 35.402344 39.136719 35.457031 C 39.273438 35.515625 39.394531 35.597656 39.5 35.703125 C 39.605469 35.808594 39.6875 35.929688 39.746094 36.066406 C 39.800781 36.203125 39.828125 36.347656 39.828125 36.496094 Z M 39.828125 36.496094 " fill-opacity="1" fill-rule="nonzero"/><path fill="#000000" d="M 33.980469 56.972656 C 34.203125 57.195312 34.484375 57.308594 34.765625 57.308594 C 35.046875 57.308594 35.328125 57.195312 35.554688 56.972656 L 38.929688 53.597656 C 39.378906 53.144531 39.378906 52.472656 38.929688 52.019531 C 38.480469 51.570312 37.804688 51.570312 37.355469 52.019531 L 34.765625 54.609375 L 34.429688 54.269531 C 33.980469 53.820312 33.304688 53.820312 32.855469 54.269531 C 32.40625 54.722656 32.40625 55.394531 32.855469 55.847656 Z M 33.980469 56.972656 " fill-opacity="1" fill-rule="nonzero"/><path fill="#000000" d="M 33.980469 64.28125 C 34.203125 64.507812 34.484375 64.621094 34.765625 64.621094 C 35.046875 64.621094 35.328125 64.507812 35.554688 64.28125 L 38.929688 60.90625 C 39.378906 60.457031 39.378906 59.78125 38.929688 59.332031 C 38.480469 58.882812 37.804688 58.882812 37.355469 59.332031 L 34.765625 61.921875 L 34.429688 61.582031 C 33.980469 61.132812 33.304688 61.132812 32.855469 61.582031 C 32.40625 62.03125 32.40625 62.707031 32.855469 63.15625 Z M 33.980469 64.28125 " fill-opacity="1" fill-rule="nonzero"/><path fill="#000000" d="M 55.578125 53.933594 L 40.953125 53.933594 C 40.335938 53.933594 39.828125 54.441406 39.828125 55.058594 C 39.828125 55.675781 40.335938 56.183594 40.953125 56.183594 L 55.578125 56.183594 C 56.199219 56.183594 56.703125 55.675781 56.703125 55.058594 C 56.703125 54.441406 56.199219 53.933594 55.578125 53.933594 Z M 55.578125 53.933594 " fill-opacity="1" fill-rule="nonzero"/><path fill="#000000" d="M 55.578125 61.808594 L 40.953125 61.808594 C 40.335938 61.808594 39.828125 62.3125 39.828125 62.933594 C 39.828125 63.550781 40.335938 64.058594 40.953125 64.058594 L 55.578125 64.058594 C 56.199219 64.058594 56.703125 63.550781 56.703125 62.933594 C 56.703125 62.3125 56.199219 61.808594 55.578125 61.808594 Z M 55.578125 61.808594 " fill-opacity="1" fill-rule="nonzero"/></svg>