<svg xmlns="http://www.w3.org/2000/svg" xmlns:xlink="http://www.w3.org/1999/xlink" width="100" zoomAndPan="magnify" viewBox="0 0 75 74.999997" height="100" preserveAspectRatio="xMidYMid meet" version="1.0"><defs><clipPath id="3d3579a3ee"><path d="M 32 9 L 68 9 L 68 74.335938 L 32 74.335938 Z M 32 9 " clip-rule="nonzero"/></clipPath></defs><path fill="#000000" d="M 26.925781 29.5625 C 22.15625 37.714844 26.074219 44.242188 27.378906 46.046875 C 25.78125 49.007812 24.546875 52.261719 24.117188 55.683594 C 24.019531 56.460938 24.570312 57.171875 25.34375 57.269531 C 25.402344 57.277344 25.460938 57.28125 25.523438 57.28125 C 26.222656 57.28125 26.832031 56.757812 26.921875 56.039062 C 28.449219 43.902344 41.769531 33.414062 41.902344 33.308594 C 42.519531 32.828125 42.632812 31.9375 42.15625 31.316406 C 41.679688 30.695312 40.792969 30.578125 40.175781 31.058594 C 39.789062 31.359375 33.597656 36.226562 28.980469 43.351562 C 27.75 41.226562 26.046875 36.671875 29.363281 31.003906 C 31.429688 27.472656 34.644531 26.910156 38.371094 26.261719 C 41.101562 25.785156 44.132812 25.253906 46.855469 23.40625 C 47.730469 27.613281 49.066406 37.03125 45.058594 42.574219 C 43.0625 45.339844 39.886719 46.8125 35.625 46.949219 C 34.84375 46.972656 34.230469 47.628906 34.257812 48.414062 C 34.28125 49.183594 34.910156 49.792969 35.667969 49.792969 C 35.683594 49.792969 35.699219 49.792969 35.714844 49.792969 C 40.898438 49.628906 44.8125 47.761719 47.351562 44.242188 C 53.410156 35.851562 49.242188 21.097656 49.0625 20.472656 C 48.921875 19.992188 48.542969 19.617188 48.0625 19.492188 C 47.578125 19.367188 47.066406 19.507812 46.710938 19.859375 C 44.203125 22.355469 41.136719 22.894531 37.886719 23.460938 C 33.839844 24.164062 29.65625 24.894531 26.925781 29.5625 Z M 26.925781 29.5625 " fill-opacity="1" fill-rule="nonzero"/><path fill="#000000" d="M 25.5625 65.585938 C 25.742188 65.664062 25.929688 65.699219 26.117188 65.699219 C 26.664062 65.699219 27.1875 65.375 27.417969 64.832031 C 27.722656 64.113281 27.390625 63.277344 26.671875 62.96875 C 15.53125 58.191406 8.917969 46.839844 10.214844 34.710938 C 11.699219 20.84375 23.242188 10.476562 36.753906 10.164062 L 33.261719 12.992188 C 32.652344 13.484375 32.558594 14.382812 33.046875 14.992188 C 33.328125 15.34375 33.734375 15.523438 34.148438 15.523438 C 34.460938 15.523438 34.773438 15.421875 35.035156 15.207031 L 41.460938 10 C 41.753906 9.765625 41.941406 9.421875 41.980469 9.046875 C 42.019531 8.667969 41.910156 8.292969 41.675781 8 L 36.5 1.535156 C 36.011719 0.925781 35.121094 0.828125 34.511719 1.320312 C 33.902344 1.8125 33.808594 2.707031 34.296875 3.320312 L 37.488281 7.304688 C 22.238281 7.246094 9.070312 18.828125 7.40625 34.40625 C 5.972656 47.785156 13.269531 60.316406 25.5625 65.585938 Z M 25.5625 65.585938 " fill-opacity="1" fill-rule="nonzero"/><g clip-path="url(#3d3579a3ee)"><path fill="#000000" d="M 47.863281 12.234375 C 59 16.871094 65.875 28.535156 64.582031 40.605469 C 63.097656 54.472656 51.546875 64.832031 38.042969 65.148438 L 41.535156 62.324219 C 42.144531 61.828125 42.238281 60.9375 41.75 60.324219 C 41.257812 59.710938 40.371094 59.613281 39.761719 60.105469 L 33.332031 65.3125 C 33.042969 65.550781 32.855469 65.894531 32.816406 66.269531 C 32.773438 66.644531 32.882812 67.019531 33.121094 67.316406 L 38.296875 73.78125 C 38.578125 74.128906 38.984375 74.308594 39.398438 74.308594 C 39.710938 74.308594 40.023438 74.207031 40.285156 73.996094 C 40.894531 73.5 40.988281 72.605469 40.5 71.996094 L 37.304688 68.007812 C 37.34375 68.007812 37.382812 68.011719 37.417969 68.011719 C 52.617188 68.011719 65.730469 56.449219 67.394531 40.910156 C 68.816406 27.59375 61.230469 14.71875 48.941406 9.605469 C 48.222656 9.308594 47.394531 9.652344 47.097656 10.378906 C 46.796875 11.105469 47.140625 11.933594 47.863281 12.234375 Z M 47.863281 12.234375 " fill-opacity="1" fill-rule="nonzero"/></g></svg>