<svg xmlns="http://www.w3.org/2000/svg" xmlns:xlink="http://www.w3.org/1999/xlink" width="100" zoomAndPan="magnify" viewBox="0 0 75 74.999997" height="100" preserveAspectRatio="xMidYMid meet" version="1.0"><defs><clipPath id="3b5ab4bf43"><path d="M 6.085938 1 L 69 1 L 69 73.722656 L 6.085938 73.722656 Z M 6.085938 1 " clip-rule="nonzero"/></clipPath></defs><g clip-path="url(#3b5ab4bf43)"><path fill="#000000" d="M 67.285156 33.613281 C 65.683594 33.03125 63.6875 34.382812 63.359375 36.121094 C 63.359375 36.121094 60.476562 49.210938 60.476562 49.210938 C 59.558594 48.382812 58.207031 48.324219 57.089844 48.949219 C 57.089844 48.949219 51.453125 52.113281 51.453125 52.113281 L 48.84375 53.554688 C 47.609375 54.222656 46.632812 55.378906 46.160156 56.738281 L 45.351562 59.074219 C 44.503906 58.707031 43.425781 59.015625 42.914062 59.785156 C 42.914062 59.785156 40.511719 63.253906 40.511719 63.253906 C 39.882812 64.164062 40.113281 65.410156 41.03125 66.035156 L 51.367188 73.101562 C 52.25 73.734375 53.574219 73.488281 54.167969 72.589844 C 54.167969 72.589844 56.570312 69.125 56.570312 69.125 C 56.570312 69.125 56.570312 69.121094 56.570312 69.121094 C 57.078125 68.390625 57.019531 67.445312 56.503906 66.777344 C 56.503906 66.777344 62.324219 60.886719 62.324219 60.886719 L 66.726562 56.140625 C 67.714844 55.082031 68.3125 53.679688 68.367188 52.292969 L 68.992188 36.210938 C 69.035156 34.996094 68.367188 33.976562 67.285156 33.613281 Z M 55.375 68.304688 L 52.972656 71.773438 C 52.890625 71.894531 52.761719 71.976562 52.609375 72.003906 C 52.46875 72.03125 52.3125 72 52.191406 71.914062 L 41.851562 64.847656 C 41.597656 64.671875 41.53125 64.324219 41.707031 64.070312 L 44.113281 60.601562 C 44.277344 60.351562 44.648438 60.28125 44.894531 60.457031 C 44.894531 60.457031 55.230469 67.527344 55.230469 67.527344 C 55.488281 67.703125 55.550781 68.050781 55.375 68.304688 Z M 66.917969 52.234375 C 66.875 53.285156 66.417969 54.355469 65.660156 55.164062 L 61.273438 59.894531 L 55.367188 65.867188 L 46.605469 59.878906 C 47.226562 58.1875 47.726562 55.652344 49.535156 54.820312 C 49.535156 54.820312 57.804688 50.203125 57.804688 50.203125 C 60.183594 49.0625 60.597656 52.351562 58.777344 53.277344 C 58.777344 53.277344 53.871094 56.027344 53.871094 56.027344 C 53.046875 56.492188 53.757812 57.746094 54.585938 57.285156 C 54.585938 57.285156 59.488281 54.535156 59.488281 54.535156 C 59.972656 54.265625 60.398438 53.875 60.71875 53.410156 C 61.832031 52.035156 64.164062 37.386719 65.082031 35.730469 C 65.8125 34.582031 67.589844 34.644531 67.539062 36.15625 C 67.539062 36.160156 66.917969 52.234375 66.917969 52.234375 Z M 44.980469 61.398438 C 44.527344 61.089844 43.90625 61.203125 43.59375 61.652344 L 42.511719 63.214844 C 42.359375 63.433594 42.304688 63.699219 42.351562 63.957031 C 42.402344 64.21875 42.546875 64.445312 42.769531 64.59375 L 45.125 66.203125 C 45.570312 66.511719 46.195312 66.402344 46.511719 65.949219 C 46.511719 65.949219 47.59375 64.386719 47.59375 64.386719 C 47.746094 64.171875 47.800781 63.90625 47.753906 63.644531 C 47.703125 63.386719 47.558594 63.160156 47.335938 63.011719 Z M 45.570312 64.761719 L 43.960938 63.660156 L 44.53125 62.839844 L 46.140625 63.941406 Z M 32.332031 59.785156 C 31.816406 59.015625 30.746094 58.707031 29.894531 59.074219 L 29.082031 56.730469 C 28.613281 55.382812 27.636719 54.222656 26.398438 53.554688 L 18.148438 48.949219 C 17.035156 48.324219 15.683594 48.386719 14.765625 49.214844 C 14.519531 48.554688 11.914062 35.042969 11.355469 34.917969 C 9.828125 32.566406 6.128906 33.273438 6.253906 36.214844 L 6.875 52.296875 C 6.929688 53.683594 7.527344 55.085938 8.515625 56.144531 C 10.910156 58.828125 16.15625 64.222656 18.738281 66.777344 C 18.207031 67.4375 18.175781 68.433594 18.671875 69.125 C 18.671875 69.125 21.074219 72.59375 21.074219 72.59375 C 21.464844 73.15625 22.097656 73.460938 22.738281 73.460938 C 23.132812 73.460938 23.527344 73.34375 23.875 73.109375 L 34.210938 66.039062 C 35.117188 65.449219 35.363281 64.128906 34.730469 63.253906 C 34.730469 63.25 32.332031 59.785156 32.332031 59.785156 Z M 13.984375 59.910156 L 9.582031 55.164062 C 8.824219 54.355469 8.367188 53.285156 8.328125 52.238281 L 7.703125 36.160156 C 7.726562 34.171875 10.195312 34.863281 10.464844 36.429688 C 10.464844 36.429688 13.808594 51.597656 13.808594 51.597656 C 14.046875 52.761719 14.644531 53.960938 15.753906 54.535156 C 15.753906 54.535156 20.65625 57.285156 20.65625 57.285156 C 21.476562 57.742188 22.199219 56.503906 21.371094 56.03125 C 21.371094 56.03125 16.464844 53.28125 16.464844 53.28125 C 14.648438 52.359375 15.058594 49.066406 17.4375 50.203125 C 19.195312 51.191406 24 53.890625 25.703125 54.820312 C 27.523438 55.660156 28.015625 58.195312 28.636719 59.878906 L 19.875 65.871094 Z M 33.394531 64.847656 L 23.054688 71.914062 C 22.800781 72.089844 22.449219 72.027344 22.273438 71.773438 L 19.871094 68.304688 C 19.695312 68.058594 19.761719 67.695312 20.015625 67.527344 C 20.015625 67.527344 30.351562 60.457031 30.351562 60.457031 C 30.597656 60.28125 30.964844 60.351562 31.132812 60.601562 C 31.132812 60.601562 33.539062 64.066406 33.539062 64.066406 C 33.714844 64.3125 33.648438 64.683594 33.394531 64.847656 Z M 31.652344 61.652344 C 31.355469 61.207031 30.699219 61.089844 30.261719 61.398438 C 30.261719 61.398438 27.90625 63.011719 27.90625 63.011719 C 27.457031 63.320312 27.339844 63.9375 27.652344 64.386719 L 28.734375 65.949219 C 29.046875 66.402344 29.671875 66.511719 30.121094 66.203125 C 30.121094 66.203125 32.476562 64.59375 32.476562 64.59375 C 32.929688 64.285156 33.042969 63.667969 32.734375 63.214844 Z M 29.671875 64.761719 L 29.105469 63.941406 L 30.714844 62.839844 L 31.28125 63.660156 Z M 14.820312 15.339844 L 16.277344 15.339844 L 16.277344 42.3125 C 16.277344 43.933594 17.585938 45.25 19.1875 45.25 L 56.054688 45.25 C 57.660156 45.25 58.964844 43.933594 58.964844 42.3125 L 58.964844 15.339844 L 60.425781 15.339844 C 61.496094 15.339844 62.371094 14.460938 62.371094 13.382812 L 62.371094 7.769531 C 62.371094 6.691406 61.496094 5.8125 60.425781 5.8125 L 55.457031 5.8125 C 55.625 4.496094 55.8125 2.957031 54.542969 2.113281 C 53.789062 1.5625 52.832031 1.460938 52.023438 1.828125 L 40.988281 6.054688 C 39.066406 4.285156 35.894531 4.230469 33.910156 5.921875 L 23.253906 1.84375 C 21.492188 0.980469 19.34375 2.617188 19.664062 4.527344 C 19.714844 4.957031 19.742188 5.382812 19.785156 5.8125 L 14.820312 5.8125 C 13.746094 5.8125 12.871094 6.691406 12.871094 7.769531 L 12.871094 13.382812 C 12.871094 14.460938 13.746094 15.339844 14.820312 15.339844 Z M 44.402344 43.808594 L 30.34375 43.808594 L 30.34375 20.703125 L 31.347656 27.011719 C 31.449219 27.71875 32.441406 27.832031 32.730469 27.195312 C 32.730469 27.195312 37.371094 16.710938 37.371094 16.710938 C 38.382812 18.984375 41.050781 25.003906 42.019531 27.191406 C 42.296875 27.832031 43.304688 27.71875 43.402344 27.015625 C 43.585938 25.863281 44.226562 21.804688 44.402344 20.722656 Z M 29.339844 19.269531 L 25.914062 20.597656 C 26.878906 19.238281 28.175781 17.417969 29.15625 16.039062 C 30.824219 15.648438 32.496094 15.242188 34.148438 14.792969 C 34.289062 14.894531 36.128906 15.9375 36.222656 15.71875 L 32.398438 24.363281 L 31.59375 19.335938 C 31.53125 18.996094 31.226562 18.730469 30.878906 18.726562 C 30.695312 18.699219 29.546875 19.207031 29.339844 19.269531 Z M 44.488281 18.914062 C 44.4375 18.902344 44.113281 18.753906 44.0625 18.765625 C 43.664062 18.621094 43.207031 18.925781 43.152344 19.335938 C 42.96875 20.511719 42.535156 23.214844 42.355469 24.363281 C 41.96875 23.496094 38.984375 16.757812 38.523438 15.71875 C 39.324219 15.539062 40.085938 15.1875 40.734375 14.6875 C 42.308594 15.136719 43.898438 15.515625 45.492188 15.898438 L 48.832031 20.597656 C 48.164062 20.339844 45.09375 19.148438 44.488281 18.914062 Z M 55.265625 9.488281 C 55.265625 8.75 55.292969 8 55.335938 7.253906 L 60.425781 7.253906 C 60.695312 7.253906 60.921875 7.488281 60.921875 7.769531 L 60.921875 13.378906 C 60.921875 13.664062 60.699219 13.898438 60.425781 13.898438 L 55.523438 13.898438 C 55.351562 12.441406 55.273438 10.964844 55.265625 9.488281 Z M 54.675781 17.222656 C 55.257812 16.765625 55.597656 16.070312 55.65625 15.34375 L 57.515625 15.34375 L 57.515625 42.3125 C 57.515625 43.140625 56.859375 43.808594 56.054688 43.808594 L 45.851562 43.808594 L 45.851562 20.992188 L 50.554688 22.816406 C 51.195312 23.089844 51.835938 22.28125 51.414062 21.726562 C 51.414062 21.726562 47.636719 16.417969 47.636719 16.417969 C 49.34375 16.832031 51.011719 17.25 52.355469 17.660156 C 53.140625 17.90625 54.035156 17.730469 54.675781 17.222656 Z M 41.910156 13.4375 C 43.160156 11.632812 43.191406 9.082031 41.996094 7.214844 L 52.589844 3.15625 C 52.957031 2.992188 53.359375 3.03125 53.683594 3.273438 C 54.023438 3.523438 54.195312 3.921875 54.140625 4.347656 C 53.855469 6.777344 53.722656 9.230469 53.867188 11.675781 C 53.917969 12.523438 53.992188 13.371094 54.09375 14.214844 C 54.171875 14.863281 54.382812 15.582031 53.796875 16.074219 C 53.511719 16.316406 53.140625 16.390625 52.785156 16.28125 C 49.1875 15.183594 45.496094 14.484375 41.871094 13.503906 C 41.882812 13.484375 41.894531 13.460938 41.910156 13.4375 Z M 34.574219 7.269531 C 38.726562 3.523438 43.996094 9.617188 40.070312 13.355469 C 35.878906 16.777344 30.914062 11.042969 34.574219 7.269531 Z M 21.097656 14.359375 C 21.585938 11.0625 21.527344 7.648438 21.101562 4.347656 C 21.046875 3.921875 21.21875 3.519531 21.558594 3.273438 C 21.898438 3.023438 22.304688 2.996094 22.691406 3.171875 C 22.691406 3.171875 32.851562 7.0625 32.851562 7.0625 C 31.496094 9 31.542969 11.726562 32.957031 13.617188 C 29.957031 14.410156 26.925781 15.097656 23.921875 15.878906 C 22.242188 16.554688 20.742188 16.675781 21.097656 14.359375 Z M 22.070312 17.757812 C 23.308594 17.722656 24.449219 17.105469 25.664062 16.898438 C 25.898438 16.839844 26.875 16.746094 27.003906 16.566406 C 25.78125 18.285156 24.558594 20 23.335938 21.726562 C 22.914062 22.28125 23.546875 23.089844 24.191406 22.816406 C 24.191406 22.816406 28.648438 21.085938 28.648438 21.085938 L 28.894531 20.992188 L 28.894531 43.808594 L 19.191406 43.808594 C 18.382812 43.808594 17.730469 43.136719 17.730469 42.3125 L 17.730469 15.34375 L 19.585938 15.34375 C 19.675781 16.621094 20.753906 17.730469 22.070312 17.757812 Z M 14.324219 7.769531 C 14.324219 7.484375 14.546875 7.253906 14.820312 7.253906 L 19.90625 7.253906 C 20.03125 9.460938 19.972656 11.707031 19.714844 13.898438 L 14.820312 13.898438 C 14.546875 13.898438 14.324219 13.667969 14.324219 13.382812 Z M 14.324219 7.769531 " fill-opacity="1" fill-rule="nonzero"/></g></svg>