<svg xmlns="http://www.w3.org/2000/svg" xmlns:xlink="http://www.w3.org/1999/xlink" width="100" zoomAndPan="magnify" viewBox="0 0 75 74.999997" height="100" preserveAspectRatio="xMidYMid meet" version="1.0"><defs><clipPath id="8ada2b2e13"><path d="M 2.515625 22.613281 L 72.265625 22.613281 L 72.265625 52.613281 L 2.515625 52.613281 Z M 2.515625 22.613281 " clip-rule="nonzero"/></clipPath></defs><g clip-path="url(#8ada2b2e13)"><path fill="#000000" d="M 27.367188 23.53125 L 26.574219 23.53125 C 24.328125 22.613281 21.761719 22.613281 19.511719 23.53125 L 18.722656 23.53125 C 10.355469 23.851562 3.449219 30.472656 2.660156 38.929688 C 2.582031 39.96875 3.054688 40.964844 3.847656 41.605469 C 4.476562 42.121094 5.070312 42.679688 5.582031 43.28125 C 6.609375 44.4375 7.476562 45.714844 8.109375 47.109375 C 8.816406 48.664062 10.632812 49.382812 12.171875 48.664062 C 12.25 48.625 12.332031 48.585938 12.410156 48.546875 C 13.121094 48.148438 13.910156 47.46875 14.304688 46.273438 C 15.683594 48.507812 17.617188 50.382812 19.828125 51.738281 C 20.816406 52.335938 21.917969 52.613281 23.023438 52.613281 C 24.128906 52.613281 25.234375 52.335938 26.222656 51.738281 C 28.46875 50.382812 30.363281 48.507812 31.746094 46.273438 C 32.179688 47.46875 32.96875 48.148438 33.640625 48.546875 C 34.351562 48.945312 35.179688 49.023438 35.96875 48.824219 C 36.757812 48.585938 37.429688 48.066406 37.824219 47.347656 C 37.863281 47.269531 37.902344 47.191406 37.941406 47.148438 C 38.574219 45.753906 39.441406 44.4375 40.46875 43.320312 C 41.019531 42.722656 41.570312 42.164062 42.203125 41.683594 C 43.03125 41.046875 43.464844 40.046875 43.386719 38.972656 C 42.675781 30.472656 35.769531 23.851562 27.367188 23.53125 Z M 41.257812 40.367188 C 40.585938 40.925781 39.914062 41.523438 39.324219 42.203125 C 38.179688 43.480469 37.230469 44.914062 36.519531 46.472656 C 36.519531 46.511719 36.480469 46.550781 36.480469 46.589844 C 36.285156 46.949219 35.96875 47.191406 35.574219 47.308594 C 35.179688 47.429688 34.785156 47.390625 34.429688 47.191406 C 33.480469 46.671875 33.046875 45.753906 33.046875 44.476562 C 33.046875 44.117188 33.128906 43.796875 33.207031 43.480469 C 33.324219 43.082031 33.085938 42.640625 32.691406 42.523438 C 32.296875 42.402344 31.863281 42.601562 31.707031 42.960938 C 30.484375 46.03125 28.234375 48.707031 25.390625 50.421875 C 23.933594 51.296875 22.078125 51.296875 20.617188 50.421875 C 17.816406 48.707031 15.566406 46.074219 14.34375 42.960938 C 14.183594 42.5625 13.75 42.363281 13.355469 42.523438 C 12.960938 42.640625 12.726562 43.082031 12.84375 43.480469 C 12.921875 43.796875 13 44.15625 13 44.476562 C 13 45.792969 12.527344 46.710938 11.621094 47.230469 C 11.582031 47.230469 11.539062 47.269531 11.5 47.269531 C 10.75 47.628906 9.84375 47.269531 9.527344 46.511719 C 8.816406 44.957031 7.871094 43.519531 6.726562 42.28125 C 6.132812 41.644531 5.503906 41.007812 4.792969 40.449219 C 4.398438 40.128906 4.160156 39.648438 4.199219 39.171875 C 4.910156 31.511719 11.144531 25.527344 18.722656 25.207031 L 19.671875 25.207031 C 19.789062 25.207031 19.867188 25.167969 19.984375 25.128906 C 21.917969 24.289062 24.167969 24.289062 26.101562 25.128906 C 26.179688 25.167969 26.339844 25.207031 26.457031 25.207031 L 27.324219 25.207031 C 34.902344 25.527344 41.175781 31.511719 41.886719 39.132812 C 41.886719 39.570312 41.691406 40.046875 41.257812 40.367188 Z M 28.351562 44.957031 C 28.035156 45.355469 27.679688 45.714844 27.285156 46.03125 C 26.023438 47.03125 24.5625 47.507812 23.0625 47.507812 C 21.089844 47.507812 19.117188 46.632812 17.777344 44.957031 C 17.5 44.597656 17.578125 44.117188 17.894531 43.839844 C 18.25 43.558594 18.722656 43.640625 19 43.957031 C 20.773438 46.230469 24.050781 46.589844 26.300781 44.796875 C 26.617188 44.554688 26.890625 44.277344 27.128906 43.957031 C 27.40625 43.597656 27.878906 43.558594 28.234375 43.839844 C 28.550781 44.117188 28.628906 44.636719 28.351562 44.957031 Z M 32.0625 27.441406 C 32.179688 27.601562 34.980469 31.871094 33.835938 39.890625 C 33.796875 40.289062 33.441406 40.566406 33.046875 40.566406 C 33.007812 40.566406 32.96875 40.566406 32.929688 40.566406 C 32.496094 40.488281 32.179688 40.089844 32.257812 39.648438 C 33.324219 32.230469 30.757812 28.359375 30.757812 28.320312 C 30.523438 27.960938 30.601562 27.441406 30.957031 27.203125 C 31.3125 27.003906 31.824219 27.082031 32.0625 27.441406 Z M 14.460938 28.28125 C 14.421875 28.320312 12.09375 32.628906 13.710938 39.890625 C 13.789062 40.328125 13.554688 40.726562 13.121094 40.847656 C 13.039062 40.847656 13 40.886719 12.960938 40.886719 C 12.605469 40.886719 12.289062 40.648438 12.210938 40.246094 C 10.4375 32.347656 13 27.679688 13.121094 27.480469 C 13.355469 27.082031 13.828125 26.964844 14.183594 27.203125 C 14.578125 27.402344 14.699219 27.882812 14.460938 28.28125 Z M 21.722656 43.121094 C 22.117188 43.320312 22.511719 43.441406 22.945312 43.441406 C 23.5 43.441406 24.011719 43.238281 24.523438 42.921875 C 24.761719 42.761719 24.996094 42.5625 25.195312 42.363281 C 26.179688 41.363281 27.167969 39.691406 26.617188 38.09375 C 26.101562 36.777344 24.722656 36.097656 22.707031 36.21875 L 22.394531 36.21875 C 22.355469 36.21875 22.355469 36.21875 22.3125 36.21875 C 20.539062 36.378906 19.394531 37.496094 19.394531 38.972656 C 19.394531 40.367188 20.261719 42.363281 21.722656 43.121094 Z M 22.433594 37.773438 L 22.707031 37.773438 C 23.300781 37.734375 24.761719 37.773438 25.078125 38.613281 C 25.351562 39.410156 24.722656 40.488281 24.050781 41.164062 C 23.894531 41.324219 23.734375 41.445312 23.578125 41.566406 C 23.183594 41.84375 22.789062 41.882812 22.433594 41.683594 C 21.605469 41.246094 20.972656 39.847656 20.972656 38.929688 C 20.972656 38.054688 21.878906 37.855469 22.433594 37.773438 Z M 62.054688 44.15625 C 62.328125 43.917969 62.605469 43.679688 62.804688 43.398438 C 63.078125 43.039062 63.59375 43 63.90625 43.28125 C 64.261719 43.558594 64.300781 44.078125 64.027344 44.398438 C 63.710938 44.757812 63.394531 45.113281 63 45.433594 C 61.777344 46.429688 60.316406 46.910156 58.855469 46.910156 C 56.921875 46.910156 54.988281 46.074219 53.6875 44.4375 C 53.410156 44.078125 53.449219 43.597656 53.804688 43.320312 C 54.160156 43.039062 54.632812 43.082031 54.910156 43.441406 C 56.726562 45.59375 59.882812 45.914062 62.054688 44.15625 Z M 72.035156 26.207031 C 71.996094 25.886719 71.839844 25.605469 71.601562 25.488281 C 71.246094 25.246094 70.894531 25.367188 70.773438 25.40625 C 68.605469 26.046875 66.589844 27.121094 64.855469 28.597656 C 64.539062 28.878906 64.183594 29.117188 63.789062 29.355469 C 63.59375 29.476562 63.355469 29.476562 63.117188 29.4375 C 60.632812 28.71875 57.988281 28.597656 55.421875 29.15625 C 55.226562 29.199219 55.027344 29.238281 54.792969 29.277344 C 54.4375 29.355469 54.082031 29.277344 53.765625 29.078125 C 51.792969 27.722656 49.621094 26.683594 47.292969 26.007812 C 47.253906 26.007812 47.214844 25.964844 47.214844 25.964844 C 46.976562 25.886719 46.464844 25.648438 46.03125 26.007812 C 45.558594 26.363281 45.675781 26.964844 45.714844 27.164062 C 45.714844 27.203125 45.714844 27.242188 45.714844 27.242188 C 45.714844 27.242188 45.714844 27.28125 45.714844 27.28125 C 45.832031 29.476562 46.308594 31.589844 47.136719 33.625 C 47.332031 34.144531 47.570312 34.621094 47.886719 35.0625 C 47.175781 37.214844 47.058594 39.371094 47.453125 41.324219 C 47.253906 41.523438 47.097656 41.722656 46.9375 41.921875 C 46.664062 42.28125 46.703125 42.761719 47.058594 43.039062 C 47.214844 43.160156 47.371094 43.199219 47.570312 43.199219 C 47.726562 43.199219 47.886719 43.160156 48.003906 43.082031 C 48.042969 43.160156 48.082031 43.28125 48.121094 43.359375 C 47.726562 43.679688 47.332031 44.078125 46.976562 44.554688 C 46.703125 44.914062 46.742188 45.394531 47.097656 45.671875 C 47.253906 45.792969 47.414062 45.832031 47.609375 45.832031 C 47.847656 45.832031 48.082031 45.714844 48.242188 45.554688 C 48.476562 45.273438 48.675781 45.035156 48.910156 44.835938 C 49.503906 45.753906 50.214844 46.589844 51.121094 47.347656 C 53.332031 49.144531 56.09375 50.101562 58.894531 50.101562 C 62.171875 50.101562 65.25 48.90625 67.300781 46.832031 C 67.933594 46.191406 68.484375 45.515625 68.917969 44.757812 C 69.195312 44.996094 69.433594 45.273438 69.667969 45.554688 C 69.828125 45.753906 70.0625 45.832031 70.300781 45.832031 C 70.457031 45.832031 70.65625 45.792969 70.8125 45.671875 C 71.167969 45.394531 71.207031 44.875 70.933594 44.554688 C 70.539062 44.078125 70.101562 43.640625 69.667969 43.28125 C 69.707031 43.199219 69.75 43.121094 69.789062 43 C 69.945312 43.160156 70.144531 43.238281 70.339844 43.238281 C 70.496094 43.238281 70.695312 43.199219 70.851562 43.082031 C 71.207031 42.800781 71.246094 42.28125 70.972656 41.964844 C 70.734375 41.683594 70.5 41.445312 70.261719 41.207031 C 70.539062 39.410156 70.339844 37.496094 69.628906 35.738281 C 70.894531 34.066406 71.722656 32.070312 72.078125 29.996094 C 72.15625 28.679688 72.195312 27.441406 72.035156 26.207031 Z M 70.417969 29.636719 C 70.101562 31.550781 69.3125 33.347656 68.128906 34.863281 C 68.089844 34.902344 68.089844 34.941406 68.050781 34.980469 C 67.816406 35.339844 67.816406 35.78125 68.011719 36.140625 C 68.5625 37.375 68.761719 38.691406 68.722656 40.007812 C 65.882812 38.292969 62.804688 38.730469 62.644531 38.773438 C 62.210938 38.851562 61.933594 39.25 61.972656 39.691406 C 62.054688 40.128906 62.449219 40.449219 62.882812 40.367188 C 62.921875 40.367188 66 39.929688 68.484375 41.804688 C 68.445312 42.003906 68.367188 42.203125 68.289062 42.402344 C 65.605469 41.007812 62.804688 41.363281 62.644531 41.40625 C 62.210938 41.484375 61.933594 41.882812 61.972656 42.324219 C 62.054688 42.761719 62.449219 43.082031 62.882812 43 C 62.921875 43 65.328125 42.679688 67.617188 43.878906 C 67.222656 44.554688 66.75 45.15625 66.195312 45.714844 C 64.421875 47.507812 61.738281 48.507812 58.894531 48.507812 C 56.449219 48.507812 54.003906 47.628906 52.109375 46.113281 C 51.320312 45.472656 50.6875 44.714844 50.214844 43.917969 C 52.503906 42.640625 54.988281 43 55.027344 43 C 55.460938 43.082031 55.855469 42.761719 55.9375 42.324219 C 56.015625 41.882812 55.699219 41.484375 55.265625 41.40625 C 55.109375 41.363281 52.226562 40.964844 49.503906 42.480469 C 49.425781 42.28125 49.347656 42.082031 49.304688 41.921875 C 51.792969 39.96875 54.949219 40.40625 55.027344 40.40625 C 55.460938 40.488281 55.859375 40.167969 55.9375 39.730469 C 56.015625 39.289062 55.699219 38.890625 55.265625 38.8125 C 55.109375 38.773438 51.832031 38.332031 48.953125 40.207031 C 48.792969 38.730469 48.953125 37.136719 49.503906 35.539062 C 49.660156 35.140625 49.582031 34.703125 49.347656 34.34375 C 49.070312 33.945312 48.871094 33.546875 48.675781 33.105469 C 48.003906 31.390625 47.570312 29.597656 47.414062 27.722656 C 49.386719 28.359375 51.242188 29.277344 52.9375 30.433594 C 53.609375 30.914062 54.4375 31.074219 55.1875 30.914062 C 55.421875 30.871094 55.621094 30.832031 55.859375 30.792969 C 58.144531 30.316406 60.515625 30.394531 62.761719 31.03125 C 63.394531 31.230469 64.066406 31.152344 64.617188 30.832031 C 65.089844 30.554688 65.527344 30.273438 65.921875 29.914062 C 67.300781 28.757812 68.878906 27.839844 70.617188 27.242188 C 70.578125 28 70.539062 28.839844 70.417969 29.636719 Z M 58.460938 43.71875 C 58.5 43.71875 58.5 43.71875 58.539062 43.71875 L 58.660156 43.71875 C 58.738281 43.71875 58.777344 43.71875 58.855469 43.71875 C 59.960938 43.71875 60.75 43.28125 61.027344 42.480469 C 61.304688 41.644531 61.027344 40.6875 60.238281 39.929688 C 60.121094 39.808594 60 39.730469 59.84375 39.609375 C 59.289062 39.210938 58.621094 39.171875 58.027344 39.449219 C 57.160156 39.929688 56.648438 41.046875 56.648438 41.921875 C 56.648438 42.882812 57.355469 43.597656 58.460938 43.71875 Z M 58.777344 40.847656 C 58.816406 40.804688 58.855469 40.804688 58.976562 40.886719 C 59.054688 40.925781 59.09375 41.007812 59.171875 41.046875 C 59.449219 41.324219 59.644531 41.683594 59.566406 41.921875 C 59.527344 42.003906 59.289062 42.121094 58.738281 42.082031 L 58.621094 42.082031 C 58.5 42.082031 58.226562 42.003906 58.226562 41.882812 C 58.226562 41.523438 58.5 41.007812 58.777344 40.847656 Z M 58.777344 40.847656 " fill-opacity="1" fill-rule="nonzero"/></g></svg>