<svg xmlns="http://www.w3.org/2000/svg" xmlns:xlink="http://www.w3.org/1999/xlink" width="100" zoomAndPan="magnify" viewBox="0 0 75 74.999997" height="100" preserveAspectRatio="xMidYMid meet" version="1.0"><defs><clipPath id="948958f5cd"><path d="M 2.804688 27 L 31 27 L 31 61.832031 L 2.804688 61.832031 Z M 2.804688 27 " clip-rule="nonzero"/></clipPath><clipPath id="133d085f9d"><path d="M 26 13.082031 L 50 13.082031 L 50 43 L 26 43 Z M 26 13.082031 " clip-rule="nonzero"/></clipPath><clipPath id="f177e75b17"><path d="M 53 19 L 72.554688 19 L 72.554688 47 L 53 47 Z M 53 19 " clip-rule="nonzero"/></clipPath></defs><path fill="#1d1d1b" d="M 10.230469 36.96875 C 10.210938 36.949219 10.191406 36.933594 10.171875 36.917969 C 10.058594 36.511719 9.484375 36.683594 9.5 37.074219 C 9.417969 37.207031 9.398438 37.371094 9.496094 37.53125 C 9.523438 37.578125 9.554688 37.625 9.582031 37.671875 C 10 40.519531 10.320312 43.371094 10.378906 46.25 C 10.386719 46.546875 10.652344 46.730469 10.9375 46.671875 C 12.363281 46.375 13.714844 45.886719 15.007812 45.222656 C 15.222656 45.113281 15.273438 44.824219 15.164062 44.628906 C 13.738281 42.03125 12.269531 39.152344 10.230469 36.96875 Z M 11.242188 45.707031 C 11.179688 43.539062 11.003906 41.371094 10.640625 39.234375 C 11.121094 39.894531 11.613281 40.550781 12.066406 41.226562 C 12.8125 42.34375 13.519531 43.488281 14.179688 44.660156 C 13.234375 45.113281 12.257812 45.457031 11.242188 45.707031 Z M 11.242188 45.707031 " fill-opacity="1" fill-rule="nonzero"/><path fill="#1d1d1b" d="M 37.171875 20.761719 C 36.964844 19.777344 36.519531 18.914062 35.515625 18.550781 C 34.71875 18.265625 33.664062 18.335938 33.0625 18.984375 C 33.027344 19.023438 33.003906 19.066406 32.988281 19.109375 C 32.988281 19.113281 32.988281 19.121094 32.984375 19.125 C 32.980469 19.140625 32.980469 19.15625 32.976562 19.171875 C 32.976562 19.183594 32.972656 19.191406 32.972656 19.203125 C 33.027344 20.292969 33.410156 21.371094 33.601562 22.445312 C 33.816406 23.652344 33.957031 24.863281 34.035156 26.085938 C 34.023438 26.136719 34.019531 26.1875 34.035156 26.238281 C 34.042969 26.265625 34.050781 26.292969 34.058594 26.324219 C 34.070312 26.355469 34.082031 26.386719 34.101562 26.414062 C 33.957031 26.6875 34.277344 27.097656 34.632812 26.910156 C 36.878906 25.726562 37.671875 23.144531 37.171875 20.761719 Z M 33.609375 19.367188 C 34.28125 19.074219 34.96875 18.964844 35.632812 19.425781 C 36.402344 19.957031 36.542969 21.109375 36.574219 21.964844 C 36.632812 23.484375 36.070312 24.929688 34.898438 25.84375 C 34.808594 24.742188 34.671875 23.644531 34.464844 22.558594 C 34.265625 21.511719 34.085938 20.34375 33.609375 19.367188 Z M 33.609375 19.367188 " fill-opacity="1" fill-rule="nonzero"/><path fill="#1d1d1b" d="M 39.171875 34.992188 C 40.589844 34.660156 41.058594 33.238281 40.925781 31.921875 C 40.804688 30.730469 40.148438 29.535156 39.046875 28.980469 C 37.648438 28.28125 36.074219 28.804688 34.789062 29.496094 C 34.691406 29.546875 34.644531 29.625 34.632812 29.703125 C 34.558594 29.753906 34.507812 29.832031 34.519531 29.9375 C 34.601562 30.769531 34.6875 31.597656 34.792969 32.425781 C 34.863281 32.957031 34.863281 33.554688 35.0625 34.054688 C 35.058594 34.136719 35.082031 34.21875 35.140625 34.292969 C 35.921875 35.269531 38.0625 35.253906 39.171875 34.992188 Z M 35.75 33.839844 C 35.769531 33.339844 35.621094 32.820312 35.542969 32.328125 C 35.421875 31.558594 35.28125 30.796875 35.140625 30.03125 C 36.191406 29.519531 37.535156 29.070312 38.664062 29.632812 C 39.511719 30.054688 40.007812 30.945312 40.136719 31.851562 C 40.199219 32.292969 40.183594 32.746094 40.058594 33.175781 C 39.820312 34 39.183594 34.25 38.390625 34.296875 C 37.867188 34.332031 37.296875 34.308594 36.785156 34.203125 C 36.417969 34.128906 36.097656 33.960938 35.75 33.839844 Z M 35.75 33.839844 " fill-opacity="1" fill-rule="nonzero"/><g clip-path="url(#948958f5cd)"><path fill="#1d1d1b" d="M 20.925781 39.386719 C 19.351562 37.125 18.238281 34.542969 17.019531 32.085938 C 16.515625 31.078125 16.085938 29.890625 15.203125 29.140625 C 14.410156 28.464844 13.410156 27.972656 12.480469 27.464844 C 12.335938 27.273438 12.15625 27.117188 11.917969 27.042969 C 11.316406 26.855469 10.554688 27.320312 10.003906 27.515625 C 8.257812 28.136719 6.511719 28.761719 4.765625 29.394531 C 4.382812 29.53125 4.347656 29.96875 4.535156 30.210938 C 4.804688 39.617188 4.007812 48.953125 2.828125 58.277344 C 2.800781 58.496094 3.054688 58.75 3.273438 58.722656 C 3.359375 58.710938 3.445312 58.699219 3.53125 58.6875 C 4.136719 59.347656 5.074219 59.757812 5.734375 60.371094 C 6.1875 60.792969 6.613281 61.558594 7.277344 61.660156 C 8.140625 61.792969 9.273438 61.351562 10.09375 61.113281 C 11.046875 60.828125 11.980469 60.472656 12.882812 60.050781 C 13.445312 59.789062 14.34375 59.503906 14.589844 58.867188 C 14.894531 58.09375 14.40625 56.835938 14.277344 56.058594 C 14.074219 54.867188 13.394531 53.074219 14.433594 52.167969 C 15.199219 51.503906 16.3125 51.085938 17.269531 50.785156 C 17.890625 51.761719 18.488281 52.753906 19.058594 53.761719 C 19.1875 53.992188 19.460938 54.023438 19.683594 53.925781 C 19.695312 53.921875 19.707031 53.914062 19.71875 53.910156 C 20.054688 54.488281 21.140625 54.601562 21.726562 54.675781 C 22.550781 54.78125 23.292969 55.265625 24.089844 54.867188 C 25.195312 54.316406 26.199219 53.464844 27.203125 52.75 C 28.042969 52.152344 29.25 51.550781 29.839844 50.683594 C 30.117188 50.703125 30.421875 50.410156 30.246094 50.085938 C 27.929688 45.863281 23.644531 43.289062 20.925781 39.386719 Z M 14.828125 51.042969 C 14.25 51.34375 13.425781 51.738281 13.121094 52.355469 C 12.789062 53.027344 13.113281 53.957031 13.222656 54.644531 C 13.402344 55.757812 13.917969 57.265625 13.628906 58.347656 C 13.492188 58.851562 13.464844 58.820312 13.058594 59.023438 C 12.808594 59.148438 12.554688 59.269531 12.296875 59.386719 C 11.765625 59.625 11.21875 59.832031 10.667969 60.015625 C 9.789062 60.3125 8.613281 60.78125 7.675781 60.753906 C 7.1875 60.738281 7.050781 60.410156 6.714844 60.058594 C 6.390625 59.722656 6.039062 59.410156 5.671875 59.117188 C 5.410156 58.910156 5.128906 58.691406 4.832031 58.507812 C 6.761719 58.210938 8.671875 57.816406 10.558594 57.304688 C 11.203125 57.878906 11.929688 58.527344 12.816406 58.554688 C 12.945312 58.554688 13.027344 58.410156 12.964844 58.300781 C 12.535156 57.59375 11.746094 57.191406 11.097656 56.695312 C 10.816406 54.917969 10.757812 53.132812 10.90625 51.351562 C 11.257812 51.664062 11.675781 51.921875 12.105469 51.84375 C 12.179688 51.828125 12.222656 51.738281 12.203125 51.667969 C 12.128906 51.394531 11.855469 51.117188 11.644531 50.9375 C 11.566406 50.867188 11.488281 50.796875 11.410156 50.726562 C 12.957031 50.167969 14.460938 49.511719 15.917969 48.753906 C 16.257812 49.242188 16.585938 49.730469 16.90625 50.226562 C 16.191406 50.433594 15.492188 50.699219 14.828125 51.042969 Z M 19.640625 52.949219 C 18.652344 51.238281 17.589844 49.574219 16.453125 47.953125 C 16.308594 47.75 16.066406 47.671875 15.839844 47.792969 C 14.09375 48.714844 12.285156 49.496094 10.414062 50.132812 C 10.207031 50.203125 10.109375 50.355469 10.085938 50.5625 C 9.859375 52.550781 9.902344 54.527344 10.1875 56.5 C 8.082031 57.070312 5.953125 57.5 3.789062 57.769531 C 5.019531 48.660156 5.816406 39.457031 5.289062 30.265625 C 6.910156 29.75 8.53125 29.230469 10.148438 28.707031 C 10.328125 28.648438 11.378906 28.175781 11.515625 28.261719 C 11.75 28.417969 11.898438 29.128906 12.003906 29.390625 C 12.296875 30.113281 12.5625 30.851562 12.84375 31.578125 C 13.960938 34.480469 15.511719 37.148438 17.332031 39.671875 C 19.175781 42.234375 21.257812 44.609375 23.175781 47.117188 C 23.621094 47.699219 24.058594 48.289062 24.488281 48.886719 C 24.738281 49.238281 25.007812 49.457031 24.785156 49.824219 C 24.589844 50.148438 23.875 50.507812 23.550781 50.730469 C 22.3125 51.582031 21.003906 52.3125 19.640625 52.949219 Z M 27.152344 51.589844 C 26.328125 52.175781 25.488281 52.753906 24.683594 53.367188 C 24.273438 53.679688 23.820312 54.21875 23.308594 54.210938 C 22.910156 54.203125 22.511719 54.003906 22.105469 53.949219 C 21.636719 53.886719 21.183594 53.804688 20.738281 53.632812 C 20.652344 53.601562 20.582031 53.570312 20.519531 53.539062 C 21.585938 53.027344 22.617188 52.453125 23.609375 51.808594 C 24.167969 51.441406 25.359375 50.882812 25.789062 50.164062 C 26.652344 50.289062 27.5625 50.523438 28.449219 50.625 C 27.992188 50.925781 27.558594 51.300781 27.152344 51.589844 Z M 29.300781 50.1875 C 28.300781 49.722656 27.050781 49.640625 25.949219 49.558594 C 25.902344 49.078125 25.496094 48.632812 25.242188 48.269531 C 24.824219 47.667969 24.390625 47.074219 23.957031 46.484375 C 23.113281 45.34375 22.273438 44.207031 21.425781 43.074219 C 19.761719 40.851562 18.054688 38.671875 16.601562 36.308594 C 15.867188 35.117188 15.195312 33.882812 14.625 32.601562 C 14.035156 31.273438 13.597656 29.886719 13.019531 28.554688 C 13.691406 28.9375 14.355469 29.347656 14.851562 29.859375 C 15.753906 30.792969 16.230469 32.320312 16.796875 33.464844 C 17.949219 35.78125 19.003906 38.199219 20.5625 40.277344 C 23.21875 43.816406 27.089844 46.328125 29.359375 50.167969 C 29.339844 50.171875 29.320312 50.179688 29.300781 50.1875 Z M 29.300781 50.1875 " fill-opacity="1" fill-rule="nonzero"/></g><g clip-path="url(#133d085f9d)"><path fill="#1d1d1b" d="M 47.808594 27.746094 C 47.007812 26.566406 45.480469 26.203125 44.753906 25.011719 C 44.753906 25.007812 44.753906 25.007812 44.753906 25.007812 C 45.535156 22.644531 44.476562 20.148438 43.296875 18.085938 C 42.144531 16.074219 40.484375 14.320312 38.066406 14.027344 C 38.050781 14.023438 38.039062 14.023438 38.027344 14.023438 C 36.382812 13.226562 34.484375 13.113281 32.667969 13.316406 C 31.582031 13.441406 30.503906 13.648438 29.441406 13.898438 C 28.652344 14.085938 27.855469 14.285156 27.398438 14.976562 C 27.269531 14.941406 27.097656 15.035156 27.082031 15.195312 C 26.863281 17.089844 27.121094 19.167969 27.214844 21.074219 C 27.320312 23.09375 27.429688 25.117188 27.558594 27.136719 C 27.6875 29.09375 27.824219 31.050781 27.972656 33.007812 C 28.109375 34.847656 28.171875 36.726562 28.433594 38.554688 C 28.347656 38.847656 28.503906 39.246094 28.894531 39.316406 C 29.449219 39.960938 30.027344 40.582031 30.601562 41.207031 C 31.070312 41.71875 31.53125 42.265625 32.167969 42.578125 C 33.539062 43.25 35.453125 42.789062 36.890625 42.59375 C 38.644531 42.363281 40.386719 42.03125 42.101562 41.59375 C 43.605469 41.207031 45.1875 40.796875 46.457031 39.867188 C 48.882812 38.085938 49.605469 34.882812 49.238281 32.035156 C 49.050781 30.578125 48.648438 28.980469 47.808594 27.746094 Z M 28.761719 32.824219 C 28.609375 30.808594 28.46875 28.789062 28.339844 26.769531 C 28.210938 24.808594 28.085938 22.851562 27.976562 20.890625 C 27.878906 19.171875 27.90625 17.320312 27.625 15.609375 C 27.726562 15.609375 27.828125 15.5625 27.894531 15.445312 C 28.359375 14.65625 29.605469 14.613281 30.414062 14.445312 C 31.367188 14.25 32.328125 14.078125 33.300781 14.007812 C 35.136719 13.875 37.03125 14.121094 38.558594 15.214844 C 41.824219 17.542969 42.019531 21.945312 40.484375 25.332031 C 40.351562 25.625 40.5 26.074219 40.894531 26.042969 C 43.449219 25.839844 45.007812 28.746094 45.5625 30.832031 C 46.199219 33.222656 45.601562 35.640625 43.597656 37.183594 C 39.613281 40.257812 33.804688 38.722656 29.195312 38.269531 C 29.136719 36.457031 28.894531 34.632812 28.761719 32.824219 Z M 45.792969 39.328125 C 44.574219 40.117188 43.105469 40.480469 41.710938 40.835938 C 40.257812 41.207031 38.78125 41.503906 37.296875 41.71875 C 35.933594 41.910156 33.859375 42.4375 32.5625 41.824219 C 31.914062 41.515625 31.433594 40.882812 30.949219 40.367188 C 30.671875 40.070312 30.398438 39.773438 30.117188 39.480469 C 33.019531 39.871094 36.042969 40.304688 38.929688 40.011719 C 41.402344 39.757812 43.894531 38.816406 45.472656 36.828125 C 47.171875 34.679688 47.136719 31.839844 46.136719 29.398438 C 45.347656 27.476562 43.796875 25.304688 41.585938 25.097656 C 42.816406 21.671875 42.429688 17.589844 39.617188 15.097656 C 41.074219 15.828125 42.121094 17.242188 42.898438 18.679688 C 43.953125 20.625 44.875 22.910156 44.011719 25.089844 C 43.933594 25.289062 44.058594 25.433594 44.21875 25.476562 C 44.683594 26.335938 45.613281 26.667969 46.378906 27.222656 C 47.601562 28.117188 48.117188 29.707031 48.453125 31.113281 C 49.160156 34.09375 48.546875 37.550781 45.792969 39.328125 Z M 45.792969 39.328125 " fill-opacity="1" fill-rule="nonzero"/></g><g clip-path="url(#f177e75b17)"><path fill="#1d1d1b" d="M 72.402344 24.492188 C 71.789062 23.8125 71.242188 23.101562 70.589844 22.460938 C 70.605469 22.367188 70.585938 22.261719 70.503906 22.167969 C 68.617188 19.960938 65.9375 19.070312 63.058594 19.566406 C 60.179688 20.066406 57.742188 22.023438 56.167969 24.402344 C 54.273438 27.269531 53.617188 30.777344 53.5625 34.152344 C 53.519531 37.113281 53.957031 40.242188 56.125 42.402344 C 57.242188 44.292969 58.742188 45.910156 61.074219 46.285156 C 62.621094 46.535156 64.222656 46.277344 65.742188 45.964844 C 66.871094 45.734375 68.691406 45.324219 69.25 44.1875 C 69.359375 44.183594 69.46875 44.128906 69.496094 44.003906 C 69.660156 43.164062 68.960938 42.269531 68.632812 41.511719 C 68.160156 40.433594 67.738281 39.324219 67.339844 38.21875 C 67.34375 38.1875 67.339844 38.160156 67.324219 38.128906 C 67.316406 38.109375 67.300781 38.09375 67.289062 38.074219 C 67.25 37.976562 67.1875 37.914062 67.113281 37.882812 C 66.800781 37.648438 66.3125 37.582031 65.96875 37.449219 C 65.28125 37.179688 64.613281 36.832031 63.984375 36.453125 C 63.941406 36.425781 63.898438 36.414062 63.859375 36.40625 C 63.746094 35.886719 63.191406 35.4375 63.007812 34.910156 C 62.648438 33.863281 62.71875 32.707031 62.859375 31.625 C 62.984375 30.675781 63.203125 29.695312 63.820312 28.929688 C 64.488281 28.101562 65.511719 27.675781 66.523438 27.4375 C 66.558594 27.429688 66.589844 27.417969 66.613281 27.402344 C 66.816406 28.0625 67.25 28.679688 67.5625 29.277344 C 67.703125 29.539062 68.105469 29.527344 68.246094 29.277344 C 69.226562 27.550781 71.035156 26.441406 72.402344 25.042969 C 72.554688 24.886719 72.542969 24.652344 72.402344 24.492188 Z M 67.273438 44.765625 C 66.675781 45.011719 66.042969 45.164062 65.40625 45.289062 C 63.964844 45.566406 62.40625 45.828125 60.945312 45.546875 C 59.617188 45.289062 58.589844 44.574219 57.757812 43.644531 C 60.277344 45.089844 63.351562 44.988281 65.917969 43.476562 C 66.714844 43.816406 67.503906 44.1875 68.386719 44.109375 C 68.027344 44.335938 67.683594 44.59375 67.273438 44.765625 Z M 65.5625 38.042969 C 65.882812 38.175781 66.320312 38.402344 66.71875 38.445312 C 66.960938 39.566406 67.277344 40.640625 67.699219 41.714844 C 67.953125 42.371094 68.207031 43.367188 68.75 43.898438 C 68.660156 43.945312 68.574219 43.992188 68.488281 44.046875 C 68.511719 43.996094 68.503906 43.933594 68.445312 43.890625 C 67.8125 43.425781 67.066406 43.222656 66.351562 42.917969 C 66.667969 42.257812 65.90625 40.976562 65.679688 40.40625 C 65.253906 39.351562 64.75 38.347656 64.171875 37.371094 C 64.171875 37.347656 64.171875 37.328125 64.167969 37.304688 C 64.609375 37.59375 65.066406 37.839844 65.5625 38.042969 Z M 62.167969 30.613281 C 61.734375 32.621094 61.601562 35.234375 63.210938 36.785156 C 63.308594 36.875 63.441406 36.917969 63.574219 36.894531 C 63.570312 36.894531 63.566406 36.894531 63.5625 36.894531 C 62.894531 37.125 61.890625 37.660156 61.152344 37.5625 C 60.3125 37.449219 60.164062 35.941406 60.058594 35.300781 C 59.816406 33.800781 59.894531 32.230469 60.277344 30.757812 C 60.628906 29.421875 61.21875 27.976562 62.261719 27.019531 C 63.246094 26.121094 65.082031 25.710938 66.0625 26.800781 C 64.007812 27.179688 62.617188 28.542969 62.167969 30.613281 Z M 66.578125 26.46875 C 65.71875 25.1875 64.046875 24.84375 62.644531 25.503906 C 60.800781 26.367188 59.785156 28.464844 59.25 30.316406 C 58.640625 32.425781 58.636719 34.714844 59.261719 36.824219 C 59.5 37.640625 59.785156 38.484375 60.734375 38.632812 C 61.648438 38.777344 62.765625 38.410156 63.617188 37.96875 C 64.035156 38.792969 64.429688 39.628906 64.773438 40.484375 C 65.046875 41.160156 65.214844 41.925781 65.5 42.605469 C 63.0625 44.132812 59.835938 44.011719 57.542969 42.265625 C 55.136719 40.433594 54.59375 37.488281 54.585938 34.640625 C 54.578125 29.316406 56.414062 22.902344 62.050781 20.972656 C 64.632812 20.089844 68.039062 20.609375 69.96875 22.632812 C 69.265625 23.246094 68.644531 23.984375 68.027344 24.671875 C 67.570312 25.183594 66.871094 25.800781 66.578125 26.46875 Z M 67.949219 28.269531 C 67.722656 27.789062 67.480469 27.296875 67.136719 26.925781 C 67.777344 26.449219 68.273438 25.527344 68.742188 24.9375 C 69.261719 24.285156 69.835938 23.667969 70.339844 23 C 70.828125 23.503906 71.292969 24.050781 71.632812 24.664062 C 70.320312 25.695312 68.90625 26.878906 67.949219 28.269531 Z M 67.949219 28.269531 " fill-opacity="1" fill-rule="nonzero"/></g></svg>