<svg xmlns="http://www.w3.org/2000/svg" xmlns:xlink="http://www.w3.org/1999/xlink" width="100" zoomAndPan="magnify" viewBox="0 0 75 74.999997" height="100" preserveAspectRatio="xMidYMid meet" version="1.0"><defs><clipPath id="43b5e34d43"><path d="M 2.675781 11.816406 L 72 11.816406 L 72 62.816406 L 2.675781 62.816406 Z M 2.675781 11.816406 " clip-rule="nonzero"/></clipPath></defs><g clip-path="url(#43b5e34d43)"><path fill="#000000" d="M 62.640625 21.769531 C 59.472656 22.527344 56.179688 22.910156 52.96875 23.503906 C 49.746094 24.097656 46.546875 24.785156 43.351562 25.542969 C 42.964844 25.640625 42.796875 25.0625 43.183594 24.964844 C 46.421875 24.136719 49.660156 23.378906 52.941406 22.703125 C 56.082031 22.070312 59.332031 21.367188 62.542969 21.09375 C 62.933594 21.050781 63.015625 21.671875 62.640625 21.769531 Z M 24.980469 43.800781 C 20.726562 43.136719 16.476562 42.433594 12.195312 41.9375 C 11.972656 41.910156 11.917969 42.296875 12.140625 42.339844 C 16.390625 43.21875 20.699219 43.882812 24.992188 44.585938 C 29.289062 45.289062 33.582031 46.03125 37.890625 46.652344 C 38.375 46.71875 38.597656 45.988281 38.085938 45.894531 C 33.734375 45.121094 29.34375 44.472656 24.980469 43.800781 Z M 15.976562 55.429688 C 12.792969 54.449219 9.625 53.457031 6.457031 52.453125 C 6.039062 52.3125 5.871094 52.976562 6.289062 53.097656 C 9.414062 54.089844 12.542969 55.070312 15.667969 56.035156 C 17.167969 56.488281 18.671875 56.945312 20.183594 57.382812 C 22.019531 57.90625 23.894531 58.636719 25.773438 58.925781 C 25.996094 58.96875 26.175781 58.652344 25.925781 58.542969 C 24.269531 57.8125 22.410156 57.410156 20.671875 56.875 C 19.117188 56.390625 17.546875 55.910156 15.976562 55.429688 Z M 6.46875 49.75 C 6.09375 49.640625 5.941406 50.21875 6.316406 50.34375 C 12.679688 52.328125 19.058594 54.257812 25.4375 56.171875 C 25.730469 56.253906 25.839844 55.8125 25.5625 55.71875 C 19.199219 53.691406 12.847656 51.695312 6.46875 49.75 Z M 37.78125 42.863281 C 28.898438 41.359375 20.003906 39.941406 11.125 38.453125 C 10.792969 38.398438 10.804688 38.8125 11.136719 38.878906 C 11.136719 38.878906 28.773438 42.035156 37.613281 43.648438 C 38.308594 43.773438 38.472656 42.984375 37.78125 42.863281 Z M 62.613281 18.089844 C 55.902344 19.09375 49.230469 20.320312 42.574219 21.628906 C 42.296875 21.683594 42.421875 22.097656 42.699219 22.042969 C 49.382812 20.859375 56.082031 19.757812 62.792969 18.695312 C 63.199219 18.640625 63.015625 18.035156 62.613281 18.089844 Z M 70.675781 35.699219 C 70.632812 35.765625 70.578125 35.792969 70.507812 35.808594 C 70.4375 35.847656 70.367188 35.875 70.285156 35.875 C 69.535156 35.972656 68.785156 36.070312 68.046875 36.167969 C 69.214844 38.617188 69.617188 42.089844 67.824219 44.324219 C 67.796875 44.351562 67.769531 44.378906 67.742188 44.40625 C 67.6875 44.460938 67.601562 44.5 67.503906 44.515625 C 66.683594 44.695312 65.867188 44.875 65.058594 45.054688 C 66.449219 47.574219 66.351562 50.5625 65.03125 53.097656 C 64.988281 53.195312 64.90625 53.238281 64.835938 53.265625 C 64.78125 53.292969 64.726562 53.320312 64.65625 53.332031 C 51.96875 56.449219 39.335938 59.796875 26.59375 62.703125 C 26.453125 62.773438 26.285156 62.785156 26.105469 62.730469 C 18.449219 60.554688 10.929688 57.949219 3.328125 55.648438 C 2.855469 55.511719 2.910156 54.890625 3.257812 54.738281 C 5.121094 52.230469 5.039062 48.828125 2.96875 46.445312 C 2.675781 46.101562 2.855469 45.671875 3.148438 45.492188 C 3.1875 45.453125 3.246094 45.425781 3.300781 45.410156 C 5.175781 44.957031 7.011719 44.324219 8.886719 43.894531 C 9.472656 43.773438 9.722656 44.613281 9.136719 44.777344 C 7.679688 45.203125 6.191406 45.507812 4.703125 45.824219 C 8.191406 46.84375 11.679688 47.851562 15.15625 48.898438 C 17.085938 49.476562 19.003906 50.039062 20.9375 50.621094 C 21.882812 50.910156 22.839844 51.199219 23.785156 51.488281 C 24.453125 51.695312 25.160156 51.832031 25.800781 52.121094 C 29.164062 51.445312 32.527344 50.757812 35.902344 50.152344 C 32.46875 49.421875 29.023438 48.703125 25.589844 48 C 23.007812 47.464844 20.421875 46.914062 17.835938 46.320312 C 15.28125 45.726562 12.777344 44.914062 10.234375 44.363281 C 10.222656 44.363281 10.207031 44.351562 10.195312 44.351562 C 10.011719 44.324219 9.847656 44.183594 9.761719 43.949219 C 9.472656 43.027344 9.5 41.980469 9.429688 41.015625 L 9.191406 37.804688 C 9.152344 37.324219 9.984375 37.199219 10.054688 37.683594 C 10.222656 38.742188 10.386719 39.804688 10.554688 40.851562 C 10.707031 41.800781 10.984375 42.820312 10.917969 43.785156 C 10.917969 43.8125 10.902344 43.839844 10.902344 43.867188 C 13.363281 44.378906 15.90625 44.652344 18.378906 45.109375 C 20.90625 45.578125 23.453125 46.046875 25.980469 46.511719 C 31.164062 47.492188 36.363281 48.359375 41.558594 49.226562 C 41.601562 49.242188 41.65625 49.242188 41.699219 49.253906 C 42.824219 47.023438 42.753906 44.417969 41.601562 42.199219 C 41.519531 42.105469 41.433594 42.007812 41.351562 41.925781 C 41.335938 41.910156 41.335938 41.910156 41.324219 41.898438 C 40.183594 41.828125 39.015625 41.582031 37.890625 41.429688 C 37.085938 41.320312 36.265625 41.195312 35.457031 41.070312 C 35.445312 41.070312 35.429688 41.070312 35.402344 41.070312 C 25.050781 39.375 14.710938 37.613281 4.34375 35.945312 C 3.746094 35.847656 3.996094 34.980469 4.578125 35.0625 C 4.691406 35.078125 4.800781 35.089844 4.914062 35.105469 C 4.773438 32.761719 4.691406 30.433594 4.605469 28.09375 C 4.398438 28.066406 4.203125 28.023438 3.996094 27.996094 C 3.910156 27.980469 3.84375 27.953125 3.800781 27.898438 C 3.507812 27.734375 3.453125 27.195312 3.882812 27.074219 C 6.050781 26.4375 8.234375 25.777344 10.457031 25.378906 C 9.652344 24.289062 9.289062 22.761719 9.21875 21.507812 C 9.109375 19.8125 9.539062 18.160156 10.402344 16.710938 C 10.414062 16.585938 10.5 16.476562 10.664062 16.4375 C 14.347656 15.566406 18.058594 14.535156 21.796875 13.902344 C 24.089844 13.363281 26.84375 12.855469 28.34375 12.523438 C 29.925781 12.179688 31.332031 11.972656 32.957031 11.929688 C 36.460938 11.847656 40.015625 12.207031 43.503906 12.359375 C 50.941406 12.703125 57.859375 13.171875 65.835938 14.078125 C 66.15625 14.121094 66.253906 14.410156 66.199219 14.644531 C 66.226562 14.90625 66.074219 15.167969 65.753906 15.15625 C 65.558594 15.183594 65.367188 15.222656 65.171875 15.25 C 64.851562 16.753906 64.683594 18.269531 64.769531 19.796875 C 64.835938 21.160156 65.15625 22.457031 65.460938 23.78125 C 65.683594 23.753906 65.90625 23.710938 66.128906 23.667969 C 66.699219 23.585938 66.976562 24.441406 66.378906 24.550781 C 64.308594 24.921875 62.222656 25.308594 60.152344 25.707031 C 63.628906 25.886719 67.03125 26.257812 70.464844 26.949219 C 70.550781 26.960938 70.605469 26.988281 70.660156 27.03125 C 70.855469 27.101562 70.964844 27.292969 70.980469 27.484375 C 72.425781 30.078125 72.285156 33.191406 70.675781 35.699219 Z M 64.449219 15.375 C 56.359375 16.683594 48.273438 17.992188 40.199219 19.410156 C 40.199219 19.425781 40.183594 19.453125 40.183594 19.46875 C 39.476562 21.066406 39.238281 22.816406 39.476562 24.550781 C 39.585938 25.324219 39.792969 26.066406 40.058594 26.796875 C 40.265625 27.347656 40.574219 27.84375 40.824219 28.382812 C 48.8125 26.753906 56.777344 25.144531 64.835938 23.890625 C 63.792969 21.203125 63.878906 18.160156 64.449219 15.375 Z M 13.125 16.710938 C 21.867188 17.359375 30.609375 17.992188 39.351562 18.777344 C 39.378906 18.765625 39.40625 18.75 39.445312 18.75 C 46.9375 17.167969 54.511719 15.941406 62.085938 14.769531 C 62.28125 14.742188 62.460938 14.726562 62.65625 14.699219 C 56.484375 14.109375 50.316406 13.652344 44.117188 13.351562 C 40.558594 13.171875 37 12.921875 33.429688 12.757812 C 32.902344 12.730469 32.386719 12.730469 31.886719 12.757812 C 29.675781 13.210938 27.46875 13.679688 25.257812 14.121094 C 23.671875 14.519531 21.9375 14.949219 20.78125 15.183594 C 18.226562 15.746094 15.667969 16.203125 13.125 16.710938 Z M 39.320312 19.785156 C 35.695312 19.46875 32.066406 19.148438 28.441406 18.820312 C 27.914062 21.753906 28.066406 24.566406 29.148438 27.347656 C 32.527344 27.691406 35.902344 28.007812 39.292969 28.269531 C 38.683594 27.113281 38.460938 25.625 38.40625 24.453125 C 38.335938 22.84375 38.65625 21.246094 39.320312 19.785156 Z M 27.410156 18.738281 C 24.910156 18.515625 22.410156 18.28125 19.90625 18.046875 C 19.171875 20.859375 19.421875 23.808594 20.6875 26.4375 C 23.203125 26.726562 25.714844 27.015625 28.230469 27.28125 C 27.066406 24.621094 26.675781 21.546875 27.410156 18.738281 Z M 11.542969 25.324219 C 14.183594 25.652344 16.824219 25.96875 19.476562 26.289062 C 18.296875 23.628906 18.046875 20.777344 18.796875 17.9375 C 16.15625 17.691406 13.515625 17.429688 10.875 17.167969 C 10.820312 17.179688 10.75 17.179688 10.707031 17.167969 C 10.082031 18.476562 9.816406 19.878906 9.972656 21.328125 C 10.136719 22.882812 10.886719 24 11.542969 25.324219 Z M 35.640625 32.640625 C 25.550781 31.191406 15.433594 29.828125 5.371094 28.203125 C 5.46875 30.53125 5.578125 32.859375 5.621094 35.1875 C 15.558594 36.566406 25.464844 38 35.375 39.554688 C 35.390625 39.5 35.402344 39.460938 35.429688 39.402344 C 36.429688 37.269531 36.542969 34.84375 35.640625 32.640625 Z M 36.335938 31.414062 C 46.546875 29.746094 56.820312 28.519531 67.101562 27.375 C 64.003906 26.878906 60.890625 26.382812 57.75 26.191406 C 57.734375 26.191406 57.734375 26.191406 57.722656 26.191406 C 52.078125 27.292969 46.453125 28.449219 40.835938 29.609375 C 40.808594 29.609375 40.78125 29.609375 40.753906 29.621094 C 40.683594 29.648438 40.585938 29.664062 40.488281 29.648438 C 30.746094 28.851562 21.074219 27.527344 11.402344 26.148438 C 11.347656 26.164062 11.292969 26.148438 11.222656 26.136719 C 11.195312 26.148438 11.179688 26.148438 11.152344 26.164062 C 9.441406 26.605469 7.734375 27.003906 6.023438 27.429688 C 16.042969 28.644531 26.050781 29.898438 36.042969 31.300781 C 36.167969 31.316406 36.25 31.359375 36.335938 31.414062 Z M 58.902344 36.261719 C 60.320312 36.070312 61.722656 35.890625 63.140625 35.710938 C 63.726562 33.464844 63.613281 31.136719 62.585938 29.070312 C 61.167969 29.234375 59.75 29.402344 58.332031 29.566406 C 59.320312 31.621094 59.695312 34.097656 58.902344 36.261719 Z M 51.773438 37.253906 C 53.816406 36.964844 55.859375 36.675781 57.902344 36.398438 C 58.417969 34.128906 58.570312 31.949219 57.597656 29.746094 C 57.582031 29.71875 57.570312 29.675781 57.570312 29.648438 C 55.539062 29.882812 53.511719 30.132812 51.480469 30.378906 C 52.386719 32.527344 52.636719 35.0625 51.773438 37.253906 Z M 45.730469 38.164062 C 47.425781 37.902344 49.132812 37.640625 50.84375 37.390625 C 51.539062 35.023438 51.71875 32.777344 50.773438 30.460938 C 48.980469 30.667969 47.1875 30.890625 45.410156 31.097656 C 46.492188 33.3125 46.660156 35.875 45.730469 38.164062 Z M 44.910156 38.300781 C 45.492188 35.933594 45.660156 33.507812 44.617188 31.207031 C 44.617188 31.207031 44.617188 31.207031 44.617188 31.191406 C 41.933594 31.507812 39.238281 31.8125 36.542969 32.101562 C 37.640625 34.539062 37.695312 37.253906 36.597656 39.707031 C 39.363281 39.210938 42.128906 38.742188 44.910156 38.300781 Z M 50.578125 38.589844 C 46.757812 39.140625 42.933594 39.691406 39.097656 40.230469 C 39.917969 40.300781 40.753906 40.355469 41.53125 40.519531 C 44.546875 39.859375 47.5625 39.210938 50.578125 38.589844 Z M 25.589844 53.511719 C 25.535156 53.457031 25.496094 53.402344 25.464844 53.332031 C 24.773438 53.210938 24.117188 52.933594 23.453125 52.726562 C 22.507812 52.425781 21.546875 52.136719 20.601562 51.84375 C 18.683594 51.253906 16.765625 50.660156 14.835938 50.066406 C 11.429688 49.019531 8.039062 47.945312 4.664062 46.84375 C 6.121094 49.394531 5.953125 52.480469 4.121094 54.863281 C 11.542969 56.875 18.878906 59.132812 26.273438 61.242188 C 27.425781 58.691406 27.773438 55.648438 25.589844 53.511719 Z M 40.238281 54.78125 C 40.074219 53.347656 39.613281 52.023438 38.878906 50.8125 C 34.929688 51.761719 30.914062 52.425781 26.941406 53.195312 C 28.996094 55.511719 28.59375 58.84375 27.441406 61.558594 C 31.636719 60.441406 35.832031 59.339844 40.03125 58.253906 C 40.042969 57.824219 40.183594 57.398438 40.238281 56.945312 C 40.324219 56.226562 40.308594 55.496094 40.238281 54.78125 Z M 53.871094 47.78125 C 52.578125 48.125 51.289062 48.46875 49.996094 48.828125 C 48.703125 49.1875 47.410156 49.542969 46.117188 49.902344 C 44.851562 50.261719 43.574219 50.621094 42.308594 51.003906 C 41.878906 51.128906 41.351562 51.226562 40.921875 51.128906 C 40.574219 51.046875 40.335938 50.992188 39.890625 50.882812 C 40.542969 51.96875 41.058594 53.292969 41.253906 54.546875 C 41.394531 55.429688 41.53125 56.875 41.226562 57.949219 C 45.785156 56.765625 50.34375 55.59375 54.902344 54.4375 C 55.277344 52.121094 55.027344 49.863281 53.871094 47.78125 Z M 64.753906 48.910156 C 64.726562 47.792969 64.335938 46.195312 63.40625 45.4375 C 60.488281 46.113281 57.570312 46.816406 54.664062 47.574219 C 55.804688 49.570312 56.304688 51.941406 55.875 54.1875 C 58.609375 53.5 61.347656 52.808594 64.101562 52.136719 C 64.574219 51.101562 64.78125 50.027344 64.753906 48.910156 Z M 67.714844 40.285156 C 67.714844 38.976562 67.40625 37.695312 66.8125 36.523438 C 66.78125 36.484375 66.769531 36.429688 66.753906 36.386719 C 62.78125 37.253906 58.722656 37.859375 54.71875 38.660156 C 50.605469 39.488281 46.507812 40.355469 42.40625 41.25 C 42.40625 41.277344 42.40625 41.292969 42.40625 41.320312 C 43.628906 43.246094 43.964844 45.550781 43.433594 47.699219 C 43.339844 48.429688 43.144531 49.132812 42.878906 49.832031 C 50.914062 47.476562 59.015625 45.425781 67.15625 43.480469 C 67.40625 42.421875 67.714844 41.402344 67.714844 40.285156 Z M 69.992188 28.214844 C 67.8125 28.449219 65.617188 28.699219 63.433594 28.960938 C 64.488281 31.152344 64.585938 33.300781 64.03125 35.585938 C 66.101562 35.324219 68.1875 35.0625 70.257812 34.816406 C 70.257812 34.816406 70.269531 34.816406 70.269531 34.816406 C 71.132812 32.816406 71.257812 30.078125 69.992188 28.214844 Z M 69.992188 28.214844 " fill-opacity="1" fill-rule="nonzero"/></g></svg>