<svg xmlns="http://www.w3.org/2000/svg" xmlns:xlink="http://www.w3.org/1999/xlink" width="100" zoomAndPan="magnify" viewBox="0 0 75 74.999997" height="100" preserveAspectRatio="xMidYMid meet" version="1.0"><defs><clipPath id="ccf887f283"><path d="M 2.527344 2.5 L 72.246094 2.5 L 72.246094 72.242188 L 2.527344 72.242188 Z M 2.527344 2.5 " clip-rule="nonzero"/></clipPath></defs><path fill="#000000" d="M 51.777344 62.832031 C 51.777344 63.140625 51.53125 63.386719 51.226562 63.386719 L 23.546875 63.386719 C 23.242188 63.386719 22.992188 63.140625 22.992188 62.832031 L 22.992188 60.066406 C 22.992188 59.769531 23.09375 59.554688 23.296875 59.421875 C 26.792969 57.140625 28.699219 51.09375 29.074219 48.519531 C 29.121094 48.207031 29.40625 47.886719 29.636719 47.886719 L 45.136719 47.886719 C 45.367188 47.886719 45.652344 48.207031 45.695312 48.519531 C 46.074219 51.09375 47.980469 57.140625 51.476562 59.421875 C 51.675781 59.554688 51.777344 59.769531 51.777344 60.066406 Z M 52.082031 58.496094 C 48.933594 56.441406 47.128906 50.675781 46.789062 48.359375 C 46.679688 47.601562 46.015625 46.78125 45.136719 46.78125 L 29.636719 46.78125 C 28.757812 46.78125 28.09375 47.601562 27.980469 48.359375 C 27.640625 50.675781 25.839844 56.441406 22.691406 58.496094 C 22.171875 58.835938 21.886719 59.390625 21.886719 60.066406 L 21.886719 62.832031 C 21.886719 63.75 22.632812 64.496094 23.546875 64.496094 L 51.226562 64.496094 C 52.140625 64.496094 52.886719 63.75 52.886719 62.832031 L 52.886719 60.066406 C 52.886719 59.390625 52.601562 58.835938 52.082031 58.496094 " fill-opacity="1" fill-rule="nonzero"/><g clip-path="url(#ccf887f283)"><path fill="#000000" d="M 69.996094 70.960938 C 69.902344 71.070312 69.714844 71.136719 69.492188 71.136719 L 64.511719 71.136719 C 64.289062 71.136719 64.003906 70.804688 63.945312 70.476562 L 63.523438 68.367188 L 70.046875 68.367188 L 70.046875 70.582031 C 70.046875 70.617188 70.050781 70.644531 70.054688 70.679688 C 70.082031 70.835938 70.035156 70.914062 69.996094 70.960938 Z M 59.5 52.378906 C 59.355469 47.15625 58.929688 42.046875 58.410156 39.476562 C 56.699219 30.867188 56.980469 22 59.238281 13.105469 C 61.832031 16.546875 71.152344 31.382812 71.136719 66.683594 C 71.136719 67.003906 70.886719 67.261719 70.582031 67.261719 L 62.851562 67.261719 C 62.6875 67.261719 62.390625 66.945312 62.273438 66.550781 C 61.546875 64.136719 60.347656 57.335938 59.5 52.378906 Z M 57.875 65.503906 C 57.773438 66.085938 57.300781 66.707031 56.761719 66.707031 L 18.011719 66.707031 C 17.46875 66.707031 16.996094 66.085938 16.894531 65.507812 C 16.386719 62.570312 16.238281 57.578125 16.351562 52.640625 C 16.351562 52.636719 16.351562 52.636719 16.351562 52.632812 C 16.355469 52.621094 16.351562 52.609375 16.351562 52.597656 C 16.472656 47.410156 16.875 42.289062 17.445312 39.703125 C 19.3125 31.382812 18.976562 22.128906 16.449219 12.207031 L 19.921875 10.546875 C 20.265625 11.597656 20.976562 12.703125 22.132812 13.472656 C 24.121094 14.796875 27.257812 16.308594 31.8125 17.019531 C 31.738281 17.703125 31.554688 18.128906 31.34375 18.601562 C 31.0625 19.234375 30.742188 19.949219 30.742188 21.3125 C 30.742188 22.679688 31.0625 23.394531 31.34375 24.03125 C 31.617188 24.640625 31.851562 25.167969 31.851562 26.296875 C 31.851562 27.425781 31.617188 27.953125 31.34375 28.5625 C 31.0625 29.199219 30.742188 29.917969 30.742188 31.28125 C 30.742188 31.585938 30.992188 31.832031 31.296875 31.832031 C 31.601562 31.832031 31.851562 31.585938 31.851562 31.28125 C 31.851562 30.152344 32.082031 29.625 32.355469 29.015625 C 32.636719 28.378906 32.957031 27.660156 32.957031 26.296875 C 32.957031 24.933594 32.636719 24.214844 32.355469 23.582031 C 32.082031 22.96875 31.851562 22.441406 31.851562 21.3125 C 31.851562 20.1875 32.082031 19.660156 32.355469 19.050781 C 32.574219 18.5625 32.808594 18.015625 32.910156 17.171875 C 34.28125 17.339844 35.765625 17.441406 37.386719 17.441406 C 38.789062 17.441406 40.09375 17.367188 41.316406 17.238281 C 41.417969 18.046875 41.652344 18.574219 41.863281 19.050781 C 42.132812 19.660156 42.367188 20.1875 42.367188 21.3125 C 42.367188 22.441406 42.132812 22.96875 41.863281 23.582031 C 41.582031 24.214844 41.261719 24.933594 41.261719 26.296875 C 41.261719 27.660156 41.582031 28.378906 41.863281 29.015625 C 42.132812 29.625 42.367188 30.152344 42.367188 31.28125 C 42.367188 31.585938 42.617188 31.832031 42.921875 31.832031 C 43.226562 31.832031 43.476562 31.585938 43.476562 31.28125 C 43.476562 29.917969 43.15625 29.199219 42.875 28.5625 C 42.601562 27.953125 42.367188 27.425781 42.367188 26.296875 C 42.367188 25.167969 42.601562 24.640625 42.875 24.03125 C 43.15625 23.394531 43.476562 22.679688 43.476562 21.3125 C 43.476562 19.949219 43.15625 19.234375 42.875 18.601562 C 42.671875 18.144531 42.492188 17.742188 42.414062 17.101562 C 47.265625 16.429688 50.570312 14.851562 52.640625 13.472656 C 53.792969 12.703125 54.507812 11.597656 54.851562 10.546875 L 58.320312 12.207031 C 55.875 21.472656 55.539062 30.71875 57.324219 39.695312 C 58.308594 44.5625 58.960938 59.441406 57.875 65.503906 Z M 55.101562 71.136719 L 19.671875 71.136719 C 19.429688 71.136719 19.152344 70.828125 19.113281 70.492188 L 18.664062 67.816406 L 56.109375 67.816406 L 55.65625 70.515625 C 55.621094 70.828125 55.34375 71.136719 55.101562 71.136719 Z M 12.5 66.550781 C 12.378906 66.945312 12.085938 67.261719 11.921875 67.261719 L 4.191406 67.261719 C 3.882812 67.261719 3.636719 67.003906 3.636719 66.683594 C 3.621094 31.484375 12.921875 16.59375 15.527344 13.117188 C 17.867188 22.628906 18.152344 31.488281 16.363281 39.464844 C 15.789062 42.078125 15.378906 47.238281 15.253906 52.484375 C 14.414062 57.378906 13.222656 64.140625 12.5 66.550781 Z M 10.261719 71.136719 L 5.292969 71.136719 C 5.074219 71.136719 4.886719 71.070312 4.789062 70.960938 C 4.753906 70.914062 4.707031 70.835938 4.734375 70.679688 C 4.738281 70.644531 4.742188 70.613281 4.742188 70.582031 L 4.730469 68.367188 L 11.246094 68.367188 L 10.820312 70.492188 C 10.769531 70.804688 10.480469 71.136719 10.261719 71.136719 Z M 28.582031 4.28125 C 28.679688 5.835938 29.136719 7.332031 29.785156 8.71875 C 29.789062 8.722656 29.789062 8.726562 29.792969 8.730469 C 31.386719 12.132812 34.167969 14.886719 35.792969 16.300781 C 29.304688 16.03125 25.144531 14.148438 22.746094 12.550781 C 21.191406 11.511719 20.777344 9.867188 20.777344 9.136719 C 20.777344 6.878906 23.542969 5.164062 28.582031 4.28125 Z M 45.085938 4.105469 C 45.019531 5.414062 44.667969 6.679688 44.160156 7.855469 C 42.144531 7.625 39.878906 7.492188 37.382812 7.480469 C 34.894531 7.492188 32.625 7.625 30.609375 7.855469 C 30.09375 6.667969 29.75 5.40625 29.6875 4.105469 C 31.90625 3.789062 34.492188 3.621094 37.382812 3.605469 C 40.28125 3.621094 42.867188 3.789062 45.085938 4.105469 Z M 37.386719 16.1875 C 36.347656 15.359375 33.054688 12.554688 31.121094 8.917969 C 33 8.714844 35.097656 8.597656 37.382812 8.585938 C 39.675781 8.597656 41.769531 8.714844 43.652344 8.917969 C 42.910156 10.3125 41.988281 11.558594 41.144531 12.550781 C 39.597656 14.367188 38.046875 15.664062 37.386719 16.1875 Z M 53.992188 9.136719 C 53.992188 9.867188 53.582031 11.511719 52.023438 12.550781 C 49.628906 14.148438 45.472656 16.03125 38.984375 16.300781 C 41.277344 14.3125 45.863281 9.6875 46.1875 4.28125 C 51.230469 5.164062 53.992188 6.878906 53.992188 9.136719 Z M 72.242188 66.683594 C 72.261719 25.445312 59.902344 12.070312 59.375 11.523438 C 59.328125 11.472656 59.277344 11.4375 59.214844 11.40625 L 55.082031 9.429688 C 55.085938 9.332031 55.101562 9.230469 55.101562 9.136719 C 55.101562 5.144531 49.234375 3.628906 45.738281 3.082031 C 43.363281 2.710938 40.554688 2.511719 37.382812 2.5 C 34.21875 2.511719 31.410156 2.710938 29.03125 3.082031 C 25.539062 3.628906 19.671875 5.144531 19.671875 9.136719 C 19.671875 9.230469 19.683594 9.332031 19.691406 9.429688 L 15.558594 11.40625 C 15.496094 11.4375 15.445312 11.472656 15.398438 11.523438 C 14.871094 12.070312 2.511719 25.445312 2.527344 66.683594 C 2.527344 67.410156 2.988281 68.023438 3.621094 68.261719 L 3.632812 70.542969 C 3.574219 70.964844 3.683594 71.363281 3.945312 71.671875 C 4.25 72.035156 4.742188 72.242188 5.292969 72.242188 L 10.261719 72.242188 C 11.121094 72.242188 11.789062 71.429688 11.910156 70.695312 L 12.394531 68.273438 C 12.96875 68.042969 13.386719 67.441406 13.558594 66.867188 C 13.960938 65.535156 14.5 62.980469 15.257812 58.859375 C 15.328125 61.558594 15.503906 63.976562 15.804688 65.695312 C 15.957031 66.585938 16.621094 67.496094 17.53125 67.746094 L 18.015625 70.652344 C 18.109375 71.417969 18.773438 72.242188 19.671875 72.242188 L 55.101562 72.242188 C 56 72.242188 56.660156 71.417969 56.753906 70.675781 L 57.242188 67.75 C 58.167969 67.503906 58.808594 66.582031 58.964844 65.699219 C 59.277344 63.957031 59.453125 61.550781 59.519531 58.878906 C 60.273438 62.992188 60.8125 65.535156 61.214844 66.867188 C 61.382812 67.441406 61.804688 68.042969 62.375 68.273438 L 62.855469 70.675781 C 62.984375 71.429688 63.648438 72.242188 64.511719 72.242188 L 69.492188 72.242188 C 70.042969 72.242188 70.539062 72.035156 70.84375 71.671875 C 71.105469 71.363281 71.210938 70.964844 71.152344 70.539062 L 71.152344 68.261719 C 71.789062 68.023438 72.242188 67.410156 72.242188 66.683594 " fill-opacity="1" fill-rule="nonzero"/></g></svg>