<svg xmlns="http://www.w3.org/2000/svg" xmlns:xlink="http://www.w3.org/1999/xlink" width="100" zoomAndPan="magnify" viewBox="0 0 75 74.999997" height="100" preserveAspectRatio="xMidYMid meet" version="1.0"><defs><clipPath id="19a1e228fe"><path d="M 2.5625 4.3125 L 72.3125 4.3125 L 72.3125 71 L 2.5625 71 Z M 2.5625 4.3125 " clip-rule="nonzero"/></clipPath></defs><g clip-path="url(#19a1e228fe)"><path fill="#000000" d="M 15.519531 33.148438 C 15.71875 32.898438 15.90625 32.636719 16.085938 32.375 C 14.355469 31.179688 12.378906 30.453125 10.59375 29.347656 C 8.742188 28.207031 6.875 27.09375 4.957031 26.070312 C 4.769531 26.285156 4.585938 26.496094 4.394531 26.699219 C 7.921875 29.160156 11.746094 31.117188 15.519531 33.148438 Z M 16.8125 31.265625 C 16.886719 31.144531 16.960938 31.023438 17.039062 30.910156 C 13.597656 28.414062 9.964844 26.425781 6.4375 24.132812 C 6.226562 24.429688 6.015625 24.730469 5.796875 25.023438 C 7.863281 26.148438 9.820312 27.460938 11.882812 28.578125 C 13.535156 29.472656 15.269531 30.183594 16.8125 31.265625 Z M 17.746094 29.789062 C 17.835938 29.65625 17.925781 29.519531 18.015625 29.382812 C 14.539062 27.050781 11.167969 24.5625 7.757812 22.136719 C 7.566406 22.4375 7.371094 22.734375 7.175781 23.03125 C 10.699219 25.316406 14.320312 27.304688 17.746094 29.789062 Z M 19.460938 27.609375 C 19.46875 21.914062 18.75 16.070312 15.113281 11.90625 C 13.320312 14.78125 10.917969 17.171875 9.09375 20.023438 C 8.882812 20.355469 8.671875 20.6875 8.464844 21.019531 C 11.90625 23.464844 15.304688 25.980469 18.816406 28.328125 C 19.015625 28.078125 19.234375 27.835938 19.460938 27.609375 Z M 37.023438 17.402344 C 37.039062 16.945312 37.082031 16.492188 37.113281 16.035156 C 36.292969 15.496094 35.515625 14.632812 34.816406 14.015625 C 34.191406 13.472656 33.542969 12.957031 32.921875 12.414062 C 32.011719 11.636719 31.148438 10.804688 30.402344 9.863281 C 29.664062 8.933594 29.308594 7.894531 28.722656 6.890625 C 28.390625 6.90625 28.03125 7.121094 27.671875 7.191406 C 28.746094 9.738281 30.609375 12.40625 32.667969 14.203125 C 34.03125 15.394531 35.597656 16.296875 37.023438 17.402344 Z M 42.363281 9.019531 C 38.804688 8.757812 35.203125 9.628906 31.621094 9.253906 C 32.71875 10.5625 34.109375 11.648438 35.425781 12.796875 C 35.984375 13.28125 37 13.988281 37.613281 14.789062 C 38.613281 13.550781 39.710938 12.414062 40.742188 11.195312 C 41.332031 10.503906 41.863281 9.769531 42.363281 9.019531 Z M 43.167969 7.78125 C 43.476562 7.300781 43.78125 6.808594 44.085938 6.328125 C 43.484375 6.195312 42.882812 6.105469 42.277344 6.09375 C 40.703125 6.0625 39.160156 6.285156 37.601562 6.492188 C 36.113281 6.691406 34.453125 7.054688 32.941406 6.898438 C 32.074219 6.808594 31.289062 6.683594 30.492188 6.6875 C 30.355469 6.691406 30.222656 6.699219 30.09375 6.71875 C 30.238281 7.097656 30.414062 7.460938 30.609375 7.808594 C 30.675781 7.796875 30.746094 7.796875 30.828125 7.8125 C 34.898438 8.574219 39.015625 7.273438 43.074219 7.757812 C 43.109375 7.761719 43.136719 7.773438 43.167969 7.78125 Z M 46.199219 7.199219 C 46.246094 7.117188 46.304688 7.039062 46.371094 6.96875 C 46.28125 6.914062 45.488281 6.597656 45.4375 6.671875 C 44.375 8.324219 43.414062 10.089844 42.136719 11.59375 C 41.242188 12.648438 40.277344 13.652344 39.378906 14.707031 C 39.101562 15.027344 38.8125 15.699219 38.425781 16.078125 C 38.394531 16.589844 38.347656 17.097656 38.339844 17.609375 C 40.003906 15.945312 41.554688 14.179688 42.941406 12.269531 C 43.613281 11.351562 44.320312 10.460938 44.957031 9.511719 C 45.269531 9.058594 45.578125 8.582031 45.828125 8.085938 C 45.964844 7.808594 46.046875 7.472656 46.199219 7.199219 Z M 52.015625 68.902344 C 52.804688 68.675781 56.257812 67.785156 56.039062 66.464844 C 55.433594 62.722656 55.503906 58.914062 54.976562 55.152344 C 54.511719 51.824219 54.875 48.441406 54.867188 45.085938 C 54.839844 38.285156 53.914062 31.242188 54.511719 24.476562 C 54.917969 19.828125 55.875 14.808594 58.945312 11.15625 C 55.375 9.320312 51.527344 8.226562 47.664062 7.199219 C 46.777344 9.566406 45.140625 11.570312 43.625 13.558594 C 42.039062 15.640625 40.328125 17.589844 38.425781 19.390625 C 38.335938 19.476562 38.234375 19.527344 38.132812 19.554688 C 37.90625 19.675781 37.621094 19.683594 37.378906 19.445312 C 35.152344 17.25 32.359375 16.011719 30.324219 13.570312 C 28.757812 11.6875 27.328125 9.765625 26.378906 7.496094 C 22.890625 8.441406 19.4375 9.496094 16.207031 11.15625 C 19.257812 14.78125 20.300781 19.847656 20.644531 24.476562 C 21.144531 31.3125 20.28125 38.234375 20.28125 45.085938 C 20.28125 48.710938 20.628906 52.320312 20.054688 55.917969 C 19.488281 59.402344 19.832031 63.003906 19.113281 66.464844 C 18.84375 67.726562 22.382812 68.722656 23.125 68.894531 C 24.671875 69.265625 26.253906 69.453125 27.851562 69.480469 C 34.195312 69.605469 40.574219 69.652344 46.910156 69.492188 C 48.617188 69.445312 50.367188 69.367188 52.015625 68.902344 Z M 66.777344 21.574219 C 66.332031 20.867188 65.875 20.167969 65.375 19.492188 C 63.5625 17.003906 61.484375 14.730469 59.84375 12.128906 C 56.171875 16.511719 55.609375 22.664062 55.707031 28.539062 C 55.726562 28.582031 55.75 28.632812 55.765625 28.675781 C 57.6875 27.402344 59.769531 26.433594 61.730469 25.214844 C 63.492188 24.113281 65.078125 22.761719 66.777344 21.574219 Z M 68.035156 23.527344 C 67.847656 23.25 67.671875 22.964844 67.492188 22.6875 C 65.570312 24.023438 63.804688 25.585938 61.75 26.730469 C 59.945312 27.742188 58.113281 28.6875 56.398438 29.847656 C 56.449219 29.925781 56.503906 30.003906 56.5625 30.085938 C 57.550781 29.929688 59.351562 29 60.261719 28.574219 C 61.199219 28.136719 62.125 27.667969 62.988281 27.085938 C 64.695312 25.9375 66.34375 24.707031 68.035156 23.527344 Z M 68.902344 24.808594 C 68.859375 24.746094 68.820312 24.679688 68.777344 24.617188 C 66.652344 26.105469 64.621094 27.832031 62.320312 29.035156 C 60.835938 29.804688 59.144531 30.792969 57.460938 31.238281 C 57.550781 31.339844 57.640625 31.441406 57.726562 31.535156 C 57.730469 31.535156 57.734375 31.535156 57.742188 31.535156 C 61.765625 29.96875 65.679688 27.710938 68.902344 24.808594 Z M 70.433594 26.695312 C 70.179688 26.425781 69.9375 26.148438 69.703125 25.863281 C 66.484375 28.730469 62.667969 30.957031 58.683594 32.570312 C 58.882812 32.785156 59.078125 32.988281 59.257812 33.171875 C 63.046875 31.128906 66.886719 29.167969 70.433594 26.695312 Z M 71.910156 26.328125 C 72.242188 26.648438 72.113281 27.128906 71.777344 27.375 C 67.914062 30.175781 63.648438 32.304688 59.460938 34.570312 C 59.207031 34.710938 58.871094 34.691406 58.660156 34.46875 C 57.863281 33.59375 56.71875 32.445312 55.78125 31.203125 C 55.839844 32.734375 55.921875 34.21875 55.976562 35.628906 C 56.171875 41.078125 56.085938 46.492188 56.050781 51.9375 C 56.027344 54.257812 56.679688 56.484375 56.789062 58.789062 C 56.917969 61.519531 56.925781 64.242188 57.488281 66.929688 C 57.53125 67.152344 57.496094 67.417969 57.3125 67.578125 C 54.769531 69.804688 51.550781 70.621094 48.230469 70.769531 C 42.863281 71.015625 37.5 70.710938 32.136719 70.828125 C 27.210938 70.941406 21.78125 71.058594 17.839844 67.578125 C 17.652344 67.417969 17.617188 67.152344 17.660156 66.929688 C 18.285156 63.964844 18.058594 61 18.421875 58.019531 C 18.71875 55.691406 19.148438 53.441406 19.066406 51.082031 C 18.894531 45.929688 18.980469 40.777344 19.175781 35.628906 C 19.25 33.753906 19.367188 31.738281 19.429688 29.667969 C 18.257812 31.210938 17.421875 32.988281 16.160156 34.46875 C 15.960938 34.699219 15.613281 34.707031 15.359375 34.570312 C 11.171875 32.304688 6.90625 30.175781 3.046875 27.375 C 2.707031 27.128906 2.578125 26.648438 2.910156 26.328125 C 5.355469 23.980469 6.714844 20.894531 8.738281 18.230469 C 10.644531 15.71875 12.769531 13.371094 14.355469 10.621094 C 14.503906 10.359375 14.75 10.273438 14.980469 10.3125 C 14.996094 10.296875 15.011719 10.285156 15.03125 10.269531 C 17.320312 9.039062 19.753906 8.109375 22.222656 7.320312 C 23.449219 6.933594 24.683594 6.578125 25.925781 6.242188 C 27.875 5.710938 29.804688 4.867188 31.859375 5.378906 C 33.878906 5.886719 36.179688 5.359375 38.199219 5.082031 C 43.964844 4.296875 50.15625 6.210938 55.519531 8.210938 C 57.09375 8.800781 58.636719 9.472656 60.117188 10.269531 C 60.226562 10.328125 60.289062 10.394531 60.347656 10.46875 C 60.390625 10.515625 60.433594 10.5625 60.464844 10.621094 C 62.179688 13.597656 64.628906 15.976562 66.515625 18.820312 C 68.214844 21.390625 69.664062 24.167969 71.910156 26.328125 " fill-opacity="1" fill-rule="nonzero"/></g><path fill="#000000" d="M 52.3125 63.953125 C 52.3125 63.921875 52.402344 64.03125 52.398438 63.898438 L 52.3125 63.9375 Z M 53.300781 37.640625 C 53.402344 37.648438 53.421875 38.476562 53.363281 39.964844 C 53.3125 41.449219 53.164062 43.597656 53.019531 46.242188 C 52.976562 46.910156 52.9375 47.601562 52.890625 48.320312 C 52.839844 49.042969 52.792969 49.796875 52.773438 50.566406 C 52.710938 52.117188 52.648438 53.769531 52.574219 55.511719 C 52.585938 57.273438 52.59375 59.113281 52.601562 61.023438 C 52.601562 61.5 52.574219 62.066406 52.523438 62.53125 C 52.5 62.796875 52.5 62.960938 52.476562 63.179688 C 52.457031 63.375 52.398438 63.648438 52.402344 63.882812 L 52.449219 63.894531 L 52.484375 63.957031 C 52.5 63.996094 52.507812 64.035156 52.527344 64.078125 C 52.550781 64.15625 52.589844 64.238281 52.628906 64.316406 C 52.707031 64.484375 52.824219 64.652344 52.976562 64.902344 C 53.050781 65.039062 53.140625 65.179688 53.210938 65.398438 C 53.285156 65.597656 53.300781 65.871094 53.265625 66.109375 C 53.25 66.230469 53.214844 66.335938 53.179688 66.449219 C 53.140625 66.535156 53.097656 66.628906 53.050781 66.714844 C 52.953125 66.878906 52.828125 67.0625 52.761719 67.132812 L 52.699219 67.207031 L 52.679688 67.230469 C 52.679688 67.234375 52.605469 67.3125 52.609375 67.308594 L 52.601562 67.316406 L 52.566406 67.34375 C 52.492188 67.410156 52.410156 67.480469 52.328125 67.535156 L 52.089844 67.675781 C 52.015625 67.714844 51.933594 67.746094 51.855469 67.78125 C 51.550781 67.898438 51.257812 67.972656 50.980469 68.011719 C 50.421875 68.105469 49.902344 68.117188 49.398438 68.128906 C 49.160156 68.136719 48.914062 68.140625 48.675781 68.144531 C 48.445312 68.152344 48.269531 68.160156 48.015625 68.191406 C 47.535156 68.246094 47.054688 68.300781 46.585938 68.355469 C 45.636719 68.460938 44.703125 68.554688 43.78125 68.625 C 42.851562 68.679688 41.933594 68.761719 41.070312 68.753906 C 40.625 68.765625 40.191406 68.769531 39.765625 68.773438 C 39.339844 68.773438 38.929688 68.773438 38.515625 68.773438 C 37.691406 68.78125 36.886719 68.789062 36.113281 68.796875 C 34.554688 68.800781 33.101562 68.773438 31.765625 68.679688 C 30.433594 68.585938 29.230469 68.441406 28.175781 68.222656 C 27.136719 67.992188 26.242188 67.742188 25.546875 67.421875 C 24.128906 66.800781 23.574219 66.167969 23.613281 66.105469 C 23.671875 65.992188 24.386719 66.476562 25.746094 66.878906 C 26.429688 67.09375 27.304688 67.253906 28.316406 67.398438 C 29.335938 67.527344 30.511719 67.597656 31.8125 67.625 C 34.40625 67.679688 37.550781 67.464844 41.035156 67.378906 C 41.914062 67.363281 42.777344 67.273438 43.664062 67.203125 C 44.5625 67.117188 45.480469 67.011719 46.417969 66.898438 C 46.890625 66.84375 47.363281 66.785156 47.839844 66.726562 C 48.066406 66.695312 48.375 66.667969 48.625 66.664062 C 48.875 66.65625 49.121094 66.652344 49.367188 66.640625 C 49.84375 66.628906 50.316406 66.613281 50.738281 66.542969 C 51.167969 66.46875 51.523438 66.339844 51.617188 66.183594 C 51.71875 66.0625 51.722656 66.027344 51.765625 65.976562 C 51.769531 65.957031 51.78125 65.933594 51.796875 65.910156 C 51.792969 65.898438 51.800781 65.882812 51.800781 65.878906 C 51.796875 65.871094 51.8125 65.886719 51.796875 65.855469 C 51.792969 65.828125 51.753906 65.753906 51.707031 65.671875 C 51.597656 65.492188 51.433594 65.246094 51.300781 64.960938 C 51.234375 64.820312 51.171875 64.671875 51.125 64.511719 C 51.097656 64.433594 51.085938 64.355469 51.070312 64.273438 L 51.042969 64.152344 L 51.03125 64.125 L 51.023438 64.03125 L 51.023438 63.96875 C 51.019531 63.714844 50.988281 63.5 51.003906 63.210938 C 51.023438 62.941406 51.035156 62.617188 51.0625 62.402344 C 51.117188 61.898438 51.136719 61.496094 51.148438 61.019531 C 51.167969 59.109375 51.191406 57.269531 51.214844 55.507812 C 51.308594 53.746094 51.4375 52.0625 51.542969 50.492188 C 51.589844 49.710938 51.667969 48.957031 51.75 48.234375 C 51.828125 47.511719 51.902344 46.816406 51.972656 46.15625 C 52.253906 43.503906 52.558594 41.378906 52.789062 39.90625 C 53.023438 38.445312 53.199219 37.640625 53.300781 37.640625 " fill-opacity="1" fill-rule="nonzero"/><path fill="#000000" d="M 21.074219 12.386719 L 21.035156 12.304688 C 21.042969 12.335938 21.054688 12.367188 21.074219 12.386719 Z M 24.085938 32.347656 C 24.203125 34.453125 24.214844 36.355469 24.160156 37.953125 C 24.109375 38.75 24.0625 39.472656 24.015625 40.101562 C 23.949219 40.734375 23.847656 41.277344 23.78125 41.722656 C 23.625 42.601562 23.496094 43.074219 23.394531 43.066406 C 23.292969 43.058594 23.230469 42.558594 23.203125 41.675781 C 23.1875 41.230469 23.203125 40.695312 23.179688 40.070312 C 23.15625 39.445312 23.128906 38.738281 23.105469 37.953125 C 23.03125 36.386719 22.910156 34.519531 22.71875 32.453125 C 22.613281 31.417969 22.503906 30.328125 22.390625 29.203125 C 22.269531 28.074219 22.144531 26.90625 22.011719 25.703125 C 21.890625 24.546875 21.773438 23.417969 21.675781 22.324219 C 21.65625 22.050781 21.628906 21.777344 21.605469 21.511719 C 21.597656 21.363281 21.578125 21.265625 21.578125 21.089844 L 21.566406 20.671875 C 21.546875 20.101562 21.574219 19.585938 21.589844 19.074219 C 21.59375 18.574219 21.625 18.148438 21.601562 17.664062 C 21.589844 17.425781 21.578125 17.1875 21.558594 16.957031 L 21.535156 16.792969 L 21.535156 16.78125 L 21.53125 16.78125 L 21.523438 16.726562 C 21.5 16.644531 21.488281 16.558594 21.449219 16.46875 C 21.320312 16.117188 21.105469 15.746094 20.910156 15.351562 C 20.730469 15 20.550781 14.617188 20.46875 14.171875 C 20.445312 14.148438 20.417969 14.121094 20.390625 14.097656 C 20.292969 14.023438 20.152344 13.894531 20.046875 13.75 C 20.007812 13.703125 19.980469 13.648438 19.953125 13.59375 C 19.921875 13.542969 19.890625 13.472656 19.890625 13.460938 L 19.863281 13.375 L 19.851562 13.335938 L 19.832031 13.277344 L 19.828125 13.269531 L 19.828125 13.210938 L 19.820312 13.136719 C 19.8125 13.03125 19.832031 12.941406 19.871094 12.859375 C 19.90625 12.765625 19.945312 12.714844 19.984375 12.667969 C 20.027344 12.609375 20.070312 12.570312 20.101562 12.542969 C 20.136719 12.519531 20.179688 12.480469 20.207031 12.464844 C 20.472656 12.296875 20.679688 12.230469 20.855469 12.148438 C 20.894531 12.132812 20.929688 12.117188 20.960938 12.101562 C 20.867188 11.875 20.726562 11.734375 20.515625 11.648438 C 20.261719 11.542969 19.976562 11.515625 19.746094 11.503906 C 19.285156 11.472656 18.996094 11.472656 18.996094 11.386719 C 18.996094 11.316406 19.214844 11.183594 19.710938 11.070312 C 19.960938 11.015625 20.277344 10.960938 20.695312 11.042969 C 20.800781 11.074219 20.914062 11.089844 21.023438 11.148438 C 21.125 11.210938 21.246094 11.265625 21.34375 11.359375 C 21.429688 11.453125 21.535156 11.554688 21.605469 11.667969 C 21.667969 11.773438 21.726562 11.886719 21.78125 12.007812 C 21.8125 12.074219 21.839844 12.144531 21.847656 12.214844 C 21.851562 12.3125 21.808594 12.464844 21.773438 12.503906 C 21.691406 12.644531 21.625 12.691406 21.558594 12.75 C 21.445312 12.835938 21.34375 12.894531 21.246094 12.949219 C 21.113281 13.023438 20.988281 13.089844 20.886719 13.15625 C 20.914062 13.183594 20.957031 13.210938 21.027344 13.261719 C 21.066406 13.289062 21.132812 13.335938 21.199219 13.390625 C 21.238281 13.425781 21.277344 13.457031 21.316406 13.496094 C 21.371094 13.558594 21.414062 13.625 21.457031 13.691406 L 21.484375 13.734375 L 21.507812 13.871094 C 21.5625 14.121094 21.722656 14.4375 21.925781 14.78125 C 22.136719 15.125 22.394531 15.503906 22.605469 15.992188 C 22.660156 16.105469 22.703125 16.246094 22.746094 16.382812 L 22.78125 16.480469 L 22.792969 16.53125 L 22.804688 16.558594 L 22.820312 16.660156 L 22.835938 16.835938 C 22.863281 17.066406 22.890625 17.304688 22.917969 17.542969 C 22.960938 18.019531 22.953125 18.585938 22.964844 19.097656 C 22.964844 19.601562 22.957031 20.121094 22.988281 20.609375 L 23.007812 20.988281 C 23.003906 21.082031 23.027344 21.242188 23.039062 21.367188 C 23.066406 21.636719 23.097656 21.90625 23.128906 22.179688 C 23.242188 23.269531 23.367188 24.394531 23.488281 25.546875 C 23.609375 26.746094 23.726562 27.921875 23.839844 29.058594 C 23.933594 30.195312 24.019531 31.296875 24.085938 32.347656 " fill-opacity="1" fill-rule="nonzero"/><path fill="#000000" d="M 21.535156 16.792969 L 21.535156 16.824219 L 21.523438 16.835938 C 21.523438 16.824219 21.523438 16.800781 21.523438 16.769531 L 21.53125 16.78125 L 21.535156 16.792969 " fill-opacity="1" fill-rule="nonzero"/></svg>