<svg xmlns="http://www.w3.org/2000/svg" xmlns:xlink="http://www.w3.org/1999/xlink" width="100" zoomAndPan="magnify" viewBox="0 0 75 74.999997" height="100" preserveAspectRatio="xMidYMid meet" version="1.0"><defs><clipPath id="32ec9b2ced"><path d="M 3 3.046875 L 72 3.046875 L 72 72.046875 L 3 72.046875 Z M 3 3.046875 " clip-rule="nonzero"/></clipPath></defs><g clip-path="url(#32ec9b2ced)"><path fill="#000000" d="M 70.339844 20.621094 L 51.535156 13.738281 C 51.277344 13.644531 51.007812 13.601562 50.730469 13.613281 C 50.453125 13.628906 50.191406 13.691406 49.941406 13.808594 C 49.691406 13.925781 49.472656 14.089844 49.285156 14.292969 C 49.097656 14.5 48.957031 14.734375 48.859375 14.992188 L 47.675781 18.269531 C 45.785156 21.828125 44.113281 25.484375 42.652344 29.242188 L 41.007812 22.082031 L 41.4375 22.351562 C 41.679688 22.5 41.9375 22.601562 42.21875 22.648438 C 42.496094 22.695312 42.773438 22.6875 43.050781 22.621094 C 43.324219 22.558594 43.578125 22.441406 43.808594 22.277344 C 44.039062 22.113281 44.230469 21.910156 44.378906 21.667969 L 48.078125 15.710938 C 48.230469 15.46875 48.328125 15.210938 48.375 14.929688 C 48.421875 14.648438 48.414062 14.367188 48.347656 14.089844 C 48.285156 13.8125 48.171875 13.558594 48.007812 13.328125 C 47.839844 13.097656 47.640625 12.90625 47.398438 12.753906 L 37.035156 6.25 C 36.890625 6.160156 36.734375 6.105469 36.566406 6.085938 L 33.585938 5.75 C 33.535156 5.699219 33.476562 5.65625 33.414062 5.617188 L 29.597656 3.21875 C 29.335938 3.050781 29.050781 3.003906 28.75 3.078125 L 16.007812 6.035156 C 15.707031 6.105469 15.472656 6.269531 15.308594 6.535156 L 12.898438 10.375 C 12.859375 10.441406 12.824219 10.507812 12.796875 10.578125 L 10.339844 12.148438 C 10.160156 12.242188 10.015625 12.375 9.910156 12.546875 L 3.429688 22.964844 C 3.28125 23.207031 3.179688 23.46875 3.132812 23.746094 C 3.089844 24.027344 3.097656 24.308594 3.160156 24.585938 C 3.222656 24.863281 3.335938 25.117188 3.503906 25.347656 C 3.667969 25.578125 3.867188 25.769531 4.109375 25.921875 L 10.03125 29.644531 C 10.269531 29.792969 10.53125 29.894531 10.808594 29.941406 C 11.089844 29.988281 11.367188 29.980469 11.640625 29.914062 C 11.917969 29.851562 12.171875 29.738281 12.402344 29.570312 C 12.632812 29.40625 12.820312 29.203125 12.972656 28.960938 L 13.25 28.515625 L 16.824219 44.097656 C 16.878906 44.332031 16.96875 44.550781 17.09375 44.753906 C 17.222656 44.957031 17.378906 45.132812 17.5625 45.28125 C 17.75 45.433594 17.957031 45.546875 18.179688 45.628906 C 18.40625 45.707031 18.636719 45.75 18.875 45.75 L 18.933594 45.75 C 23.152344 45.585938 27.316406 45.015625 31.425781 44.039062 C 33.847656 43.472656 36.234375 42.78125 38.585938 41.960938 L 32.6875 63.335938 C 32.617188 63.59375 32.597656 63.855469 32.625 64.125 C 32.652344 64.390625 32.730469 64.640625 32.851562 64.878906 C 32.972656 65.117188 33.132812 65.324219 33.332031 65.5 C 33.53125 65.679688 33.753906 65.8125 34.003906 65.90625 L 38.621094 67.597656 C 38.871094 67.6875 39.128906 67.730469 39.394531 67.722656 C 39.660156 67.714844 39.914062 67.660156 40.160156 67.558594 C 40.402344 67.457031 40.621094 67.3125 40.8125 67.128906 C 41.003906 66.941406 41.15625 66.730469 41.269531 66.488281 L 49.667969 48.3125 L 44.496094 67.660156 C 44.425781 67.917969 44.402344 68.179688 44.429688 68.445312 C 44.457031 68.710938 44.535156 68.964844 44.65625 69.199219 C 44.777344 69.4375 44.9375 69.644531 45.136719 69.824219 C 45.335938 70 45.5625 70.136719 45.808594 70.226562 L 50.425781 71.917969 C 50.65625 72.003906 50.898438 72.046875 51.144531 72.046875 C 51.558594 72.046875 51.941406 71.933594 52.292969 71.707031 C 52.640625 71.484375 52.90625 71.179688 53.078125 70.800781 L 63.425781 47.953125 C 66.535156 41.089844 68.859375 33.964844 70.402344 26.585938 L 71.585938 23.3125 C 71.683594 23.050781 71.722656 22.78125 71.710938 22.503906 C 71.699219 22.226562 71.632812 21.960938 71.515625 21.707031 C 71.398438 21.457031 71.238281 21.234375 71.035156 21.046875 C 70.832031 20.859375 70.597656 20.71875 70.339844 20.621094 Z M 64.253906 20.800781 L 63.484375 22.925781 L 63.160156 22.808594 L 55.335938 19.945312 L 56.105469 17.816406 Z M 49.242188 20.121094 L 52.300781 21.238281 C 52.050781 21.59375 51.757812 21.90625 51.421875 22.171875 C 51.082031 22.441406 50.714844 22.652344 50.316406 22.8125 C 49.914062 22.96875 49.5 23.070312 49.070312 23.105469 C 48.644531 23.144531 48.21875 23.117188 47.796875 23.027344 C 48.265625 22.050781 48.746094 21.082031 49.242188 20.121094 Z M 64.980469 25.882812 L 68.015625 26.992188 C 67.785156 28.050781 67.53125 29.105469 67.265625 30.152344 C 66.890625 29.945312 66.550781 29.691406 66.25 29.386719 C 65.949219 29.078125 65.695312 28.738281 65.492188 28.359375 C 65.289062 27.980469 65.144531 27.578125 65.058594 27.15625 C 64.96875 26.734375 64.945312 26.3125 64.980469 25.882812 Z M 68.648438 24.816406 L 65.597656 23.699219 L 66.367188 21.574219 L 69.417969 22.691406 Z M 50.917969 15.921875 L 53.992188 17.042969 L 53.222656 19.171875 L 50.148438 18.046875 Z M 23.734375 10.519531 L 19.152344 7.625 L 26.609375 5.894531 Z M 16.613281 8.695312 L 22.542969 12.4375 L 21.347656 14.359375 L 15.402344 10.621094 Z M 29.359375 5.738281 L 31.265625 6.9375 L 27.546875 12.917969 L 25.640625 11.722656 Z M 30.917969 41.832031 C 26.996094 42.769531 23.019531 43.320312 18.992188 43.484375 L 14.828125 25.347656 C 14.777344 25.125 14.667969 24.933594 14.503906 24.777344 C 14.335938 24.621094 14.144531 24.523438 13.917969 24.484375 C 13.695312 24.445312 13.476562 24.476562 13.269531 24.570312 C 13.0625 24.664062 12.898438 24.808594 12.777344 25 L 11.125 27.664062 L 5.398438 24.066406 L 11.675781 13.972656 L 14.066406 12.449219 L 21.113281 16.878906 C 21.238281 16.957031 21.375 17.007812 21.523438 17.035156 C 21.667969 17.058594 21.816406 17.054688 21.960938 17.019531 C 22.105469 16.984375 22.238281 16.925781 22.359375 16.839844 C 22.480469 16.75 22.582031 16.644531 22.660156 16.515625 L 24.078125 14.234375 L 24.347656 15.390625 C 24.394531 15.609375 24.53125 15.71875 24.757812 15.71875 C 24.789062 15.71875 24.820312 15.714844 24.851562 15.710938 C 24.964844 15.683594 25.050781 15.621094 25.113281 15.519531 C 25.175781 15.421875 25.195312 15.316406 25.167969 15.199219 L 24.871094 13.902344 L 27.3125 15.4375 C 27.4375 15.515625 27.574219 15.570312 27.722656 15.59375 C 27.867188 15.621094 28.015625 15.613281 28.160156 15.582031 C 28.304688 15.546875 28.4375 15.488281 28.558594 15.398438 C 28.679688 15.3125 28.78125 15.207031 28.859375 15.078125 L 33.261719 7.992188 L 36.0625 8.304688 L 46.109375 14.613281 L 42.53125 20.371094 L 39.898438 18.714844 C 39.707031 18.59375 39.496094 18.539062 39.269531 18.542969 C 39.039062 18.550781 38.835938 18.621094 38.648438 18.753906 C 38.464844 18.886719 38.332031 19.0625 38.25 19.273438 C 38.167969 19.488281 38.15625 19.707031 38.207031 19.929688 L 42.367188 38.054688 C 38.671875 39.679688 34.855469 40.9375 30.917969 41.832031 Z M 61.378906 47.015625 L 51.082031 69.75 L 46.695312 68.144531 L 54.554688 38.746094 C 54.621094 38.496094 54.617188 38.246094 54.539062 37.996094 C 54.460938 37.746094 54.324219 37.535156 54.125 37.367188 L 54.746094 35.652344 C 54.785156 35.542969 54.78125 35.433594 54.730469 35.328125 C 54.683594 35.222656 54.601562 35.148438 54.492188 35.109375 C 54.382812 35.070312 54.277344 35.074219 54.171875 35.121094 C 54.066406 35.171875 53.992188 35.253906 53.953125 35.363281 L 53.335938 37.0625 C 53.0625 37.039062 52.804688 37.097656 52.566406 37.238281 C 52.328125 37.378906 52.148438 37.574219 52.03125 37.828125 L 39.277344 65.429688 L 34.890625 63.824219 L 41.1875 40.996094 C 41.945312 40.695312 42.695312 40.386719 43.402344 40.066406 C 43.625 39.964844 43.824219 39.828125 44 39.65625 C 44.171875 39.484375 44.3125 39.289062 44.421875 39.070312 C 44.527344 38.851562 44.597656 38.617188 44.625 38.375 C 44.652344 38.132812 44.636719 37.890625 44.582031 37.652344 L 43.570312 33.238281 C 44.535156 30.488281 45.636719 27.777344 46.839844 25.113281 C 47.441406 25.296875 48.054688 25.394531 48.683594 25.402344 C 49.269531 25.402344 49.847656 25.324219 50.414062 25.171875 C 50.980469 25.019531 51.519531 24.792969 52.027344 24.5 C 52.535156 24.203125 52.996094 23.847656 53.414062 23.429688 C 53.828125 23.011719 54.183594 22.546875 54.476562 22.035156 L 62.808594 25.085938 C 62.671875 25.828125 62.660156 26.566406 62.773438 27.3125 C 62.886719 28.054688 63.121094 28.757812 63.472656 29.421875 C 63.820312 30.085938 64.273438 30.671875 64.824219 31.179688 C 65.371094 31.691406 65.988281 32.09375 66.675781 32.390625 C 65.289062 37.40625 63.523438 42.28125 61.378906 47.015625 Z M 56.542969 30.683594 L 55.898438 32.464844 C 55.832031 32.648438 55.699219 32.742188 55.503906 32.742188 C 55.453125 32.742188 55.40625 32.734375 55.359375 32.71875 C 55.25 32.675781 55.167969 32.605469 55.121094 32.5 C 55.070312 32.390625 55.066406 32.285156 55.105469 32.171875 L 55.75 30.394531 C 55.789062 30.285156 55.863281 30.203125 55.96875 30.15625 C 56.074219 30.105469 56.183594 30.101562 56.289062 30.140625 C 56.398438 30.179688 56.480469 30.253906 56.527344 30.359375 C 56.578125 30.464844 56.582031 30.574219 56.542969 30.683594 Z M 26.375 20.464844 C 26.402344 20.578125 26.382812 20.683594 26.324219 20.785156 C 26.261719 20.882812 26.171875 20.945312 26.058594 20.972656 C 26.027344 20.980469 25.996094 20.984375 25.964844 20.984375 C 25.742188 20.984375 25.605469 20.875 25.554688 20.65625 L 25.105469 18.699219 C 25.078125 18.585938 25.097656 18.476562 25.160156 18.378906 C 25.21875 18.277344 25.308594 18.214844 25.421875 18.191406 C 25.535156 18.164062 25.640625 18.179688 25.738281 18.242188 C 25.839844 18.304688 25.902344 18.394531 25.925781 18.507812 Z M 26.375 20.464844 " fill-opacity="1" fill-rule="nonzero"/></g></svg>