<svg xmlns="http://www.w3.org/2000/svg" xmlns:xlink="http://www.w3.org/1999/xlink" width="100" zoomAndPan="magnify" viewBox="0 0 75 74.999997" height="100" preserveAspectRatio="xMidYMid meet" version="1.0"><defs><clipPath id="6e92175d81"><path d="M 2.652344 5 L 36.109375 5 L 36.109375 70.382812 L 2.652344 70.382812 Z M 2.652344 5 " clip-rule="nonzero"/></clipPath><clipPath id="89c96cf045"><path d="M 36.039062 36.355469 L 72 36.355469 L 72 69.808594 L 36.039062 69.808594 Z M 36.039062 36.355469 " clip-rule="nonzero"/></clipPath></defs><g clip-path="url(#6e92175d81)"><path fill="#000000" d="M 6.089844 21.152344 C 4.175781 21.152344 2.621094 22.710938 2.621094 24.625 L 2.621094 66.671875 C 2.621094 68.589844 4.175781 70.148438 6.089844 70.148438 L 27.34375 70.148438 C 29.253906 70.148438 30.808594 68.589844 30.808594 66.671875 L 30.808594 30.035156 C 33.75 29.671875 36.039062 27.15625 36.039062 24.105469 L 36.039062 17.976562 C 36.039062 10.910156 30.304688 5.160156 23.257812 5.160156 L 11.578125 5.160156 C 11.132812 5.160156 10.769531 5.523438 10.769531 5.972656 C 10.769531 6.421875 11.132812 6.785156 11.578125 6.785156 L 12.148438 6.785156 L 12.148438 9.492188 L 7.511719 9.492188 C 5.902344 9.492188 4.589844 10.808594 4.589844 12.421875 L 4.589844 14.820312 C 4.589844 16.414062 5.863281 17.707031 7.441406 17.746094 L 7.441406 21.152344 Z M 29.1875 66.671875 C 29.1875 67.691406 28.359375 68.523438 27.34375 68.523438 L 6.089844 68.523438 C 5.070312 68.523438 4.242188 67.691406 4.242188 66.671875 L 4.242188 24.625 C 4.242188 23.605469 5.070312 22.777344 6.089844 22.777344 L 27.34375 22.777344 C 28.359375 22.777344 29.1875 23.605469 29.1875 24.625 Z M 34.417969 17.976562 L 34.417969 24.105469 C 34.417969 26.257812 32.851562 28.035156 30.808594 28.386719 L 30.808594 24.625 C 30.808594 22.710938 29.253906 21.152344 27.34375 21.152344 L 25.988281 21.152344 L 25.988281 17.746094 C 27.566406 17.707031 28.839844 16.414062 28.839844 14.820312 L 28.839844 12.421875 C 28.839844 10.808594 27.53125 9.492188 25.917969 9.492188 L 21.28125 9.492188 L 21.28125 6.785156 L 23.257812 6.785156 C 29.410156 6.785156 34.417969 11.804688 34.417969 17.976562 Z M 13.769531 6.785156 L 19.660156 6.785156 L 19.660156 9.492188 L 13.769531 9.492188 Z M 6.210938 14.820312 L 6.210938 12.421875 C 6.210938 11.703125 6.792969 11.117188 7.511719 11.117188 L 25.917969 11.117188 C 26.636719 11.117188 27.21875 11.703125 27.21875 12.421875 L 27.21875 14.820312 C 27.21875 15.542969 26.636719 16.128906 25.917969 16.128906 L 7.511719 16.128906 C 6.792969 16.128906 6.210938 15.542969 6.210938 14.820312 Z M 9.0625 17.75 L 24.367188 17.75 L 24.367188 21.152344 L 9.0625 21.152344 Z M 9.0625 17.75 " fill-opacity="1" fill-rule="nonzero"/></g><path fill="#000000" d="M 24.542969 28.460938 C 24.097656 28.460938 23.734375 28.824219 23.734375 29.273438 L 23.734375 51.4375 C 23.734375 51.886719 24.097656 52.25 24.542969 52.25 C 24.992188 52.25 25.355469 51.886719 25.355469 51.4375 L 25.355469 29.273438 C 25.355469 28.824219 24.992188 28.460938 24.542969 28.460938 Z M 24.542969 28.460938 " fill-opacity="1" fill-rule="nonzero"/><path fill="#000000" d="M 24.542969 55.90625 C 24.097656 55.90625 23.734375 56.269531 23.734375 56.71875 L 23.734375 61 C 23.734375 61.449219 24.097656 61.8125 24.542969 61.8125 C 24.992188 61.8125 25.355469 61.449219 25.355469 61 L 25.355469 56.71875 C 25.355469 56.269531 24.992188 55.90625 24.542969 55.90625 Z M 24.542969 55.90625 " fill-opacity="1" fill-rule="nonzero"/><g clip-path="url(#89c96cf045)"><path fill="#050606" d="M 68.726562 43.109375 C 70.511719 44.886719 70.992188 47.769531 70.078125 51.21875 C 68.527344 57.097656 66.210938 60.011719 62.640625 60.53125 C 62.644531 60.503906 62.644531 60.472656 62.648438 60.445312 C 62.660156 60.308594 62.667969 60.175781 62.675781 60.042969 C 62.679688 59.984375 62.6875 59.921875 62.6875 59.863281 C 62.699219 59.671875 62.703125 59.480469 62.703125 59.292969 L 62.703125 57.910156 C 64.730469 57.265625 66.363281 55.105469 67.339844 51.746094 C 68.257812 48.59375 67.894531 46.027344 66.347656 44.695312 C 65.390625 43.875 64.097656 43.640625 62.703125 44.011719 L 62.703125 41.503906 C 65.03125 41.058594 67.253906 41.644531 68.726562 43.109375 Z M 62.703125 45.390625 C 63.8125 44.996094 64.789062 45.097656 65.476562 45.691406 C 66.601562 46.65625 66.820312 48.78125 66.066406 51.382812 C 65.300781 54.007812 64.101562 55.8125 62.703125 56.492188 Z M 61.375 40.976562 L 61.375 59.292969 C 61.375 59.898438 61.324219 60.527344 61.222656 61.160156 C 60.753906 64.039062 59.234375 66.632812 56.933594 68.492188 L 41.816406 68.492188 C 38.988281 66.210938 37.375 62.871094 37.375 59.292969 L 37.375 37.667969 L 61.375 37.667969 Z M 62.039062 36.355469 L 36.710938 36.355469 C 36.34375 36.355469 36.046875 36.648438 36.046875 37.011719 L 36.046875 59.292969 C 36.046875 63.351562 37.914062 67.132812 41.175781 69.667969 C 41.289062 69.757812 41.433594 69.808594 41.582031 69.808594 L 57.167969 69.808594 C 57.316406 69.808594 57.460938 69.757812 57.574219 69.667969 C 60.101562 67.703125 61.8125 64.953125 62.4375 61.882812 C 66.828125 61.449219 69.597656 58.238281 71.363281 51.550781 C 72.398438 47.632812 71.796875 44.304688 69.667969 42.183594 C 67.933594 40.457031 65.375 39.730469 62.703125 40.171875 L 62.703125 37.011719 C 62.703125 36.648438 62.40625 36.355469 62.039062 36.355469 " fill-opacity="1" fill-rule="nonzero"/></g></svg>