<svg xmlns="http://www.w3.org/2000/svg" xmlns:xlink="http://www.w3.org/1999/xlink" width="100" zoomAndPan="magnify" viewBox="0 0 75 74.999997" height="100" preserveAspectRatio="xMidYMid meet" version="1.0"><defs><clipPath id="05ed0674ca"><path d="M 2.457031 14 L 72 14 L 72 61 L 2.457031 61 Z M 2.457031 14 " clip-rule="nonzero"/></clipPath></defs><g clip-path="url(#05ed0674ca)"><path fill="#000000" d="M 10.386719 53.960938 C 11.875 53.40625 13.203125 52.707031 14.71875 52.585938 C 11.261719 51.160156 6.058594 49.554688 4.074219 53.699219 C 4.046875 53.757812 4.011719 53.804688 3.976562 53.84375 C 4.015625 54.019531 4.097656 54.195312 4.242188 54.382812 C 5.386719 55.886719 9.003906 54.476562 10.386719 53.960938 Z M 50.789062 54.53125 C 52.691406 53.164062 54.484375 51.597656 56.195312 49.945312 C 52.609375 48.980469 48.757812 48.722656 45.121094 48.101562 C 40.71875 47.347656 36.480469 45.90625 32.109375 45.019531 C 30.082031 44.609375 28 44.648438 25.984375 44.21875 C 24.953125 43.996094 23.851562 43.660156 22.789062 43.726562 C 21.890625 43.785156 21.066406 44.085938 20.203125 44.273438 C 20.171875 44.300781 20.140625 44.324219 20.097656 44.347656 C 19.28125 44.851562 18.457031 45.34375 17.628906 45.828125 C 18.621094 45.984375 19.5625 46.226562 20.445312 46.523438 C 21.617188 46.941406 22.710938 47.394531 23.714844 47.886719 C 25.742188 48.851562 27.511719 49.808594 29.167969 50.519531 C 30.8125 51.242188 32.34375 51.730469 33.734375 51.933594 C 34.078125 52.011719 34.421875 52.007812 34.746094 52.046875 C 34.910156 52.058594 35.070312 52.074219 35.230469 52.089844 C 35.386719 52.097656 35.546875 52.082031 35.703125 52.082031 C 36.003906 52.074219 36.300781 52.066406 36.585938 52.058594 C 36.867188 52.035156 37.136719 52 37.386719 51.941406 C 38.398438 51.691406 39.183594 51.226562 39.835938 50.84375 C 40.488281 50.457031 41.015625 50.136719 41.445312 49.921875 C 42.304688 49.492188 42.730469 49.429688 42.738281 49.460938 C 42.757812 49.507812 42.367188 49.640625 41.558594 50.128906 C 41.15625 50.367188 40.652344 50.710938 40.011719 51.125 C 39.371094 51.535156 38.574219 52.050781 37.488281 52.347656 C 37.21875 52.417969 36.929688 52.46875 36.628906 52.5 C 36.328125 52.511719 36.023438 52.527344 35.703125 52.542969 C 35.546875 52.546875 35.382812 52.566406 35.214844 52.554688 C 35.054688 52.542969 34.882812 52.535156 34.714844 52.523438 C 34.371094 52.492188 34.015625 52.5 33.660156 52.417969 C 32.210938 52.234375 30.628906 51.738281 28.949219 51.023438 C 27.261719 50.316406 25.476562 49.355469 23.464844 48.410156 C 22.46875 47.929688 21.394531 47.488281 20.253906 47.085938 C 19.167969 46.722656 18.003906 46.453125 16.777344 46.320312 C 16.328125 46.574219 15.871094 46.832031 15.414062 47.085938 C 16.679688 47.199219 17.882812 47.480469 18.996094 47.847656 C 20.503906 48.347656 21.886719 48.957031 23.179688 49.570312 C 24.476562 50.1875 25.679688 50.8125 26.835938 51.382812 C 27.984375 51.957031 29.101562 52.449219 30.160156 52.925781 C 31.214844 53.40625 32.222656 53.808594 33.191406 54.128906 C 34.152344 54.441406 35.085938 54.558594 35.96875 54.472656 C 36.851562 54.402344 37.660156 54.140625 38.414062 53.902344 C 39.164062 53.652344 39.867188 53.382812 40.492188 53.125 C 41.75 52.589844 42.78125 52.035156 43.660156 51.609375 C 44.539062 51.183594 45.261719 50.863281 45.839844 50.667969 C 46.132812 50.566406 46.378906 50.476562 46.589844 50.421875 C 46.808594 50.375 46.984375 50.335938 47.128906 50.300781 C 47.402344 50.246094 47.535156 50.230469 47.542969 50.25 C 47.542969 50.269531 47.417969 50.320312 47.160156 50.417969 C 47.023438 50.460938 46.855469 50.519531 46.648438 50.585938 C 46.441406 50.664062 46.203125 50.769531 45.921875 50.878906 C 45.363281 51.109375 44.671875 51.453125 43.8125 51.90625 C 42.953125 52.363281 41.933594 52.9375 40.660156 53.511719 C 40.011719 53.792969 39.328125 54.066406 38.5625 54.335938 C 37.800781 54.59375 36.96875 54.875 36.019531 54.964844 C 35.078125 55.066406 34.046875 54.949219 33.035156 54.628906 C 32.03125 54.308594 31 53.902344 29.9375 53.429688 C 28.875 52.960938 27.75 52.46875 26.589844 51.894531 C 25.421875 51.324219 24.214844 50.707031 22.929688 50.097656 C 21.644531 49.492188 20.285156 48.894531 18.8125 48.417969 C 17.441406 47.960938 15.960938 47.652344 14.414062 47.632812 C 13.875 47.925781 13.332031 48.210938 12.785156 48.488281 C 13.308594 48.554688 13.828125 48.640625 14.328125 48.746094 C 15.214844 48.949219 16.074219 49.179688 16.890625 49.46875 C 18.53125 50.023438 20.027344 50.710938 21.441406 51.378906 C 24.253906 52.738281 26.730469 54.074219 29.070312 55.003906 C 31.398438 55.945312 33.585938 56.496094 35.550781 56.585938 C 37.519531 56.683594 39.234375 56.390625 40.652344 55.929688 C 42.066406 55.480469 43.21875 54.933594 44.164062 54.453125 C 45.105469 53.96875 45.863281 53.574219 46.453125 53.269531 C 47.042969 52.964844 47.46875 52.753906 47.753906 52.632812 C 48.039062 52.507812 48.175781 52.453125 48.183594 52.476562 C 48.203125 52.519531 47.707031 52.800781 46.5625 53.472656 C 45.988281 53.808594 45.257812 54.242188 44.316406 54.75 C 43.378906 55.261719 42.226562 55.847656 40.777344 56.332031 C 39.335938 56.828125 37.5625 57.160156 35.527344 57.082031 C 33.496094 57.003906 31.234375 56.457031 28.867188 55.511719 C 26.484375 54.582031 23.984375 53.25 21.1875 51.90625 C 19.789062 51.246094 18.304688 50.566406 16.699219 50.027344 C 15.902344 49.75 15.066406 49.527344 14.207031 49.332031 C 13.425781 49.164062 12.621094 49.050781 11.804688 48.984375 C 11.1875 49.292969 10.570312 49.589844 9.949219 49.882812 C 14.144531 50.4375 18.949219 53.226562 21.640625 54.730469 C 26.03125 57.183594 31.160156 59.4375 36.316406 59.582031 C 37.457031 59.597656 38.558594 59.519531 39.632812 59.359375 C 39.972656 59.304688 40.3125 59.238281 40.65625 59.15625 C 43.972656 58.386719 47.191406 56.734375 50.089844 54.957031 C 50.316406 54.816406 50.550781 54.679688 50.789062 54.53125 Z M 52.15625 17.601562 C 52.597656 16.371094 50.910156 15.878906 49.851562 15.789062 C 49.261719 15.742188 46.75 15.644531 47.167969 16.761719 C 48.765625 16.949219 50.433594 17.234375 52.105469 17.632812 C 52.121094 17.625 52.136719 17.609375 52.15625 17.601562 Z M 54.175781 33.0625 C 54.816406 28.019531 56.28125 22.875 52.34375 18.878906 C 50.269531 18.351562 48.179688 18.019531 46.210938 17.847656 C 40.230469 17.335938 32.09375 17.335938 27.554688 21.988281 C 24.875 24.738281 23.757812 28.355469 22.621094 31.925781 C 21.449219 35.570312 20.449219 39.226562 20.28125 43.054688 C 21.617188 42.804688 22.765625 42.539062 24.125 42.664062 C 24.195312 42.238281 24.261719 41.835938 24.34375 41.460938 C 24.480469 40.933594 24.613281 40.457031 24.722656 40.03125 C 24.988281 39.1875 25.210938 38.539062 25.398438 38.046875 C 25.777344 37.074219 25.976562 36.71875 26.054688 36.746094 C 26.132812 36.773438 26.078125 37.175781 25.796875 38.179688 C 25.664062 38.683594 25.480469 39.339844 25.253906 40.179688 C 25.148438 40.601562 25.035156 41.066406 24.914062 41.585938 C 24.839844 41.945312 24.777344 42.339844 24.710938 42.75 C 24.796875 42.765625 24.882812 42.773438 24.96875 42.792969 C 25.09375 42.816406 25.222656 42.835938 25.34375 42.859375 C 25.972656 40.613281 26.53125 38.53125 27.128906 36.65625 C 27.4375 35.65625 27.734375 34.707031 28.011719 33.800781 C 28.308594 32.898438 28.582031 32.046875 28.847656 31.238281 C 29.382812 29.621094 29.859375 28.183594 30.277344 26.90625 C 30.714844 25.636719 31.046875 24.511719 31.503906 23.578125 C 31.949219 22.652344 32.40625 21.910156 32.808594 21.316406 C 33.207031 20.722656 33.554688 20.261719 33.828125 19.910156 C 34.371094 19.203125 34.640625 18.917969 34.671875 18.941406 C 34.703125 18.964844 34.503906 19.296875 34.015625 20.046875 C 33.777344 20.417969 33.460938 20.890625 33.089844 21.5 C 32.71875 22.101562 32.292969 22.839844 31.886719 23.753906 C 31.472656 24.652344 31.160156 25.78125 30.75 27.058594 C 30.339844 28.34375 29.886719 29.78125 29.371094 31.40625 C 29.113281 32.214844 28.839844 33.070312 28.554688 33.972656 C 28.28125 34.875 27.992188 35.828125 27.6875 36.828125 C 27.101562 38.683594 26.554688 40.738281 25.933594 42.957031 C 26.292969 43.015625 26.65625 43.0625 27.019531 43.105469 C 30.230469 32.003906 31.34375 28.636719 31.5 28.683594 C 31.65625 28.730469 30.804688 32.152344 27.617188 43.171875 C 28.742188 43.289062 29.867188 43.386719 30.984375 43.59375 C 35.363281 44.410156 39.597656 45.867188 43.972656 46.695312 C 46.089844 47.09375 48.308594 47.316406 50.507812 47.605469 C 51.289062 46.164062 51.671875 44.652344 51.929688 43.269531 C 52.078125 42.519531 52.167969 41.792969 52.257812 41.105469 C 52.308594 40.40625 52.359375 39.746094 52.40625 39.121094 C 52.511719 37.867188 52.597656 36.75 52.675781 35.761719 C 52.695312 35.515625 52.714844 35.273438 52.734375 35.046875 C 52.746094 34.8125 52.757812 34.585938 52.765625 34.371094 C 52.789062 33.9375 52.808594 33.535156 52.832031 33.160156 C 52.910156 31.660156 52.976562 30.628906 53.035156 29.972656 C 53.09375 29.3125 53.140625 29.03125 53.1875 29.03125 C 53.226562 29.03125 53.253906 29.316406 53.265625 29.980469 C 53.28125 30.640625 53.277344 31.675781 53.25 33.175781 C 53.242188 33.554688 53.234375 33.957031 53.226562 34.390625 C 53.222656 34.609375 53.21875 34.835938 53.207031 35.066406 C 53.199219 35.296875 53.183594 35.539062 53.167969 35.789062 C 53.105469 36.78125 53.035156 37.90625 52.953125 39.164062 C 52.914062 39.796875 52.867188 40.460938 52.816406 41.160156 C 52.738281 41.867188 52.652344 42.601562 52.503906 43.375 C 52.261719 44.726562 51.898438 46.214844 51.140625 47.6875 C 51.320312 47.714844 51.503906 47.738281 51.683594 47.765625 C 53.960938 43.160156 53.542969 38.03125 54.175781 33.0625 Z M 69.175781 50.632812 C 70.972656 42.796875 70.136719 34.691406 65.96875 27.714844 C 63.503906 23.589844 59.09375 20.976562 54.367188 19.457031 C 56.871094 23.101562 56.210938 27.496094 55.523438 31.949219 C 54.6875 37.339844 55.234375 42.914062 52.910156 47.957031 C 53.179688 48 53.453125 48.050781 53.722656 48.097656 C 54.027344 47.078125 54.316406 46.132812 54.558594 45.257812 C 54.78125 44.25 54.980469 43.339844 55.160156 42.519531 C 55.308594 41.695312 55.378906 40.953125 55.484375 40.296875 C 55.570312 39.636719 55.671875 39.070312 55.6875 38.566406 C 55.820312 36.570312 55.921875 35.808594 56.007812 35.808594 C 56.089844 35.804688 56.132812 36.570312 56.109375 38.597656 C 56.121094 39.105469 56.042969 39.683594 55.972656 40.351562 C 55.890625 41.015625 55.839844 41.777344 55.699219 42.613281 C 55.527344 43.449219 55.335938 44.375 55.128906 45.402344 C 54.894531 46.265625 54.609375 47.203125 54.304688 48.21875 C 55.226562 48.40625 56.132812 48.632812 57.011719 48.914062 C 58.046875 49.246094 59.09375 49.769531 60.15625 49.992188 C 61.386719 50.246094 62.558594 50.230469 63.796875 50.351562 C 65.59375 50.53125 67.371094 50.652344 69.175781 50.632812 Z M 66.996094 27.121094 C 71.230469 34.503906 72.214844 42.75 70.308594 50.996094 C 70.402344 51.273438 70.304688 51.625 70.015625 51.757812 C 69.855469 51.886719 69.628906 51.898438 69.441406 51.824219 C 65.617188 51.914062 61.542969 51.742188 57.945312 50.480469 C 57.804688 50.429688 57.664062 50.386719 57.527344 50.34375 C 56.398438 52.316406 54.296875 53.617188 52.445312 54.855469 C 52.195312 55.023438 51.9375 55.191406 51.683594 55.355469 C 47.007812 58.792969 41.667969 61.164062 35.632812 60.738281 C 31.5625 60.453125 27.484375 59.367188 23.890625 57.414062 C 20.363281 55.496094 16.414062 52.507812 12.292969 54.445312 C 10.386719 55.347656 2.476562 58.175781 2.871094 53.566406 C 3.011719 51.929688 4.214844 51.042969 5.59375 50.410156 C 5.660156 50.378906 5.730469 50.347656 5.796875 50.316406 C 6.503906 50.011719 7.234375 49.761719 7.894531 49.503906 C 11.789062 47.992188 15.515625 45.761719 19.082031 43.578125 C 19.183594 39.050781 20.453125 34.757812 21.832031 30.472656 C 22.945312 27.019531 24.257812 23.113281 27.167969 20.726562 C 32.273438 16.542969 39.542969 16.039062 45.921875 16.632812 C 45.613281 13.617188 54.90625 13.792969 53.308594 17.9375 C 58.824219 19.441406 64.210938 22.261719 66.996094 27.121094 " fill-opacity="1" fill-rule="nonzero"/></g><path fill="#000000" d="M 61.914062 24.191406 C 62.21875 24.457031 62.402344 24.816406 62.386719 25.164062 C 62.378906 25.519531 62.132812 25.742188 61.984375 25.789062 C 61.824219 25.851562 61.730469 25.835938 61.714844 25.796875 C 61.695312 25.753906 61.753906 25.683594 61.824219 25.582031 C 61.902344 25.480469 61.960938 25.34375 61.914062 25.183594 C 61.773438 24.667969 60.953125 24.21875 60.519531 24.703125 C 60.464844 24.761719 60.449219 24.863281 60.460938 24.972656 C 60.480469 25.203125 60.613281 25.429688 60.753906 25.566406 C 60.902344 25.714844 61.050781 25.769531 61.15625 25.824219 C 61.296875 25.851562 61.378906 25.886719 61.386719 25.933594 C 61.390625 25.976562 61.316406 26.03125 61.183594 26.082031 C 61.007812 26.113281 60.738281 26.105469 60.472656 25.949219 C 60.210938 25.789062 59.953125 25.503906 59.851562 25.074219 C 59.808594 24.863281 59.8125 24.589844 59.96875 24.34375 C 60.113281 24.105469 60.378906 23.945312 60.617188 23.902344 C 60.742188 23.867188 60.855469 23.855469 60.964844 23.859375 L 61.132812 23.855469 L 61.171875 23.859375 C 61.179688 23.859375 61.199219 23.863281 61.199219 23.863281 L 61.230469 23.867188 L 61.296875 23.878906 C 61.582031 23.9375 61.75 24.058594 61.914062 24.191406 " fill-opacity="1" fill-rule="nonzero"/><path fill="#000000" d="M 61.105469 24.578125 C 61.101562 24.578125 61.085938 24.578125 61.078125 24.578125 L 61.085938 24.574219 L 61.105469 24.578125 " fill-opacity="1" fill-rule="nonzero"/><path fill="#000000" d="M 45.265625 21.21875 C 45.421875 21.550781 45.34375 21.875 45.242188 22.023438 C 45.140625 22.175781 45.050781 22.230469 45.015625 22.203125 C 44.917969 22.160156 45.117188 21.792969 44.851562 21.449219 C 44.613281 21.125 43.835938 20.773438 43.304688 21.191406 C 43.21875 21.234375 43.175781 21.296875 43.105469 21.339844 C 43.070312 21.386719 43.011719 21.441406 43.015625 21.460938 C 43.003906 21.476562 43.003906 21.484375 43.007812 21.492188 C 43 21.496094 43.003906 21.511719 43.011719 21.527344 C 43.011719 21.539062 43.019531 21.558594 43.042969 21.585938 C 43.058594 21.601562 43.066406 21.625 43.097656 21.652344 C 43.292969 21.84375 43.597656 21.980469 43.839844 22.078125 C 44.085938 22.171875 44.296875 22.230469 44.4375 22.277344 C 44.585938 22.320312 44.6875 22.355469 44.6875 22.402344 C 44.6875 22.445312 44.609375 22.5 44.441406 22.535156 C 44.261719 22.574219 44.023438 22.582031 43.71875 22.535156 C 43.414062 22.476562 43.058594 22.398438 42.683594 22.105469 C 42.636719 22.074219 42.589844 22.019531 42.542969 21.964844 C 42.5 21.914062 42.457031 21.855469 42.425781 21.777344 C 42.390625 21.703125 42.363281 21.621094 42.363281 21.527344 C 42.351562 21.433594 42.355469 21.339844 42.394531 21.265625 C 42.441406 21.082031 42.542969 20.984375 42.636719 20.871094 C 42.734375 20.789062 42.839844 20.6875 42.941406 20.628906 C 43.058594 20.570312 43.125 20.503906 43.28125 20.453125 C 43.347656 20.417969 43.546875 20.367188 43.671875 20.355469 C 43.929688 20.332031 44.167969 20.382812 44.378906 20.453125 C 44.796875 20.605469 45.113281 20.898438 45.265625 21.21875 " fill-opacity="1" fill-rule="nonzero"/></svg>