<svg xmlns="http://www.w3.org/2000/svg" xmlns:xlink="http://www.w3.org/1999/xlink" width="100" zoomAndPan="magnify" viewBox="0 0 75 74.999997" height="100" preserveAspectRatio="xMidYMid meet" version="1.0"><defs><clipPath id="df6a958ba8"><path d="M 2.550781 18.082031 L 41.398438 18.082031 L 41.398438 56.929688 L 2.550781 56.929688 Z M 2.550781 18.082031 " clip-rule="nonzero"/></clipPath><clipPath id="cce58079d5"><path d="M 45.21875 19.359375 L 72.589844 19.359375 L 72.589844 57.324219 L 45.21875 57.324219 Z M 45.21875 19.359375 " clip-rule="nonzero"/></clipPath></defs><g clip-path="url(#df6a958ba8)"><path fill="#000000" d="M 8.070312 47.957031 C 8.070312 47.585938 8.070312 47.210938 8.074219 46.839844 C 7.699219 47.125 7.339844 47.453125 6.941406 47.683594 C 6.585938 47.890625 6.261719 48.167969 5.945312 48.433594 C 5.679688 48.660156 5.289062 48.914062 5.1875 49.285156 C 5.371094 49.328125 5.566406 49.34375 5.753906 49.332031 C 6.566406 49.296875 7.308594 49.164062 8.078125 48.914062 C 8.070312 48.601562 8.070312 48.28125 8.070312 47.957031 Z M 8.082031 46.246094 C 8.09375 45.601562 8.101562 44.960938 8.125 44.316406 C 7.117188 45.0625 6.046875 45.78125 5.121094 46.632812 C 4.777344 46.945312 4.335938 47.332031 4.230469 47.8125 C 4.089844 48.46875 4.347656 48.886719 4.746094 49.117188 C 4.949219 48.519531 5.550781 48.117188 6.035156 47.75 C 6.699219 47.238281 7.371094 46.722656 8.070312 46.253906 C 8.074219 46.25 8.078125 46.25 8.082031 46.246094 Z M 8.125 49.964844 C 8.113281 49.78125 8.101562 49.601562 8.09375 49.414062 C 6.824219 49.785156 3.535156 50.292969 3.671875 48.277344 C 3.386719 48.796875 3.304688 49.359375 4.066406 49.550781 C 4.503906 49.660156 4.9375 49.769531 5.386719 49.816406 C 6.304688 49.914062 7.199219 50.128906 8.125 49.964844 Z M 8.4375 52.199219 C 8.308594 51.625 8.21875 51.042969 8.167969 50.445312 C 7.4375 50.5625 6.714844 50.492188 5.984375 50.386719 C 5.246094 50.285156 4.371094 50.269531 3.691406 49.910156 C 3.398438 49.757812 3.21875 49.570312 3.117188 49.363281 C 3.105469 49.703125 3.191406 50.078125 3.378906 50.5 C 3.480469 50.738281 3.558594 50.917969 3.644531 51.164062 C 3.835938 51.71875 4.3125 51.742188 4.777344 51.917969 C 5.714844 52.269531 7.429688 52.546875 8.4375 52.199219 Z M 20.289062 18.628906 C 19.914062 18.636719 19.546875 18.679688 19.226562 18.824219 C 18.667969 19.082031 18.328125 19.53125 17.9375 19.988281 C 17.09375 20.980469 16.464844 22.320312 16.339844 23.65625 C 17.082031 23.402344 17.582031 23.300781 17.742188 22.296875 C 17.855469 21.578125 18.097656 20.882812 18.417969 20.226562 C 18.839844 19.367188 19.449219 18.839844 20.289062 18.628906 Z M 24.414062 22.953125 C 24.390625 21.769531 24.144531 20.210938 23.023438 19.621094 C 21.796875 18.976562 19.765625 18.546875 18.976562 20.160156 C 18.6875 20.746094 18.359375 21.402344 18.257812 22.058594 C 18.226562 22.238281 18.246094 22.632812 18.210938 22.964844 C 18.492188 22.875 18.777344 22.808594 19.054688 22.808594 C 20.15625 22.808594 21.257812 22.804688 22.355469 22.847656 C 23.058594 22.878906 23.742188 22.894531 24.414062 22.953125 Z M 26.085938 23.1875 C 25.824219 22.015625 25.449219 21.148438 24.6875 20.148438 C 24.28125 19.613281 23.617188 19.1875 22.90625 18.929688 C 24.25 19.660156 24.851562 21.292969 24.890625 22.996094 C 25.292969 23.039062 25.691406 23.101562 26.085938 23.1875 Z M 32.289062 55.871094 C 35.171875 54.855469 34.703125 50.585938 34.445312 48.167969 C 34.203125 45.867188 33.949219 43.566406 33.914062 41.25 C 33.890625 39.730469 33.558594 38.210938 33.324219 36.710938 C 33.09375 35.21875 32.859375 33.714844 32.597656 32.226562 C 32.34375 30.78125 32.109375 28.894531 31.285156 27.652344 C 30.402344 26.324219 28.945312 25.484375 27.441406 25.046875 C 27.402344 25.035156 27.375 25.019531 27.347656 24.996094 C 24.644531 24.246094 21.683594 24.238281 18.921875 24.539062 C 15.859375 24.871094 12.8125 26 11.882812 29.246094 C 11.066406 32.082031 10.796875 35.042969 10.269531 37.941406 C 9.835938 40.355469 9.640625 42.988281 9.640625 45.441406 C 9.640625 46.597656 9.335938 47.785156 9.289062 48.945312 C 9.238281 50.207031 9.003906 51.871094 9.335938 53.101562 C 9.699219 54.445312 10.425781 55.746094 11.941406 55.960938 C 13.195312 56.136719 14.476562 56.027344 15.742188 56.175781 C 18.59375 56.515625 21.519531 56.34375 24.386719 56.386719 C 25.921875 56.414062 27.449219 56.417969 28.980469 56.445312 C 29.792969 56.460938 30.523438 56.34375 31.3125 56.199219 C 31.632812 56.136719 31.921875 56.015625 32.214844 55.902344 C 32.214844 55.902344 32.214844 55.898438 32.21875 55.898438 C 32.242188 55.890625 32.261719 55.882812 32.289062 55.875 C 32.289062 55.871094 32.289062 55.871094 32.289062 55.871094 Z M 35.253906 45.097656 C 35.289062 43.238281 34.867188 41.417969 34.863281 39.5625 C 34.863281 37.660156 34.433594 35.84375 34.199219 33.972656 C 33.929688 31.839844 33.511719 29.71875 32.347656 27.890625 C 31.34375 26.320312 29.722656 25.300781 28.097656 24.460938 C 26.089844 23.421875 24.101562 23.371094 21.894531 23.3125 C 20.972656 23.285156 19.972656 23.1875 19.054688 23.289062 C 18.667969 23.332031 18.285156 23.460938 17.902344 23.605469 C 17.472656 23.960938 16.683594 24.03125 16.21875 24.203125 C 13.578125 25.457031 11.136719 27.277344 10.316406 30.253906 C 9.890625 31.800781 9.75 33.390625 9.453125 34.960938 C 9.164062 36.492188 8.949219 38 8.929688 39.5625 C 8.90625 40.984375 8.617188 42.375 8.550781 43.796875 C 8.488281 45.179688 8.542969 46.574219 8.542969 47.957031 C 8.542969 49.046875 8.574219 50.066406 8.710938 51.050781 C 8.722656 50.332031 8.777344 49.609375 8.8125 48.945312 C 8.878906 47.875 8.902344 46.699219 9.121094 45.648438 C 9.40625 44.253906 9.382812 42.675781 9.402344 41.25 C 9.421875 39.820312 9.738281 38.402344 9.949219 36.996094 C 10.21875 35.21875 10.472656 33.421875 10.8125 31.65625 C 11.074219 30.292969 11.3125 28.589844 12.097656 27.410156 C 12.808594 26.335938 13.78125 25.621094 14.9375 25.078125 C 16.382812 24.390625 17.691406 24.238281 19.246094 24.011719 C 22.058594 23.597656 25.332031 23.835938 28.042969 24.703125 C 28.085938 24.71875 28.117188 24.742188 28.144531 24.773438 C 29.304688 25.183594 30.511719 25.84375 31.257812 26.808594 C 32.148438 27.953125 32.503906 29.375 32.800781 30.78125 C 33.523438 34.207031 34.105469 37.765625 34.390625 41.25 C 34.511719 42.734375 34.5 44.230469 34.679688 45.710938 C 34.863281 47.191406 35.003906 48.707031 35.007812 50.203125 C 35.011719 50.734375 35.015625 51.285156 34.992188 51.839844 C 35.082031 51.40625 35.148438 50.953125 35.191406 50.460938 C 35.34375 48.683594 35.21875 46.882812 35.253906 45.097656 Z M 38.597656 49.253906 L 38.601562 49.253906 C 38.394531 48.601562 37.332031 48.023438 36.851562 47.683594 C 36.464844 47.417969 36.105469 47.113281 35.722656 46.835938 C 35.722656 47.53125 35.726562 48.226562 35.710938 48.917969 C 36.648438 49.226562 37.617188 49.449219 38.597656 49.253906 Z M 39.039062 49.101562 C 40.03125 48.585938 39.410156 47.21875 38.671875 46.632812 C 37.703125 45.847656 36.714844 45.105469 35.722656 44.359375 C 35.726562 44.605469 35.730469 44.851562 35.726562 45.097656 C 35.722656 45.484375 35.722656 45.867188 35.722656 46.253906 C 36.417969 46.722656 37.089844 47.238281 37.757812 47.75 C 38.238281 48.117188 38.832031 48.515625 39.039062 49.101562 Z M 38.40625 49.816406 C 39.003906 49.753906 40.90625 49.574219 40.117188 48.257812 C 40.277344 50.296875 36.976562 49.785156 35.699219 49.414062 C 35.695312 49.597656 35.6875 49.78125 35.679688 49.96875 C 36.597656 50.125 37.492188 49.914062 38.40625 49.816406 Z M 40.601562 50.019531 C 40.699219 49.753906 40.730469 49.511719 40.707031 49.28125 C 40.617188 49.523438 40.429688 49.738281 40.101562 49.910156 C 39.339844 50.3125 38.308594 50.332031 37.476562 50.449219 C 36.882812 50.53125 36.253906 50.546875 35.65625 50.453125 C 35.640625 50.707031 35.625 50.964844 35.601562 51.21875 C 35.570312 51.570312 35.515625 51.90625 35.441406 52.230469 C 36.484375 52.542969 38.046875 52.214844 39.015625 51.917969 C 39.695312 51.707031 40.007812 51.542969 40.257812 50.859375 C 40.363281 50.578125 40.492188 50.300781 40.601562 50.019531 Z M 40.230469 47.566406 C 40.824219 48.097656 41.386719 48.757812 41.207031 49.636719 C 41.089844 50.199219 40.769531 51.613281 40.285156 51.898438 C 39.0625 52.609375 36.800781 53.105469 35.320312 52.683594 C 35.3125 52.683594 34.523438 54.796875 34.359375 55.03125 C 33.992188 55.574219 33.316406 56.050781 32.691406 56.230469 C 32.578125 56.277344 32.464844 56.320312 32.347656 56.359375 C 32.308594 56.375 32.273438 56.375 32.242188 56.371094 C 31.855469 56.503906 31.464844 56.652344 31.074219 56.746094 C 30.375 56.914062 29.699219 56.941406 28.980469 56.921875 C 27.136719 56.875 25.289062 56.882812 23.445312 56.851562 C 21.683594 56.824219 19.921875 56.820312 18.160156 56.820312 C 16.609375 56.820312 15.082031 56.515625 13.53125 56.519531 C 12.5625 56.523438 11.652344 56.359375 10.777344 55.945312 C 10.457031 55.796875 10.128906 55.742188 9.867188 55.496094 C 9.566406 55.210938 9.390625 54.820312 9.214844 54.449219 C 9.148438 54.308594 8.480469 52.679688 8.550781 52.65625 C 7.074219 53.125 4.753906 52.625 3.507812 51.898438 C 3.097656 51.660156 2.574219 50.085938 2.578125 49.574219 C 2.59375 48.648438 2.910156 48.15625 3.554688 47.578125 C 3.730469 47.339844 3.921875 47.125 4.101562 46.949219 C 4.140625 46.910156 4.1875 46.894531 4.230469 46.886719 C 4.527344 46.515625 4.902344 46.203125 5.3125 45.910156 C 5.855469 45.519531 6.28125 44.988281 6.824219 44.609375 C 7.238281 44.324219 7.664062 44.070312 8.070312 43.769531 C 8.09375 43.75 8.121094 43.738281 8.144531 43.730469 C 8.214844 41.910156 8.324219 40.097656 8.488281 38.28125 C 8.628906 36.664062 8.917969 35.042969 9.183594 33.445312 C 9.4375 31.929688 9.625 30.285156 10.339844 28.90625 C 10.898438 27.835938 11.511719 26.65625 12.492188 25.90625 C 13.488281 25.132812 14.699219 24.40625 15.847656 23.851562 C 15.9375 22.308594 16.648438 20.828125 17.605469 19.648438 C 18.660156 18.339844 19.632812 18.085938 21.296875 18.15625 C 24.34375 18.289062 26.035156 20.503906 26.597656 23.316406 C 27.0625 23.449219 27.523438 23.628906 27.980469 23.863281 C 29.527344 24.664062 31.238281 25.589844 32.316406 26.996094 C 33.496094 28.535156 34.039062 30.292969 34.378906 32.171875 C 34.765625 34.292969 35.285156 36.527344 35.332031 38.691406 C 35.363281 40.386719 35.605469 42.0625 35.695312 43.75 C 35.703125 43.757812 35.714844 43.761719 35.722656 43.769531 C 36.128906 44.070312 36.554688 44.324219 36.96875 44.609375 C 37.515625 44.988281 37.910156 45.550781 38.476562 45.910156 C 38.898438 46.175781 39.28125 46.5 39.574219 46.890625 C 39.613281 46.898438 39.652344 46.914062 39.691406 46.949219 C 39.871094 47.121094 40.058594 47.335938 40.230469 47.566406 " fill-opacity="1" fill-rule="nonzero"/></g><path fill="#000000" d="M 12.8125 44.863281 C 12.828125 44.742188 12.859375 44.636719 12.917969 44.546875 C 12.542969 44.527344 12.160156 44.476562 11.835938 44.332031 C 11.832031 44.632812 11.828125 44.863281 11.832031 45.140625 C 11.835938 45.308594 12.078125 45.335938 12.25 45.386719 C 12.484375 45.386719 12.59375 45.402344 12.753906 45.460938 C 12.726562 45.265625 12.78125 45.058594 12.8125 44.863281 Z M 13.410156 46.828125 C 13.410156 46.53125 13.410156 46.234375 13.410156 45.933594 C 13.367188 45.933594 13.324219 45.933594 13.285156 45.929688 C 13.167969 46.191406 13.0625 46.480469 12.96875 46.765625 C 13.121094 46.773438 13.265625 46.792969 13.410156 46.828125 Z M 13.410156 48.585938 C 13.410156 48.246094 13.410156 47.902344 13.410156 47.558594 C 13.410156 47.480469 13.410156 47.359375 13.410156 47.359375 C 13.238281 47.359375 13.03125 47.253906 12.835938 47.253906 C 12.808594 47.363281 12.785156 47.457031 12.761719 47.558594 C 12.695312 47.882812 12.710938 48.195312 12.683594 48.523438 C 12.660156 48.820312 12.59375 48.914062 12.933594 48.914062 C 13.335938 48.914062 13.410156 49.027344 13.410156 48.585938 Z M 31.921875 45.238281 C 31.929688 45.195312 31.925781 45.136719 31.925781 45.0625 C 31.925781 44.867188 31.925781 44.539062 31.925781 44.296875 C 31.609375 44.414062 31.289062 44.4375 30.933594 44.492188 C 30.90625 44.515625 30.875 44.53125 30.832031 44.535156 C 29.984375 44.652344 29.0625 44.515625 28.195312 44.515625 C 27.03125 44.515625 25.871094 44.515625 24.707031 44.515625 C 22.261719 44.515625 19.816406 44.53125 17.371094 44.5625 C 16.371094 44.574219 15.367188 44.609375 14.367188 44.589844 C 14.371094 44.613281 14.386719 44.632812 14.394531 44.660156 C 14.429688 44.867188 14.390625 45.113281 14.386719 45.324219 C 14.386719 45.390625 14.378906 45.472656 14.363281 45.550781 C 15.808594 45.742188 17.320312 45.621094 18.765625 45.621094 C 20.242188 45.621094 21.710938 45.800781 23.179688 45.804688 C 26.085938 45.8125 29.042969 46.015625 31.863281 45.242188 C 31.882812 45.238281 31.902344 45.238281 31.921875 45.238281 Z M 31.660156 43.933594 C 32.359375 43.65625 32.246094 42.835938 32.140625 42.273438 C 32.070312 41.890625 31.941406 41.515625 31.742188 41.210938 C 31.722656 41.199219 31.707031 41.183594 31.691406 41.164062 C 31.421875 40.796875 30.996094 40.632812 30.539062 40.5625 C 30.523438 40.5625 30.511719 40.5625 30.5 40.5625 C 30.464844 40.5625 30.425781 40.558594 30.398438 40.542969 C 29.988281 40.5 29.5625 40.515625 29.207031 40.527344 C 28.328125 40.542969 27.4375 40.558594 26.554688 40.53125 C 24.78125 40.484375 23.042969 40.257812 21.261719 40.289062 C 19.515625 40.324219 17.777344 40.347656 16.035156 40.332031 C 14.738281 40.324219 12.515625 39.972656 11.949219 41.464844 C 11.710938 42.078125 11.53125 42.640625 11.601562 43.316406 C 11.699219 44.332031 14.382812 44.109375 15.027344 44.101562 C 16.890625 44.085938 18.757812 44.070312 20.621094 44.058594 C 22.421875 44.050781 24.21875 44.035156 26.015625 44.035156 C 26.890625 44.035156 27.761719 44.046875 28.632812 44.035156 C 29.210938 44.027344 29.851562 44.128906 30.441406 44.097656 C 30.828125 44.015625 31.304688 44.074219 31.660156 43.933594 Z M 32.183594 52.699219 C 32.230469 51.929688 32.355469 51.132812 32.3125 50.355469 C 32.265625 49.535156 32.097656 48.71875 32.074219 47.898438 C 32.054688 47.207031 32.160156 46.449219 31.914062 45.785156 C 31.839844 45.792969 31.757812 45.796875 31.6875 45.828125 C 31.617188 45.863281 31.550781 45.859375 31.488281 45.835938 C 30.554688 46.078125 29.5625 46.28125 28.621094 46.28125 C 26.6875 46.28125 24.683594 46.433594 22.757812 46.253906 C 19.851562 45.976562 16.820312 46.457031 13.949219 45.972656 C 13.957031 46.945312 14.003906 47.917969 14.011719 48.894531 C 14.015625 49.589844 13.136719 49.414062 12.691406 49.386719 C 11.996094 49.347656 12.21875 48.382812 12.25 47.929688 C 12.300781 47.296875 12.507812 46.582031 12.765625 45.953125 C 12.742188 45.957031 12.714844 45.953125 12.691406 45.941406 C 12.484375 45.859375 11.984375 45.863281 11.984375 45.863281 C 11.933594 45.863281 11.898438 45.839844 11.867188 45.804688 C 11.632812 46.472656 11.769531 47.199219 11.71875 47.898438 C 11.671875 48.46875 11.597656 49.035156 11.539062 49.605469 C 11.421875 50.734375 11.550781 51.855469 11.628906 52.984375 C 11.664062 53.488281 11.882812 54.664062 12.46875 54.828125 C 12.851562 54.933594 13.226562 54.957031 13.617188 54.992188 C 14.8125 55.097656 15.988281 55.195312 17.1875 55.246094 C 19.761719 55.355469 22.265625 55.203125 24.828125 55.113281 C 26.039062 55.070312 27.234375 54.972656 28.441406 54.902344 C 29.472656 54.84375 30.753906 55.058594 31.699219 54.585938 C 32.074219 54.144531 32.152344 53.136719 32.183594 52.699219 Z M 32.546875 47.898438 C 32.632812 48.984375 32.8125 50.039062 32.757812 51.128906 C 32.699219 52.242188 32.902344 54.46875 31.777344 55.140625 C 31.703125 55.183594 31.632812 55.179688 31.570312 55.152344 C 30.578125 55.488281 29.5 55.28125 28.441406 55.382812 C 26.976562 55.519531 25.527344 55.546875 24.058594 55.625 C 20.886719 55.792969 17.65625 55.96875 14.488281 55.5625 C 13.730469 55.46875 12.449219 55.597656 11.828125 55.023438 C 11.296875 54.527344 11.199219 53.683594 11.152344 52.984375 C 11.058594 51.542969 11.007812 50.195312 11.167969 48.75 C 11.277344 47.707031 11.0625 46.5625 11.445312 45.570312 C 11.398438 45.511719 11.355469 45.445312 11.335938 45.371094 C 11.28125 45.175781 11.273438 44.933594 11.273438 44.730469 C 11.273438 44.507812 11.273438 44.007812 11.273438 44.007812 C 11.273438 43.96875 11.285156 43.941406 11.308594 43.917969 C 10.753906 43.144531 11.285156 41.867188 11.582031 41.09375 C 12.039062 39.894531 13.25 39.914062 14.351562 39.875 C 16.648438 39.789062 18.960938 39.839844 21.261719 39.808594 C 23.652344 39.78125 26.015625 40.054688 28.40625 40.054688 C 29.066406 40.054688 29.835938 39.984375 30.535156 40.085938 C 31.957031 40.050781 32.398438 41.234375 32.660156 42.441406 C 32.734375 42.792969 32.796875 43.714844 32.464844 43.988281 C 32.453125 43.996094 32.441406 44.007812 32.429688 44.011719 C 32.429688 44.488281 32.511719 44.984375 32.394531 45.394531 C 32.382812 45.441406 32.355469 45.488281 32.328125 45.527344 C 32.636719 46.300781 32.484375 47.0625 32.546875 47.898438 Z M 13.304688 44.800781 C 13.335938 44.785156 13.292969 44.847656 13.289062 44.882812 C 13.277344 44.933594 13.273438 44.988281 13.261719 45.042969 C 13.253906 45.089844 13.203125 45.300781 13.214844 45.390625 C 13.246094 45.402344 13.277344 45.421875 13.304688 45.445312 C 13.449219 45.464844 13.617188 45.441406 13.746094 45.410156 C 13.800781 45.394531 13.851562 45.386719 13.910156 45.375 L 13.902344 45.375 C 13.902344 45.238281 13.882812 45.105469 13.894531 44.972656 C 13.902344 44.921875 13.882812 44.871094 13.882812 44.820312 C 13.882812 44.816406 13.882812 44.816406 13.882812 44.808594 C 13.882812 44.804688 13.71875 44.816406 13.625 44.816406 C 13.515625 44.808594 13.425781 44.796875 13.316406 44.789062 C 13.3125 44.792969 13.308594 44.796875 13.304688 44.800781 " fill-opacity="1" fill-rule="nonzero"/><g clip-path="url(#cce58079d5)"><path fill="#0a0a0a" d="M 70.605469 55.511719 C 70.585938 55.976562 70.203125 56.347656 69.738281 56.347656 L 48.070312 56.347656 C 47.605469 56.347656 47.222656 55.976562 47.203125 55.511719 L 46.242188 32.300781 C 46.222656 31.867188 46.566406 31.507812 47 31.507812 L 52.519531 31.507812 C 52.269531 32.398438 51.976562 33.25 51.648438 34.042969 L 51.367188 34.714844 L 54.734375 34.714844 L 54.878906 34.492188 C 55.003906 34.289062 55.117188 34.0625 55.226562 33.789062 C 55.515625 33.066406 55.695312 32.289062 55.808594 31.507812 L 62 31.507812 C 62.113281 32.289062 62.292969 33.0625 62.582031 33.789062 C 62.691406 34.0625 62.804688 34.292969 62.929688 34.492188 L 63.074219 34.714844 L 66.441406 34.714844 L 66.160156 34.042969 C 65.84375 33.28125 65.558594 32.464844 65.316406 31.613281 C 65.308594 31.578125 65.300781 31.542969 65.289062 31.507812 L 70.8125 31.507812 C 71.242188 31.507812 71.585938 31.867188 71.566406 32.300781 Z M 53.417969 31.878906 C 53.453125 31.757812 53.484375 31.636719 53.519531 31.507812 C 53.601562 31.203125 53.679688 30.878906 53.742188 30.539062 C 53.78125 30.3125 53.8125 30.082031 53.835938 29.847656 C 53.867188 29.480469 53.886719 29.105469 53.90625 28.746094 C 53.933594 28.140625 53.964844 27.566406 54.058594 27 C 54.222656 26.007812 54.605469 24.941406 55.222656 23.734375 C 55.265625 23.648438 55.316406 23.550781 55.375 23.445312 C 55.15625 24.03125 55.160156 24.652344 55.160156 25.214844 C 55.160156 25.308594 55.160156 25.398438 55.160156 25.488281 C 55.152344 26.710938 55.125 27.695312 55.082031 28.589844 L 55.078125 28.671875 C 55.046875 29.292969 55.015625 29.921875 54.957031 30.539062 C 54.925781 30.863281 54.886719 31.1875 54.835938 31.507812 C 54.730469 32.171875 54.574219 32.820312 54.332031 33.425781 C 54.285156 33.542969 54.238281 33.652344 54.191406 33.746094 L 52.800781 33.746094 C 53.027344 33.148438 53.234375 32.523438 53.417969 31.878906 Z M 56.039062 28.722656 L 56.042969 28.640625 C 56.089844 27.730469 56.113281 26.730469 56.125 25.496094 C 56.125 25.402344 56.125 25.308594 56.125 25.214844 C 56.121094 24.5625 56.121094 23.949219 56.433594 23.480469 C 56.691406 23.09375 57.140625 22.789062 57.695312 22.621094 C 57.855469 22.585938 58.613281 22.453125 58.804688 22.453125 L 58.816406 22.453125 C 58.875 22.457031 58.933594 22.457031 58.992188 22.453125 C 59.15625 22.445312 59.949219 22.582031 60.113281 22.621094 C 60.441406 22.71875 61.027344 22.960938 61.375 23.480469 C 61.6875 23.949219 61.6875 24.5625 61.683594 25.207031 L 61.683594 25.5 C 61.695312 26.769531 61.71875 27.738281 61.765625 28.640625 L 61.769531 28.710938 C 61.796875 29.300781 61.828125 29.914062 61.886719 30.539062 L 55.921875 30.539062 C 55.980469 29.917969 56.011719 29.304688 56.039062 28.722656 Z M 56.625 21.605469 C 57.386719 20.300781 58.820312 20.34375 58.878906 20.34375 L 58.929688 20.34375 C 58.941406 20.34375 60.410156 20.285156 61.1875 21.605469 C 61.367188 21.917969 61.539062 22.179688 61.710938 22.414062 C 61.351562 22.09375 60.894531 21.84375 60.378906 21.691406 C 60.296875 21.664062 59.371094 21.488281 58.988281 21.488281 C 58.96875 21.488281 58.949219 21.488281 58.933594 21.488281 C 58.914062 21.488281 58.894531 21.488281 58.878906 21.488281 C 58.542969 21.46875 57.515625 21.664062 57.429688 21.691406 C 56.914062 21.84375 56.457031 22.09375 56.097656 22.410156 C 56.269531 22.175781 56.441406 21.914062 56.625 21.605469 Z M 62.585938 23.734375 C 63.203125 24.941406 63.585938 26.011719 63.75 27 C 63.84375 27.566406 63.871094 28.140625 63.902344 28.746094 C 63.921875 29.105469 63.9375 29.480469 63.972656 29.847656 C 63.996094 30.082031 64.027344 30.3125 64.070312 30.539062 C 64.128906 30.878906 64.207031 31.203125 64.289062 31.507812 C 64.324219 31.636719 64.359375 31.757812 64.390625 31.878906 C 64.574219 32.523438 64.78125 33.148438 65.007812 33.746094 L 63.617188 33.746094 C 63.570312 33.652344 63.523438 33.546875 63.476562 33.425781 C 63.234375 32.820312 63.078125 32.171875 62.972656 31.507812 C 62.921875 31.1875 62.882812 30.863281 62.851562 30.539062 C 62.792969 29.917969 62.761719 29.285156 62.730469 28.664062 L 62.726562 28.589844 C 62.683594 27.703125 62.660156 26.746094 62.648438 25.488281 L 62.648438 25.210938 C 62.648438 24.648438 62.652344 24.027344 62.433594 23.445312 C 62.488281 23.546875 62.539062 23.644531 62.585938 23.734375 Z M 71.816406 30.539062 L 65.050781 30.539062 C 65 30.285156 64.957031 30.023438 64.933594 29.761719 C 64.902344 29.410156 64.882812 29.046875 64.867188 28.695312 C 64.835938 28.089844 64.804688 27.464844 64.699219 26.84375 C 64.519531 25.75 64.105469 24.589844 63.441406 23.289062 C 63.261719 22.9375 63.011719 22.484375 62.683594 22.089844 C 62.46875 21.828125 62.253906 21.519531 62.015625 21.113281 C 61 19.378906 59.148438 19.371094 58.902344 19.375 C 58.660156 19.371094 56.808594 19.378906 55.792969 21.113281 C 55.558594 21.511719 55.34375 21.824219 55.121094 22.089844 C 54.785156 22.496094 54.53125 22.96875 54.367188 23.289062 C 53.699219 24.585938 53.289062 25.75 53.109375 26.84375 C 53.003906 27.464844 52.972656 28.089844 52.941406 28.699219 C 52.925781 29.050781 52.90625 29.410156 52.875 29.761719 C 52.851562 30.023438 52.808594 30.285156 52.757812 30.539062 L 45.992188 30.539062 C 45.5625 30.539062 45.21875 30.898438 45.238281 31.332031 L 46.28125 56.480469 C 46.300781 56.945312 46.683594 57.316406 47.148438 57.316406 L 70.660156 57.316406 C 71.125 57.316406 71.507812 56.945312 71.527344 56.480469 L 72.570312 31.332031 C 72.589844 30.898438 72.246094 30.539062 71.816406 30.539062 " fill-opacity="1" fill-rule="nonzero"/></g></svg>