<svg xmlns="http://www.w3.org/2000/svg" xmlns:xlink="http://www.w3.org/1999/xlink" width="100" zoomAndPan="magnify" viewBox="0 0 75 74.999997" height="100" preserveAspectRatio="xMidYMid meet" version="1.0"><defs><clipPath id="c9d3e04d7e"><path d="M 2.75 6.269531 L 72.5 6.269531 L 72.5 68.519531 L 2.75 68.519531 Z M 2.75 6.269531 " clip-rule="nonzero"/></clipPath></defs><path fill="#000000" d="M 6.269531 20.25 L 46.421875 20.25 L 46.421875 21.648438 L 6.269531 21.648438 Z M 6.269531 20.25 " fill-opacity="1" fill-rule="nonzero"/><path fill="#000000" d="M 6.269531 27.242188 L 46.421875 27.242188 L 46.421875 28.644531 L 6.269531 28.644531 Z M 6.269531 27.242188 " fill-opacity="1" fill-rule="nonzero"/><path fill="#000000" d="M 6.269531 34.238281 L 46.421875 34.238281 L 46.421875 35.636719 L 6.269531 35.636719 Z M 6.269531 34.238281 " fill-opacity="1" fill-rule="nonzero"/><path fill="#000000" d="M 6.269531 55.222656 L 46.421875 55.222656 L 46.421875 56.621094 L 6.269531 56.621094 Z M 6.269531 55.222656 " fill-opacity="1" fill-rule="nonzero"/><g clip-path="url(#c9d3e04d7e)"><path fill="#000000" d="M 72.429688 18.359375 L 69.441406 15.394531 L 66.46875 18.359375 L 65.476562 17.375 L 63.960938 18.859375 L 62.949219 17.863281 L 63.941406 16.878906 L 62.949219 15.886719 L 50.972656 27.777344 L 51.964844 28.761719 L 61.96875 18.859375 L 62.949219 19.84375 L 60.953125 21.824219 L 49.945312 32.769531 L 49.945312 10.472656 L 46.421875 10.472656 C 46.382812 9.898438 46.238281 9.351562 45.988281 8.832031 C 45.742188 8.3125 45.40625 7.855469 44.980469 7.460938 C 44.558594 7.070312 44.078125 6.769531 43.539062 6.558594 C 43 6.347656 42.441406 6.242188 41.859375 6.242188 C 41.28125 6.242188 40.722656 6.347656 40.183594 6.558594 C 39.644531 6.769531 39.164062 7.070312 38.742188 7.460938 C 38.316406 7.855469 37.980469 8.3125 37.730469 8.832031 C 37.484375 9.351562 37.339844 9.898438 37.300781 10.472656 L 35.84375 10.472656 C 35.800781 9.898438 35.660156 9.351562 35.410156 8.832031 C 35.160156 8.3125 34.824219 7.855469 34.402344 7.460938 C 33.976562 7.070312 33.496094 6.769531 32.957031 6.558594 C 32.417969 6.347656 31.859375 6.242188 31.28125 6.242188 C 30.703125 6.242188 30.140625 6.347656 29.605469 6.558594 C 29.066406 6.769531 28.582031 7.070312 28.160156 7.460938 C 27.738281 7.855469 27.402344 8.3125 27.152344 8.832031 C 26.902344 9.351562 26.757812 9.898438 26.71875 10.472656 L 25.277344 10.472656 C 25.238281 9.898438 25.09375 9.351562 24.84375 8.832031 C 24.59375 8.3125 24.257812 7.855469 23.835938 7.460938 C 23.414062 7.070312 22.929688 6.769531 22.390625 6.558594 C 21.851562 6.347656 21.292969 6.242188 20.714844 6.242188 C 20.136719 6.242188 19.578125 6.347656 19.039062 6.558594 C 18.5 6.769531 18.015625 7.070312 17.59375 7.460938 C 17.171875 7.855469 16.835938 8.3125 16.585938 8.832031 C 16.335938 9.351562 16.191406 9.898438 16.152344 10.472656 L 14.710938 10.472656 C 14.671875 9.898438 14.527344 9.351562 14.277344 8.832031 C 14.027344 8.3125 13.691406 7.855469 13.269531 7.460938 C 12.847656 7.070312 12.363281 6.769531 11.824219 6.558594 C 11.285156 6.347656 10.726562 6.242188 10.148438 6.242188 C 9.570312 6.242188 9.011719 6.347656 8.472656 6.558594 C 7.933594 6.769531 7.449219 7.070312 7.027344 7.460938 C 6.605469 7.855469 6.269531 8.3125 6.019531 8.832031 C 5.769531 9.351562 5.625 9.898438 5.585938 10.472656 L 2.769531 10.472656 L 2.769531 62.929688 L 4.179688 62.929688 L 4.179688 65.726562 L 5.585938 65.726562 L 5.585938 68.523438 L 47.148438 68.523438 L 47.148438 65.726562 L 48.558594 65.726562 L 48.558594 62.929688 L 49.964844 62.929688 L 49.964844 42.644531 L 65.949219 26.769531 L 70.429688 22.320312 L 69.433594 21.304688 Z M 41.816406 7.671875 C 42.203125 7.675781 42.578125 7.746094 42.941406 7.882812 C 43.304688 8.023438 43.632812 8.21875 43.921875 8.476562 C 44.210938 8.738281 44.441406 9.039062 44.621094 9.378906 C 44.796875 9.722656 44.90625 10.085938 44.949219 10.472656 L 38.679688 10.472656 C 38.722656 10.085938 38.832031 9.722656 39.011719 9.378906 C 39.1875 9.039062 39.421875 8.738281 39.710938 8.476562 C 40 8.21875 40.324219 8.023438 40.6875 7.882812 C 41.050781 7.746094 41.425781 7.675781 41.816406 7.671875 Z M 31.25 7.671875 C 31.636719 7.675781 32.015625 7.746094 32.375 7.882812 C 32.738281 8.023438 33.066406 8.21875 33.355469 8.476562 C 33.644531 8.738281 33.875 9.039062 34.054688 9.378906 C 34.230469 9.722656 34.339844 10.085938 34.382812 10.472656 L 28.113281 10.472656 C 28.15625 10.085938 28.265625 9.722656 28.445312 9.378906 C 28.621094 9.039062 28.855469 8.738281 29.144531 8.476562 C 29.433594 8.21875 29.757812 8.023438 30.121094 7.882812 C 30.484375 7.746094 30.859375 7.675781 31.25 7.671875 Z M 20.683594 7.671875 C 21.070312 7.675781 21.449219 7.746094 21.808594 7.882812 C 22.171875 8.023438 22.5 8.21875 22.789062 8.476562 C 23.078125 8.738281 23.308594 9.039062 23.488281 9.378906 C 23.664062 9.722656 23.773438 10.085938 23.816406 10.472656 L 17.546875 10.472656 C 17.589844 10.085938 17.699219 9.722656 17.878906 9.378906 C 18.054688 9.039062 18.289062 8.738281 18.578125 8.476562 C 18.867188 8.21875 19.191406 8.023438 19.554688 7.882812 C 19.917969 7.746094 20.292969 7.675781 20.683594 7.671875 Z M 10.117188 7.671875 C 10.503906 7.675781 10.882812 7.746094 11.246094 7.882812 C 11.605469 8.023438 11.933594 8.21875 12.222656 8.476562 C 12.511719 8.738281 12.746094 9.039062 12.921875 9.378906 C 13.097656 9.722656 13.210938 10.085938 13.25 10.472656 L 7.011719 10.472656 C 7.050781 10.089844 7.160156 9.726562 7.335938 9.386719 C 7.511719 9.046875 7.742188 8.746094 8.03125 8.488281 C 8.316406 8.230469 8.636719 8.03125 9 7.890625 C 9.359375 7.75 9.730469 7.679688 10.117188 7.671875 Z M 45.691406 67.125 L 6.945312 67.125 L 6.945312 65.726562 L 45.691406 65.726562 Z M 47.097656 64.328125 L 5.539062 64.328125 L 5.539062 62.929688 L 47.097656 62.929688 Z M 48.507812 61.53125 L 4.128906 61.53125 L 4.128906 11.871094 L 13.132812 11.871094 C 12.933594 12.441406 12.597656 12.917969 12.121094 13.296875 C 11.644531 13.675781 11.101562 13.898438 10.496094 13.96875 L 10.652344 15.367188 C 11.121094 15.316406 11.574219 15.191406 12.007812 15 C 12.4375 14.808594 12.832031 14.554688 13.183594 14.242188 C 13.539062 13.929688 13.835938 13.570312 14.078125 13.164062 C 14.316406 12.761719 14.492188 12.328125 14.597656 11.871094 L 23.699219 11.871094 C 23.5 12.441406 23.164062 12.917969 22.6875 13.296875 C 22.210938 13.675781 21.667969 13.898438 21.0625 13.96875 L 21.21875 15.367188 C 21.6875 15.316406 22.140625 15.191406 22.574219 15 C 23.003906 14.808594 23.398438 14.554688 23.75 14.242188 C 24.105469 13.929688 24.402344 13.570312 24.644531 13.164062 C 24.882812 12.761719 25.058594 12.328125 25.164062 11.871094 L 34.265625 11.871094 C 34.066406 12.441406 33.726562 12.917969 33.253906 13.296875 C 32.777344 13.675781 32.234375 13.898438 31.628906 13.96875 L 31.785156 15.367188 C 32.253906 15.316406 32.707031 15.191406 33.140625 15 C 33.570312 14.808594 33.964844 14.554688 34.316406 14.242188 C 34.671875 13.929688 34.96875 13.570312 35.210938 13.164062 C 35.449219 12.761719 35.625 12.328125 35.730469 11.871094 L 44.832031 11.871094 C 44.632812 12.441406 44.292969 12.917969 43.820312 13.296875 C 43.34375 13.675781 42.800781 13.898438 42.195312 13.96875 L 42.351562 15.367188 C 42.820312 15.316406 43.273438 15.191406 43.707031 15 C 44.136719 14.808594 44.53125 14.554688 44.882812 14.242188 C 45.238281 13.929688 45.535156 13.570312 45.777344 13.164062 C 46.015625 12.761719 46.191406 12.328125 46.296875 11.871094 L 48.535156 11.871094 L 48.535156 34.167969 L 41.421875 41.234375 L 6.269531 41.234375 L 6.269531 42.632812 L 40.011719 42.632812 L 37.589844 45.085938 L 35.390625 47.183594 L 35.277344 48.191406 L 6.269531 48.191406 L 6.269531 49.589844 L 35.152344 49.589844 L 34.925781 51.632812 L 33.574219 52.984375 L 34.566406 53.96875 L 35.882812 52.660156 L 40.40625 52.164062 L 42.519531 49.984375 L 48.515625 44.03125 Z M 38.554688 46.058594 L 39.554688 45.085938 L 42.519531 48.03125 L 41.527344 49.015625 Z M 40.546875 49.984375 L 39.703125 50.828125 L 36.34375 51.199219 L 36.738281 47.882812 L 37.589844 47.046875 Z M 40.546875 44.050781 L 41.546875 43.058594 L 44.535156 46.023438 L 43.535156 47.046875 Z M 45.527344 45.085938 L 42.519531 42.101562 L 61.96875 22.808594 L 63.460938 24.292969 L 64.957031 25.773438 Z M 65.957031 24.804688 L 64.460938 23.320312 L 62.949219 21.824219 L 65.441406 19.347656 L 68.429688 22.3125 Z M 67.449219 19.359375 L 69.441406 17.382812 L 70.4375 18.367188 L 68.441406 20.339844 Z M 67.449219 19.359375 " fill-opacity="1" fill-rule="nonzero"/></g></svg>