<svg xmlns="http://www.w3.org/2000/svg" xmlns:xlink="http://www.w3.org/1999/xlink" width="100" zoomAndPan="magnify" viewBox="0 0 75 74.999997" height="100" preserveAspectRatio="xMidYMid meet" version="1.0"><defs><clipPath id="a86216ef51"><path d="M 2.515625 12.222656 L 44 12.222656 L 44 25 L 2.515625 25 Z M 2.515625 12.222656 " clip-rule="nonzero"/></clipPath><clipPath id="88a93fd4d3"><path d="M 40.015625 14.359375 L 72.265625 14.359375 L 72.265625 26 L 40.015625 26 Z M 40.015625 14.359375 " clip-rule="nonzero"/></clipPath><clipPath id="8c1831c5f6"><path d="M 13.300781 23.027344 L 32.609375 23.027344 L 32.609375 62.421875 L 13.300781 62.421875 Z M 13.300781 23.027344 " clip-rule="nonzero"/></clipPath><clipPath id="5660506907"><path d="M 31.324219 24.628906 L 60.773438 24.628906 L 60.773438 62.421875 L 31.324219 62.421875 Z M 31.324219 24.628906 " clip-rule="nonzero"/></clipPath></defs><path fill="#000000" d="M 15.535156 24.003906 L 32.046875 31.957031 L 41.480469 29.546875 L 41.480469 17.371094 Z M 31.925781 33.148438 L 12.273438 23.679688 L 42.003906 16.078125 L 42.605469 16.117188 L 42.605469 30.417969 L 31.925781 33.148438 " fill-opacity="1" fill-rule="nonzero"/><path fill="#000000" d="M 42.605469 17.542969 L 42.605469 29.257812 L 58.492188 25.195312 Z M 41.480469 30.707031 L 41.433594 15.75 L 61.757812 25.523438 L 41.480469 30.707031 " fill-opacity="1" fill-rule="nonzero"/><path fill="#000000" d="M 32.792969 32.925781 L 37.609375 42.933594 L 65.554688 35.675781 L 59.855469 26.007812 Z M 36.996094 44.253906 L 31.179688 32.179688 L 60.046875 24.800781 L 60.46875 24.835938 L 67.28125 36.386719 L 36.996094 44.253906 " fill-opacity="1" fill-rule="nonzero"/><path fill="#000000" d="M 8.367188 33.125 L 25.882812 42.089844 L 31.199219 32.796875 L 14.101562 24.558594 Z M 26.328125 43.578125 L 6.730469 33.550781 L 13.648438 23.210938 L 13.667969 23.183594 L 14.050781 23.289062 L 32.773438 32.308594 L 26.328125 43.578125 " fill-opacity="1" fill-rule="nonzero"/><g clip-path="url(#a86216ef51)"><path fill="#000000" d="M 6.332031 20.519531 L 13.933594 23.253906 L 40.367188 16.496094 L 33.757812 13.460938 Z M 13.875 24.425781 L 2.515625 20.339844 L 33.867188 12.273438 L 43.71875 16.800781 L 13.875 24.425781 " fill-opacity="1" fill-rule="nonzero"/></g><g clip-path="url(#88a93fd4d3)"><path fill="#000000" d="M 43.929688 16.933594 L 60.214844 24.777344 L 68.507812 23.550781 L 52.289062 15.675781 Z M 60.035156 25.941406 L 40.15625 16.363281 L 52.464844 14.515625 L 72.273438 24.128906 L 60.035156 25.941406 " fill-opacity="1" fill-rule="nonzero"/></g><g clip-path="url(#8c1831c5f6)"><path fill="#000000" d="M 14.007812 23.269531 L 13.339844 23.121094 L 13.339844 25.691406 L 14.101562 24.558594 L 15.183594 25.078125 L 31.421875 32.90625 L 31.421875 60.914062 L 14.46875 52.367188 L 14.46875 36.246094 L 13.339844 35.671875 L 13.339844 53.054688 L 31.921875 62.421875 L 32.550781 62.074219 L 32.550781 32.199219 L 14.007812 23.269531 " fill-opacity="1" fill-rule="nonzero"/></g><g clip-path="url(#5660506907)"><path fill="#000000" d="M 59.5625 37.230469 L 59.5625 54.199219 L 32.550781 61.105469 L 32.550781 32.988281 L 58.71875 26.300781 L 59.855469 26.007812 L 60.6875 27.421875 L 60.6875 24.824219 L 60.214844 24.777344 L 31.421875 32.117188 L 31.421875 62.171875 L 31.921875 62.421875 L 60.6875 55.070312 L 60.6875 36.9375 L 59.5625 37.230469 " fill-opacity="1" fill-rule="nonzero"/></g></svg>