<svg xmlns="http://www.w3.org/2000/svg" xmlns:xlink="http://www.w3.org/1999/xlink" width="100" zoomAndPan="magnify" viewBox="0 0 75 74.999997" height="100" preserveAspectRatio="xMidYMid meet" version="1.0"><defs><clipPath id="64a3742457"><path d="M 0 11.296875 L 75 11.296875 L 75 63.796875 L 0 63.796875 Z M 0 11.296875 " clip-rule="nonzero"/></clipPath></defs><path fill="#000000" d="M 48.09375 18.976562 C 48.09375 18.976562 48.09375 18.972656 48.085938 18.972656 C 48.085938 18.976562 48.09375 18.984375 48.09375 18.988281 C 48.097656 18.984375 48.097656 18.984375 48.09375 18.976562 Z M 48.09375 18.976562 " fill-opacity="1" fill-rule="nonzero"/><g clip-path="url(#64a3742457)"><path fill="#000000" d="M 74.941406 32.484375 C 74.894531 31.652344 74.875 30.8125 74.796875 29.984375 C 74.8125 29.589844 74.675781 29.347656 74.496094 29.238281 C 74.25 28.71875 74.050781 28.164062 73.660156 27.734375 C 73.65625 27.726562 73.644531 27.722656 73.636719 27.71875 C 73.617188 27.695312 73.601562 27.667969 73.574219 27.652344 C 73.535156 27.585938 73.472656 27.523438 73.382812 27.46875 C 72.183594 26.953125 70.882812 26.667969 69.628906 26.320312 C 69.160156 26.175781 68.699219 26.027344 68.234375 25.886719 C 66.988281 25.460938 65.773438 24.933594 64.496094 24.601562 C 64.0625 24.449219 63.632812 24.296875 63.1875 24.183594 C 63.136719 24.160156 63.082031 24.144531 63.03125 24.140625 C 62.875 24.054688 62.667969 24.050781 62.476562 24.1875 C 62.292969 24.367188 62.09375 24.515625 61.882812 24.660156 C 61.585938 24.203125 61.140625 23.855469 60.761719 23.472656 C 60.582031 23.300781 60.414062 23.054688 60.175781 22.960938 C 60.136719 22.933594 60.09375 22.90625 60.039062 22.886719 C 59.585938 22.609375 59.066406 22.449219 58.554688 22.296875 C 57.328125 21.941406 56.136719 21.613281 54.910156 21.222656 C 54.046875 20.976562 53.207031 20.652344 52.34375 20.398438 C 51.972656 20.230469 51.585938 20.09375 51.191406 19.976562 C 50.953125 19.890625 50.679688 19.796875 50.425781 19.707031 C 50.25 19.65625 50.078125 19.554688 49.882812 19.582031 C 49.808594 19.585938 49.742188 19.613281 49.683594 19.648438 C 49.652344 19.660156 49.621094 19.675781 49.589844 19.691406 C 49.410156 19.800781 49.234375 19.917969 49.054688 20.027344 C 49.046875 20.015625 49.039062 20 49.03125 19.992188 C 48.863281 19.71875 48.601562 19.523438 48.386719 19.292969 C 48.28125 19.214844 48.195312 19.097656 48.109375 19.003906 C 48.109375 19 48.101562 19 48.101562 18.992188 C 48.101562 19 48.101562 19 48.109375 19.003906 C 48.101562 18.992188 48.097656 18.984375 48.09375 18.972656 C 48.09375 18.976562 48.097656 18.976562 48.097656 18.984375 C 47.933594 18.605469 47.449219 18.542969 47.101562 18.386719 C 46.671875 18.234375 46.253906 18.058594 45.820312 17.929688 C 44.519531 17.394531 43.1875 16.925781 41.863281 16.445312 C 41.125 16.191406 40.402344 15.910156 39.652344 15.710938 C 39.089844 15.5 38.53125 15.28125 37.929688 15.238281 C 37.894531 15.238281 37.855469 15.238281 37.824219 15.242188 C 37.53125 15.195312 37.328125 15.425781 37.101562 15.574219 C 36.980469 15.652344 36.859375 15.730469 36.734375 15.816406 C 36.4375 15.421875 36.039062 15.082031 35.828125 14.628906 C 35.824219 14.371094 35.644531 14.109375 35.238281 14.058594 C 33.808594 13.757812 32.449219 13.234375 31.042969 12.839844 C 29.683594 12.417969 28.273438 12.105469 26.964844 11.507812 C 26.746094 11.414062 26.527344 11.320312 26.285156 11.308594 C 26.105469 11.308594 25.945312 11.402344 25.851562 11.539062 C 25.207031 11.871094 24.558594 12.203125 23.976562 12.636719 C 23.144531 13.183594 22.261719 13.636719 21.410156 14.148438 C 20.042969 14.957031 18.667969 15.742188 17.273438 16.496094 C 17.042969 16.628906 16.738281 16.695312 16.550781 16.878906 C 16.386719 16.9375 16.277344 17.0625 16.230469 17.214844 C 16.054688 17.410156 15.894531 17.628906 15.71875 17.820312 C 15.582031 18.003906 15.378906 18.1875 15.261719 18.394531 C 15.191406 18.378906 15.117188 18.363281 15.042969 18.347656 C 14.984375 18.339844 14.929688 18.328125 14.875 18.3125 C 14.765625 18.160156 14.578125 18.058594 14.378906 18.09375 C 14.398438 18.09375 14.417969 18.085938 14.441406 18.085938 C 14.046875 18.117188 13.746094 18.425781 13.386719 18.578125 C 10.980469 19.6875 8.769531 21.171875 6.582031 22.65625 C 6 23.027344 5.441406 23.433594 4.875 23.824219 C 4.691406 23.957031 4.441406 24.097656 4.277344 24.28125 C 4.230469 24.3125 4.1875 24.359375 4.148438 24.414062 C 3.84375 24.765625 3.558594 25.132812 3.304688 25.519531 C 3.21875 25.628906 3.117188 25.738281 3.050781 25.867188 C 2.804688 25.964844 2.65625 26.269531 2.695312 26.570312 C 2.671875 27.15625 2.625 27.738281 2.582031 28.324219 C 2.601562 28.644531 2.507812 29.007812 2.628906 29.3125 C 2.617188 29.480469 2.691406 29.652344 2.832031 29.761719 C 3.527344 29.988281 4.246094 30.214844 4.964844 30.433594 C 4.886719 30.8125 4.828125 31.191406 4.800781 31.574219 C 4.738281 32.34375 4.585938 33.109375 4.449219 33.871094 C 4.410156 34.085938 4.363281 34.300781 4.3125 34.519531 C 4.277344 34.53125 4.242188 34.546875 4.210938 34.566406 C 4.046875 34.671875 3.917969 34.820312 3.765625 34.941406 C 3.355469 35.296875 2.933594 35.664062 2.507812 36.003906 C 2.371094 36.121094 2.234375 36.234375 2.105469 36.355469 C 2.003906 36.449219 1.875 36.550781 1.796875 36.671875 C 1.738281 36.71875 1.679688 36.777344 1.628906 36.847656 C 1.445312 37.101562 1.304688 37.378906 1.066406 37.589844 C 0.933594 37.761719 0.722656 37.925781 0.597656 38.117188 C 0.472656 38.179688 0.367188 38.292969 0.324219 38.4375 C 0.277344 38.859375 0.203125 39.273438 0.152344 39.691406 C 0.109375 40.03125 0.0585938 40.375 0.0625 40.71875 C 0.0117188 40.898438 0 41.085938 0.0429688 41.238281 C 0.0429688 41.78125 0.800781 41.851562 1.203125 42.058594 C 1.84375 42.308594 2.472656 42.523438 3.125 42.730469 C 3.101562 43.050781 3.085938 43.371094 3.101562 43.6875 C 3.105469 43.703125 3.109375 43.71875 3.117188 43.738281 C 3.121094 43.9375 3.226562 44.136719 3.433594 44.214844 C 3.464844 44.222656 3.496094 44.230469 3.527344 44.238281 C 3.550781 44.351562 3.582031 44.453125 3.597656 44.558594 C 3.742188 45.121094 3.828125 45.691406 3.957031 46.253906 C 4.214844 47.742188 4.464844 49.226562 4.765625 50.707031 C 5.246094 53.578125 5.964844 56.398438 6.726562 59.203125 C 6.980469 60.179688 7.285156 61.140625 7.601562 62.09375 C 7.722656 62.339844 7.777344 62.796875 7.902344 63.15625 C 7.890625 63.207031 7.886719 63.265625 7.886719 63.328125 C 7.941406 63.699219 8.195312 63.785156 8.488281 63.785156 C 8.660156 63.785156 8.847656 63.753906 9.011719 63.738281 C 9.515625 63.722656 10.015625 63.683594 10.515625 63.632812 C 12.320312 63.410156 14.136719 63.269531 15.9375 63.042969 C 17.367188 62.683594 18.84375 62.78125 20.300781 62.578125 C 23.132812 62.261719 25.96875 61.96875 28.78125 61.488281 C 30.238281 61.265625 31.703125 61.125 33.179688 61.125 C 34.320312 61.082031 35.453125 60.921875 36.589844 60.820312 C 39.742188 60.457031 42.902344 60.089844 46.019531 59.46875 C 47.203125 59.179688 48.421875 59.117188 49.601562 58.8125 C 54.445312 57.992188 59.40625 58.070312 64.21875 57.042969 C 65.375 56.71875 66.570312 56.625 67.757812 56.484375 C 67.890625 56.503906 68.003906 56.484375 68.09375 56.433594 C 68.242188 56.445312 68.390625 56.394531 68.519531 56.308594 C 68.765625 56.148438 68.753906 55.832031 68.726562 55.570312 C 68.710938 54.789062 68.558594 54.046875 68.429688 53.273438 C 68.398438 53.058594 68.371094 52.835938 68.34375 52.621094 C 68.367188 52.523438 68.359375 52.421875 68.324219 52.332031 C 68.335938 52.285156 68.335938 52.238281 68.324219 52.1875 C 68.304688 52.125 68.28125 52.0625 68.265625 51.996094 C 68.25 51.964844 68.230469 51.941406 68.207031 51.914062 C 68.214844 51.917969 68.21875 51.925781 68.226562 51.929688 C 68.234375 51.945312 68.246094 51.964844 68.261719 51.980469 C 68.261719 51.988281 68.265625 51.988281 68.265625 51.992188 C 68.035156 51.253906 67.78125 50.511719 67.445312 49.804688 C 67.175781 49.171875 66.921875 48.421875 66.679688 47.757812 C 66.359375 46.878906 65.929688 46.035156 65.613281 45.152344 C 65.574219 44.988281 65.492188 44.875 65.382812 44.804688 C 65.40625 44.355469 65.4375 43.910156 65.484375 43.464844 C 65.511719 42.886719 65.632812 42.320312 65.636719 41.742188 C 65.648438 41.582031 65.644531 41.414062 65.648438 41.25 C 65.648438 41.1875 65.636719 41.132812 65.621094 41.082031 C 66.570312 40.238281 67.527344 39.402344 68.492188 38.582031 C 69.984375 37.285156 71.570312 36.097656 73.03125 34.761719 C 73.296875 34.460938 74.585938 33.445312 74.847656 32.960938 C 74.949219 32.835938 75 32.667969 74.941406 32.484375 Z M 73.113281 28.769531 C 73.242188 29.007812 73.339844 29.257812 73.460938 29.496094 C 73.371094 29.578125 73.277344 29.667969 73.183594 29.742188 C 72.675781 30.160156 72.109375 30.507812 71.558594 30.871094 C 70.066406 31.84375 68.765625 33.089844 67.398438 34.230469 C 66.707031 34.824219 66.058594 35.464844 65.3125 35.996094 C 65.25 35.5625 65.253906 35.125 65.097656 34.710938 C 65.09375 34.695312 65.09375 34.675781 65.089844 34.667969 C 65.339844 34.460938 65.597656 34.273438 65.847656 34.078125 C 66.710938 33.425781 67.503906 32.675781 68.386719 32.039062 C 68.738281 31.8125 69.066406 31.566406 69.382812 31.300781 C 70.257812 30.582031 71.261719 30.054688 72.210938 29.449219 C 72.519531 29.21875 72.8125 28.992188 73.113281 28.769531 Z M 62.679688 25.367188 C 62.757812 25.308594 62.835938 25.257812 62.910156 25.195312 C 62.957031 25.210938 63.003906 25.21875 63.050781 25.230469 C 63.382812 25.308594 63.699219 25.429688 64.019531 25.535156 C 65 25.824219 65.972656 26.148438 66.925781 26.519531 C 67.832031 26.871094 68.765625 27.144531 69.695312 27.417969 C 70.539062 27.632812 71.382812 27.851562 72.210938 28.136719 C 71.835938 28.386719 71.503906 28.691406 71.097656 28.898438 C 70.003906 29.503906 69.011719 30.25 68.019531 31.015625 C 67.414062 31.40625 66.875 31.886719 66.320312 32.34375 C 65.910156 32.683594 65.492188 33.019531 65.066406 33.351562 C 64.882812 33.527344 64.574219 33.707031 64.324219 33.910156 C 63.414062 33.570312 62.4375 33.359375 61.53125 32.992188 C 59.402344 32.21875 57.375 31.171875 55.21875 30.472656 C 55.636719 30.144531 56.109375 29.890625 56.53125 29.5625 C 58.574219 28.152344 60.675781 26.832031 62.679688 25.367188 Z M 54.683594 43.296875 C 54.710938 43.269531 54.730469 43.25 54.757812 43.222656 C 55.101562 42.886719 55.445312 42.546875 55.804688 42.226562 C 57.078125 41.21875 58.308594 40.136719 59.601562 39.140625 C 60.695312 38.34375 61.746094 37.484375 62.8125 36.648438 C 63.214844 36.769531 63.621094 36.886719 64.019531 37.023438 C 63.449219 37.496094 62.882812 37.964844 62.28125 38.398438 C 61.832031 38.730469 61.339844 39.011719 60.90625 39.367188 C 60.300781 39.871094 59.816406 40.496094 59.234375 41.023438 C 58.09375 42.015625 56.867188 42.90625 55.621094 43.761719 C 55.3125 43.972656 55.007812 44.199219 54.714844 44.421875 C 54.710938 44.070312 54.800781 43.605469 54.683594 43.296875 Z M 63.4375 45.683594 C 63.683594 45.675781 63.925781 45.675781 64.167969 45.722656 C 64.203125 45.734375 64.238281 45.738281 64.273438 45.746094 C 64.234375 46.425781 64.167969 47.09375 64.136719 47.78125 C 64.125 47.917969 64.121094 48.054688 64.113281 48.195312 C 64.097656 48.195312 64.082031 48.195312 64.066406 48.195312 C 63.433594 48.140625 62.800781 48.148438 62.167969 48.117188 C 61.890625 48.105469 61.617188 48.105469 61.339844 48.105469 C 60.941406 48.105469 60.542969 48.109375 60.144531 48.117188 C 59.601562 48.125 59.054688 48.132812 58.511719 48.125 C 58.261719 48.136719 58.015625 48.117188 57.761719 48.09375 C 58.050781 47.828125 58.339844 47.566406 58.628906 47.296875 C 59.296875 46.699219 59.96875 46.105469 60.644531 45.515625 C 60.792969 45.578125 60.972656 45.566406 61.136719 45.554688 C 61.90625 45.59375 62.675781 45.605469 63.4375 45.683594 Z M 61.777344 44.527344 C 62.140625 44.21875 62.496094 43.910156 62.859375 43.601562 C 62.910156 43.554688 62.960938 43.503906 63.015625 43.453125 C 63.214844 43.835938 63.371094 44.246094 63.554688 44.632812 C 63.515625 44.632812 63.476562 44.632812 63.4375 44.628906 C 62.90625 44.550781 62.355469 44.574219 61.820312 44.523438 C 61.804688 44.527344 61.789062 44.527344 61.777344 44.527344 Z M 57.414062 54.503906 C 57.40625 54.410156 57.402344 54.328125 57.40625 54.257812 C 57.40625 53.78125 57.449219 53.308594 57.433594 52.832031 C 57.417969 52.375 57.347656 51.917969 57.300781 51.460938 C 57.300781 51.425781 57.300781 51.394531 57.296875 51.363281 C 57.390625 51.246094 57.480469 51.121094 57.574219 51.027344 C 58.113281 50.488281 58.753906 49.890625 59.25 49.285156 C 59.285156 49.242188 59.3125 49.203125 59.339844 49.164062 C 59.824219 49.148438 60.308594 49.144531 60.789062 49.144531 C 61.328125 49.144531 61.875 49.148438 62.414062 49.164062 C 62.128906 49.460938 61.828125 49.738281 61.53125 50.019531 C 60.925781 50.648438 60.355469 51.3125 59.730469 51.917969 C 58.96875 52.691406 58.277344 53.535156 57.558594 54.347656 C 57.511719 54.40625 57.464844 54.457031 57.414062 54.503906 Z M 57.453125 55.804688 C 57.445312 55.890625 57.414062 55.980469 57.359375 56.046875 C 57.414062 55.980469 57.445312 55.894531 57.453125 55.804688 Z M 61.175781 51.949219 C 61.296875 51.824219 61.417969 51.699219 61.53125 51.574219 C 61.945312 51.683594 62.566406 51.4375 62.9375 51.390625 C 63.359375 51.3125 63.785156 51.238281 64.207031 51.144531 C 64.507812 51.0625 64.78125 51 65.089844 50.960938 C 65.199219 50.945312 65.3125 50.9375 65.421875 50.910156 C 65.480469 50.980469 65.539062 51.046875 65.589844 51.121094 C 65.910156 51.503906 66.261719 51.855469 66.589844 52.230469 C 64.746094 52.5 62.882812 52.628906 61.035156 52.875 C 60.746094 52.914062 60.464844 52.953125 60.175781 52.988281 C 60.507812 52.636719 60.851562 52.308594 61.175781 51.949219 Z M 63.601562 50.199219 C 63.367188 50.21875 63.140625 50.277344 62.910156 50.328125 C 62.84375 50.339844 62.773438 50.351562 62.707031 50.359375 C 63.058594 50.03125 63.386719 49.679688 63.695312 49.308594 C 63.722656 49.277344 63.742188 49.242188 63.761719 49.210938 C 63.992188 49.222656 64.222656 49.234375 64.453125 49.242188 L 64.449219 49.242188 C 64.46875 49.25 64.492188 49.25 64.511719 49.25 C 64.574219 49.417969 64.644531 49.585938 64.695312 49.753906 C 64.722656 49.808594 64.742188 49.878906 64.765625 49.941406 C 64.371094 50.015625 63.988281 50.125 63.601562 50.199219 Z M 64.476562 42.839844 C 64.445312 43.207031 64.414062 43.570312 64.382812 43.9375 C 64.203125 43.53125 64.035156 43.117188 63.816406 42.738281 C 63.8125 42.734375 63.8125 42.730469 63.804688 42.71875 C 64.058594 42.488281 64.308594 42.257812 64.558594 42.027344 C 64.542969 42.300781 64.519531 42.566406 64.476562 42.839844 Z M 57.976562 49.15625 C 57.578125 49.574219 57.15625 49.96875 56.757812 50.382812 C 56.707031 50.441406 56.664062 50.480469 56.585938 50.582031 C 56.355469 50.539062 56.125 50.503906 55.894531 50.457031 C 55.683594 50.394531 55.46875 50.34375 55.253906 50.296875 C 55.398438 50.171875 55.546875 50.046875 55.695312 49.929688 C 56.0625 49.621094 56.421875 49.308594 56.777344 48.988281 C 56.875 49.039062 56.984375 49.066406 57.09375 49.074219 C 57.386719 49.109375 57.679688 49.132812 57.976562 49.15625 Z M 56.25 51.589844 C 56.253906 51.625 56.261719 51.667969 56.269531 51.703125 C 56.316406 52.101562 56.363281 52.507812 56.386719 52.910156 C 56.390625 53.398438 56.34375 53.886719 56.363281 54.375 C 56.375 54.699219 56.414062 55.023438 56.433594 55.355469 C 55.476562 55.234375 54.515625 55.050781 53.578125 54.816406 C 51.101562 54.289062 48.679688 53.570312 46.191406 53.066406 C 46.195312 53.066406 46.203125 53.066406 46.207031 53.074219 C 43.484375 52.523438 40.847656 51.566406 38.164062 50.84375 C 35.609375 50.144531 32.957031 49.867188 30.441406 49.019531 C 27.636719 48.269531 24.765625 47.796875 21.960938 47.058594 C 20.777344 46.789062 19.621094 46.4375 18.46875 46.070312 C 17.261719 45.75 16.078125 45.363281 14.917969 44.925781 C 15.140625 44.941406 15.367188 44.964844 15.59375 44.984375 C 17.617188 45.15625 19.621094 45.425781 21.644531 45.613281 C 23.46875 45.84375 25.289062 46.171875 27.132812 46.160156 C 28.394531 46.265625 29.636719 46.578125 30.917969 46.722656 C 32.113281 46.851562 33.3125 46.792969 34.503906 46.785156 C 34.589844 46.890625 34.726562 46.96875 34.914062 46.988281 C 35.097656 47.078125 35.300781 47.09375 35.5 47.121094 C 35.734375 47.199219 35.976562 47.273438 36.226562 47.292969 C 36.488281 47.371094 36.761719 47.425781 37.027344 47.457031 C 37.074219 47.472656 37.121094 47.492188 37.164062 47.507812 C 37.417969 47.570312 37.667969 47.632812 37.914062 47.71875 C 38.609375 47.878906 39.316406 48.027344 40.023438 48.136719 C 40.222656 48.472656 40.453125 48.789062 40.683594 49.101562 C 40.847656 49.324219 40.988281 49.570312 41.195312 49.746094 C 41.289062 49.875 41.433594 49.957031 41.59375 49.957031 C 41.730469 49.957031 41.863281 49.914062 41.964844 49.820312 C 42.417969 49.585938 42.839844 49.3125 43.265625 49.035156 C 43.339844 49.042969 43.417969 49.058594 43.484375 49.082031 C 44.765625 49.453125 46.078125 49.699219 47.394531 49.898438 C 48 49.992188 48.589844 50.171875 49.195312 50.226562 C 50.480469 50.261719 51.730469 50.460938 53 50.632812 C 53.050781 50.648438 53.101562 50.65625 53.148438 50.65625 C 53.453125 50.765625 53.761719 50.875 54.070312 50.976562 C 54.109375 50.980469 54.140625 50.984375 54.175781 50.980469 C 54.234375 51.058594 54.324219 51.128906 54.445312 51.164062 C 54.609375 51.199219 54.769531 51.257812 54.9375 51.289062 C 55.378906 51.40625 55.816406 51.5 56.25 51.589844 Z M 49.015625 54.863281 C 49.007812 54.863281 49.007812 54.863281 49.003906 54.863281 C 48.964844 54.855469 48.929688 54.855469 48.894531 54.847656 C 48.933594 54.855469 48.976562 54.863281 49.015625 54.863281 Z M 40.46875 54.28125 L 40.46875 53.414062 C 40.65625 53.371094 40.847656 53.296875 41.007812 53.257812 C 41.234375 53.214844 41.457031 53.164062 41.683594 53.113281 C 41.71875 53.109375 41.757812 53.097656 41.789062 53.089844 L 42.976562 53.089844 C 42.976562 53.089844 42.976562 53.089844 42.980469 53.089844 C 43.042969 53.109375 43.113281 53.125 43.175781 53.148438 C 44.085938 53.394531 44.996094 53.59375 45.914062 53.785156 C 43.992188 53.929688 42.074219 54.117188 40.164062 54.375 C 40.050781 54.390625 39.933594 54.398438 39.820312 54.417969 C 40.234375 54.609375 40.355469 54.449219 40.46875 54.28125 Z M 9.445312 46.375 C 9.90625 46.273438 10.371094 46.1875 10.824219 46.042969 C 11.273438 45.902344 11.8125 45.808594 12.277344 45.652344 C 12.519531 45.5625 12.792969 45.539062 13.027344 45.4375 C 13.316406 45.53125 13.601562 45.613281 13.886719 45.707031 C 14.824219 45.9375 15.6875 46.390625 16.625 46.617188 C 17.878906 46.992188 19.132812 47.402344 20.398438 47.742188 C 20.457031 48.054688 20.609375 48.347656 20.703125 48.644531 C 20.796875 48.980469 20.898438 49.316406 20.992188 49.652344 C 21.273438 50.640625 21.5 51.640625 21.8125 52.621094 C 21.929688 53.035156 22.039062 53.457031 22.152344 53.871094 C 22.132812 53.871094 22.113281 53.875 22.089844 53.875 C 21.253906 53.953125 20.421875 54.074219 19.582031 54.183594 C 18.183594 54.347656 16.777344 54.410156 15.367188 54.511719 C 13.785156 54.640625 12.179688 54.664062 10.617188 54.980469 C 10.601562 54.929688 10.585938 54.878906 10.578125 54.820312 C 10.445312 54.328125 10.285156 53.847656 10.164062 53.355469 C 9.503906 51.109375 8.96875 48.835938 8.355469 46.585938 C 8.722656 46.546875 9.089844 46.464844 9.445312 46.375 Z M 7.894531 45.566406 C 7.871094 45.566406 7.84375 45.566406 7.816406 45.566406 C 7.675781 45.566406 7.523438 45.566406 7.402344 45.640625 C 7.378906 45.65625 7.351562 45.671875 7.332031 45.6875 C 7.132812 45.722656 6.964844 45.855469 6.8125 46.011719 C 6.894531 45.78125 6.984375 45.550781 7.078125 45.269531 C 7.148438 45.078125 7.203125 44.886719 7.273438 44.695312 C 7.292969 44.648438 7.324219 44.601562 7.347656 44.554688 C 7.351562 44.554688 7.363281 44.554688 7.367188 44.554688 C 8.679688 44.628906 10.007812 44.570312 11.316406 44.707031 C 11.347656 44.742188 11.386719 44.773438 11.425781 44.800781 C 11.339844 44.820312 11.257812 44.84375 11.179688 44.863281 C 10.308594 45.109375 9.398438 45.332031 8.496094 45.515625 C 8.292969 45.539062 8.09375 45.554688 7.894531 45.566406 Z M 20.984375 48.058594 C 21.027344 48.046875 21.070312 48.039062 21.113281 48.023438 C 21.105469 48.027344 21.101562 48.027344 21.097656 48.027344 C 21.074219 48.03125 21.054688 48.042969 21.027344 48.046875 C 21.011719 48.054688 21 48.058594 20.984375 48.058594 Z M 9.71875 57.273438 C 9.933594 56.882812 10.1875 56.507812 10.386719 56.109375 C 11.347656 55.890625 12.332031 55.769531 13.320312 55.722656 C 14.453125 55.605469 15.59375 55.558594 16.730469 55.476562 C 18.609375 55.402344 20.46875 55.113281 22.335938 54.910156 C 22.363281 54.902344 22.390625 54.898438 22.414062 54.898438 C 22.589844 55.207031 22.960938 55.527344 23.144531 55.78125 C 23.308594 55.984375 23.472656 56.1875 23.628906 56.402344 C 23.667969 56.460938 23.707031 56.515625 23.746094 56.570312 C 22.492188 56.703125 21.238281 56.84375 19.980469 56.945312 C 18.980469 56.96875 17.980469 56.960938 16.980469 56.902344 C 16.214844 56.859375 15.445312 56.8125 14.683594 56.917969 C 13.5 57.089844 12.316406 57.226562 11.121094 57.300781 C 10.632812 57.347656 10.148438 57.359375 9.660156 57.382812 C 9.675781 57.34375 9.695312 57.304688 9.71875 57.273438 Z M 23.398438 54.472656 C 23.390625 54.410156 23.367188 54.359375 23.34375 54.3125 C 23.332031 54.28125 23.320312 54.242188 23.304688 54.210938 C 23.160156 53.457031 22.914062 52.714844 22.714844 51.972656 C 22.316406 50.675781 22.054688 49.339844 21.605469 48.058594 C 22.195312 48.210938 22.796875 48.351562 23.394531 48.488281 C 23.460938 48.792969 23.636719 49.113281 23.714844 49.378906 C 24.027344 50.308594 24.316406 51.246094 24.558594 52.203125 C 24.75 52.910156 24.890625 53.640625 25.113281 54.335938 C 25.070312 54.421875 25.039062 54.503906 25 54.589844 C 24.855469 54.933594 24.667969 55.253906 24.5 55.585938 C 24.484375 55.632812 24.460938 55.679688 24.4375 55.734375 C 24.105469 55.292969 23.75 54.882812 23.398438 54.472656 Z M 24.980469 49.863281 C 24.84375 49.496094 24.722656 49.125 24.59375 48.75 C 25.667969 48.980469 26.738281 49.210938 27.808594 49.464844 C 29.207031 49.722656 30.5625 50.15625 31.929688 50.535156 C 33.007812 50.828125 34.113281 51.023438 35.207031 51.230469 C 35.59375 51.304688 35.976562 51.390625 36.359375 51.472656 C 36.375 51.605469 36.4375 51.730469 36.488281 51.871094 C 36.535156 52.175781 36.597656 52.476562 36.699219 52.769531 C 36.566406 52.800781 36.4375 52.832031 36.304688 52.84375 C 36.316406 52.84375 36.320312 52.835938 36.332031 52.835938 C 33.964844 53.199219 31.574219 53.371094 29.191406 53.582031 C 28.660156 53.617188 28.136719 53.644531 27.609375 53.6875 C 27.089844 53.71875 26.558594 53.714844 26.042969 53.800781 C 25.703125 52.492188 25.378906 51.164062 24.980469 49.863281 Z M 25.3125 56.304688 C 25.53125 55.832031 25.796875 55.386719 26 54.910156 C 26.027344 54.898438 26.054688 54.882812 26.082031 54.871094 C 26.976562 54.742188 27.882812 54.757812 28.78125 54.667969 C 31.542969 54.449219 34.3125 54.257812 37.039062 53.78125 C 37.144531 53.976562 37.320312 54.128906 37.457031 54.296875 C 37.5625 54.425781 37.65625 54.5625 37.765625 54.695312 C 37.886719 54.832031 38.023438 54.945312 38.15625 55.070312 C 37.363281 55.199219 36.578125 55.324219 35.78125 55.40625 C 33.027344 55.757812 30.257812 55.996094 27.5 56.292969 C 26.746094 56.316406 25.996094 56.363281 25.246094 56.429688 C 25.269531 56.382812 25.289062 56.339844 25.3125 56.304688 Z M 37.976562 53.289062 C 37.964844 53.015625 37.796875 52.726562 37.703125 52.480469 C 37.613281 52.261719 37.589844 52.007812 37.542969 51.765625 C 38.207031 51.941406 38.863281 52.125 39.519531 52.316406 C 39.542969 52.429688 39.578125 52.546875 39.617188 52.664062 C 39.679688 52.9375 39.636719 53.289062 39.667969 53.597656 C 39.652344 53.617188 39.636719 53.644531 39.625 53.664062 C 39.464844 53.875 39.289062 54.085938 39.132812 54.300781 C 39.101562 54.351562 39.058594 54.398438 39.019531 54.449219 C 38.777344 54.199219 38.503906 53.976562 38.316406 53.679688 C 38.210938 53.546875 38.082031 53.425781 37.976562 53.289062 Z M 44.609375 46.992188 C 45.910156 47.566406 47.21875 48.125 48.542969 48.640625 C 48.941406 48.828125 49.34375 49.023438 49.742188 49.207031 C 49.578125 49.195312 49.417969 49.191406 49.261719 49.179688 C 48.785156 49.140625 48.316406 48.996094 47.847656 48.925781 C 46.726562 48.726562 45.59375 48.566406 44.496094 48.277344 C 44.269531 48.222656 44.046875 48.148438 43.816406 48.089844 C 44.085938 47.726562 44.378906 47.382812 44.609375 46.992188 Z M 42.683594 47.90625 C 42.632812 48.007812 42.609375 48.105469 42.617188 48.210938 C 42.605469 48.214844 42.59375 48.226562 42.585938 48.230469 C 42.332031 48.394531 42.09375 48.574219 41.824219 48.703125 C 41.792969 48.726562 41.761719 48.746094 41.730469 48.761719 C 41.511719 48.457031 41.285156 48.148438 41.082031 47.832031 C 41.113281 47.769531 41.140625 47.703125 41.140625 47.625 C 41.328125 47.328125 41.578125 47.078125 41.78125 46.800781 C 42.359375 46.792969 42.933594 46.789062 43.511719 46.761719 C 43.234375 47.144531 42.914062 47.503906 42.683594 47.90625 Z M 40.625 47.074219 C 40.683594 47.074219 40.746094 47.089844 40.796875 47.109375 C 40.746094 47.082031 40.683594 47.074219 40.625 47.074219 Z M 40.210938 47.109375 C 40.085938 47.089844 39.960938 47.078125 39.839844 47.058594 C 39.636719 47.023438 39.542969 46.984375 39.304688 46.945312 C 39.289062 46.941406 39.273438 46.941406 39.265625 46.9375 C 39.636719 46.921875 40.003906 46.898438 40.375 46.875 C 40.3125 46.953125 40.257812 47.03125 40.210938 47.109375 Z M 17.46875 30.199219 C 17.550781 30.089844 17.660156 30.003906 17.765625 29.914062 C 19.289062 30.542969 20.808594 31.152344 22.332031 31.796875 C 23.042969 32.097656 23.769531 32.347656 24.488281 32.632812 C 25.296875 32.894531 26.101562 33.1875 26.917969 33.417969 C 26.984375 33.949219 27.164062 34.472656 27.34375 34.972656 C 27.34375 34.972656 27.34375 34.976562 27.34375 34.976562 C 25.78125 34.40625 24.230469 33.8125 22.703125 33.160156 C 20.859375 32.390625 19.179688 31.453125 17.339844 30.644531 C 17.285156 30.617188 17.226562 30.589844 17.164062 30.570312 C 17.261719 30.4375 17.355469 30.308594 17.46875 30.199219 Z M 16.871094 29.304688 C 16.648438 29.523438 16.460938 29.761719 16.269531 30 C 16.253906 30.015625 16.238281 30.03125 16.226562 30.046875 C 16.191406 29.953125 16.148438 29.855469 16.117188 29.769531 C 15.933594 29.425781 15.78125 29.074219 15.648438 28.714844 C 15.929688 28.503906 16.214844 28.304688 16.488281 28.089844 C 17.484375 27.265625 18.570312 26.578125 19.625 25.828125 C 20.613281 25.152344 21.5625 24.414062 22.570312 23.761719 C 23.199219 23.367188 23.820312 22.964844 24.453125 22.582031 C 24.5 22.675781 24.550781 22.769531 24.605469 22.863281 C 24.703125 23.105469 24.84375 23.328125 24.96875 23.558594 C 24.546875 23.878906 24.128906 24.207031 23.699219 24.511719 C 22.039062 25.785156 20.367188 27.054688 18.585938 28.152344 C 18.257812 28.378906 17.917969 28.582031 17.578125 28.78125 C 17.535156 28.789062 17.492188 28.796875 17.445312 28.8125 C 17.347656 28.851562 17.269531 28.917969 17.214844 28.996094 C 17.089844 29.085938 16.976562 29.207031 16.871094 29.304688 Z M 24.625 31.566406 C 23.707031 31.207031 22.785156 30.863281 21.882812 30.472656 C 20.867188 30.082031 19.871094 29.609375 18.847656 29.226562 C 19.898438 28.578125 20.933594 27.90625 21.917969 27.167969 C 23.039062 26.335938 24.144531 25.484375 25.261719 24.660156 C 25.667969 24.351562 26.050781 24.019531 26.472656 23.746094 C 26.699219 23.59375 26.933594 23.46875 27.148438 23.3125 C 27.214844 23.332031 27.285156 23.359375 27.347656 23.378906 C 28.628906 23.839844 29.867188 24.417969 31.132812 24.917969 C 31.949219 25.195312 32.75 25.515625 33.550781 25.835938 C 34.28125 26.105469 35.007812 26.386719 35.730469 26.679688 C 35.488281 26.851562 35.25 27.023438 35.007812 27.191406 C 32.929688 28.667969 30.882812 30.183594 28.765625 31.597656 C 28.34375 31.886719 27.902344 32.148438 27.488281 32.449219 C 27.472656 32.457031 27.457031 32.46875 27.4375 32.480469 C 26.492188 32.207031 25.558594 31.886719 24.625 31.566406 Z M 38.285156 26.253906 C 38.359375 26.648438 38.386719 27.050781 38.527344 27.429688 C 38.535156 27.496094 38.550781 27.554688 38.578125 27.605469 C 38.511719 27.660156 38.4375 27.710938 38.363281 27.765625 C 38.359375 27.765625 38.359375 27.769531 38.351562 27.769531 C 38.097656 27.308594 37.878906 26.820312 37.519531 26.433594 C 37.332031 26.101562 36.851562 26.050781 36.535156 25.875 C 35.789062 25.5625 35.027344 25.265625 34.265625 24.984375 C 33.273438 24.597656 32.285156 24.214844 31.285156 23.851562 C 30.34375 23.464844 29.414062 23.054688 28.46875 22.679688 C 28.671875 22.488281 28.960938 22.265625 29.144531 22.03125 C 29.300781 22.074219 29.445312 22.136719 29.597656 22.1875 C 31.328125 23.023438 33.132812 23.648438 34.949219 24.265625 C 36.042969 24.613281 37.117188 25.035156 38.207031 25.410156 C 38.160156 25.488281 38.132812 25.578125 38.140625 25.675781 C 38.15625 25.875 38.25 26.054688 38.285156 26.253906 Z M 28.457031 33.050781 C 29.101562 32.648438 29.71875 32.210938 30.34375 31.78125 C 32.449219 30.382812 34.453125 28.84375 36.527344 27.398438 C 36.609375 27.328125 36.710938 27.265625 36.808594 27.199219 C 36.84375 27.234375 36.875 27.277344 36.910156 27.320312 C 37.074219 27.542969 37.28125 28.027344 37.496094 28.355469 C 36.773438 28.851562 36.050781 29.347656 35.300781 29.804688 C 34.164062 30.472656 33.089844 31.222656 31.996094 31.949219 C 31.132812 32.511719 30.265625 33.066406 29.453125 33.703125 C 29.425781 33.71875 29.40625 33.734375 29.382812 33.753906 C 29.019531 34.03125 28.683594 34.359375 28.351562 34.683594 C 28.316406 34.574219 28.28125 34.460938 28.242188 34.375 C 28.128906 34.058594 28.039062 33.738281 27.984375 33.410156 C 28.136719 33.292969 28.289062 33.144531 28.457031 33.050781 Z M 29.144531 35.359375 C 29.378906 35.128906 29.621094 34.902344 29.871094 34.695312 C 30.050781 34.734375 30.226562 34.792969 30.398438 34.851562 C 31.222656 35.070312 32.027344 35.402344 32.835938 35.699219 C 33.640625 35.953125 34.390625 36.351562 35.1875 36.640625 C 36.65625 37.222656 38.144531 37.75 39.625 38.308594 C 39.671875 38.496094 39.761719 38.679688 39.789062 38.875 C 39.863281 39.179688 39.882812 39.714844 40.011719 40.121094 C 39.46875 39.917969 38.917969 39.707031 38.378906 39.5 C 36.15625 38.585938 33.992188 37.527344 31.777344 36.601562 C 30.835938 36.25 29.886719 35.90625 28.9375 35.5625 C 29.007812 35.492188 29.074219 35.417969 29.144531 35.359375 Z M 37.253906 36.308594 C 36.035156 35.859375 34.828125 35.375 33.640625 34.859375 C 33.042969 34.675781 32.46875 34.441406 31.886719 34.210938 C 31.566406 34.109375 31.242188 34.011719 30.921875 33.910156 C 31.464844 33.535156 32.019531 33.183594 32.566406 32.820312 C 33.820312 31.972656 35.097656 31.132812 36.394531 30.355469 C 37.5 29.609375 38.632812 28.882812 39.699219 28.085938 C 40.179688 28.203125 40.636719 28.441406 41.101562 28.613281 C 42.40625 29.121094 43.636719 29.753906 44.972656 30.222656 C 46.03125 30.617188 47.046875 31.117188 48.09375 31.550781 C 48.097656 31.550781 48.109375 31.558594 48.113281 31.558594 C 47.816406 31.773438 47.511719 31.988281 47.222656 32.210938 C 45.1875 33.832031 43.070312 35.347656 40.988281 36.902344 C 40.773438 37.054688 40.558594 37.199219 40.34375 37.347656 C 40.304688 37.367188 40.269531 37.394531 40.238281 37.421875 C 39.253906 37.023438 38.238281 36.703125 37.253906 36.308594 Z M 40.957031 27.414062 C 41.035156 27.285156 41.109375 27.15625 41.171875 27.050781 C 41.273438 26.902344 41.378906 26.761719 41.488281 26.621094 C 41.546875 26.640625 41.601562 26.65625 41.652344 26.671875 C 43.410156 27.386719 45.160156 28.121094 46.957031 28.75 C 47.496094 28.964844 48.0625 29.105469 48.601562 29.320312 C 49.324219 29.554688 50.0625 29.742188 50.777344 30.003906 C 50.792969 30.0625 50.820312 30.125 50.855469 30.191406 C 51.050781 30.617188 51.070312 31.15625 51.246094 31.597656 C 51.253906 31.65625 51.269531 31.71875 51.292969 31.777344 C 51.132812 31.898438 50.976562 32.019531 50.824219 32.140625 C 50.738281 32.019531 50.617188 31.90625 50.527344 31.792969 C 50.410156 31.644531 50.234375 31.429688 50.097656 31.269531 C 50.054688 31.152344 49.972656 31.054688 49.863281 30.996094 C 49.835938 30.972656 49.808594 30.957031 49.777344 30.941406 C 49.722656 30.890625 49.648438 30.847656 49.570312 30.828125 C 49.523438 30.816406 49.480469 30.8125 49.433594 30.8125 C 49.410156 30.8125 49.390625 30.8125 49.371094 30.816406 C 49.082031 30.738281 48.777344 30.671875 48.5 30.582031 C 48.054688 30.40625 47.632812 30.183594 47.1875 30.007812 C 46.71875 29.832031 46.28125 29.601562 45.820312 29.410156 C 45.347656 29.226562 44.867188 29.082031 44.40625 28.875 C 43.484375 28.472656 42.546875 28.058594 41.609375 27.679688 C 41.394531 27.597656 41.175781 27.503906 40.957031 27.414062 Z M 40.746094 38.347656 C 41.054688 38.113281 41.390625 37.902344 41.703125 37.671875 C 42.976562 36.75 44.21875 35.777344 45.496094 34.859375 C 46.746094 33.96875 47.902344 32.945312 49.175781 32.082031 C 49.230469 32.042969 49.28125 32.011719 49.332031 31.976562 C 49.5 32.1875 49.671875 32.394531 49.851562 32.601562 C 49.894531 32.652344 49.941406 32.714844 50.003906 32.777344 C 49.703125 33.015625 49.402344 33.246094 49.101562 33.480469 C 48.113281 34.277344 47.164062 35.128906 46.171875 35.921875 C 45.269531 36.632812 44.285156 37.230469 43.363281 37.914062 C 43.125 38.070312 42.898438 38.269531 42.648438 38.429688 C 42.457031 38.445312 42.28125 38.570312 42.175781 38.738281 C 41.945312 39.027344 41.695312 39.296875 41.4375 39.566406 C 41.34375 39.683594 41.207031 39.800781 41.070312 39.929688 C 41.027344 39.785156 40.964844 39.648438 40.945312 39.507812 C 40.894531 39.132812 40.847656 38.738281 40.746094 38.347656 C 40.746094 38.355469 40.746094 38.355469 40.746094 38.347656 Z M 42.378906 40.101562 C 42.511719 39.964844 42.636719 39.824219 42.757812 39.683594 C 42.804688 39.691406 42.851562 39.707031 42.898438 39.722656 C 43.296875 39.929688 43.71875 40.074219 44.125 40.269531 C 45.664062 40.863281 47.207031 41.4375 48.773438 41.964844 C 49.785156 42.234375 50.820312 42.410156 51.820312 42.722656 C 52.386719 42.902344 52.96875 43.039062 53.507812 43.289062 C 53.523438 43.394531 53.574219 43.5 53.691406 43.605469 C 53.679688 43.789062 53.691406 43.984375 53.679688 44.144531 C 53.675781 44.375 53.691406 44.605469 53.664062 44.832031 C 52.207031 44.375 50.777344 43.835938 49.332031 43.359375 C 46.816406 42.492188 44.269531 41.652344 41.75 40.757812 C 41.972656 40.550781 42.175781 40.320312 42.378906 40.101562 Z M 54.144531 42.355469 C 54.128906 42.371094 54.109375 42.394531 54.085938 42.410156 C 53.160156 41.957031 52.140625 41.742188 51.160156 41.453125 C 50.375 41.234375 49.554688 41.132812 48.785156 40.867188 C 47.71875 40.488281 46.667969 40.128906 45.605469 39.71875 C 45.621094 39.722656 45.640625 39.730469 45.65625 39.734375 C 45.164062 39.535156 44.65625 39.363281 44.175781 39.136719 C 44.023438 39.078125 43.871094 39.015625 43.726562 38.949219 C 43.789062 38.898438 43.847656 38.859375 43.902344 38.828125 C 44.371094 38.511719 44.820312 38.179688 45.277344 37.855469 C 46.574219 37.023438 47.777344 35.996094 48.945312 34.976562 C 49.925781 34.152344 50.957031 33.390625 51.960938 32.59375 C 52.015625 32.609375 52.0625 32.632812 52.113281 32.648438 C 52.496094 32.804688 52.878906 32.953125 53.277344 33.0625 C 53.972656 33.390625 54.695312 33.660156 55.40625 33.960938 C 56.125 34.214844 56.804688 34.566406 57.539062 34.789062 C 58.90625 35.324219 60.335938 35.683594 61.722656 36.167969 C 61.355469 36.441406 61.039062 36.769531 60.667969 37.03125 C 59.082031 38.207031 57.546875 39.417969 56.046875 40.710938 C 55.363281 41.203125 54.738281 41.757812 54.144531 42.355469 Z M 62.972656 35.601562 C 62.898438 35.480469 62.773438 35.390625 62.589844 35.363281 C 61.335938 34.886719 60.03125 34.542969 58.761719 34.117188 C 56.910156 33.480469 55.125 32.660156 53.296875 31.972656 C 53.554688 31.75 53.816406 31.53125 54.09375 31.339844 C 54.140625 31.320312 54.175781 31.300781 54.214844 31.273438 C 54.417969 31.355469 54.640625 31.394531 54.855469 31.457031 C 55.253906 31.582031 55.636719 31.734375 56.03125 31.871094 C 57.308594 32.359375 58.554688 32.925781 59.820312 33.457031 C 60.679688 33.800781 61.546875 34.125 62.429688 34.414062 C 62.976562 34.574219 63.523438 34.71875 64.058594 34.929688 C 64.078125 34.992188 64.105469 35.0625 64.140625 35.128906 C 64.214844 35.410156 64.230469 35.707031 64.261719 36 C 63.832031 35.859375 63.398438 35.738281 62.972656 35.601562 Z M 60.054688 24.246094 C 60.390625 24.570312 60.753906 24.878906 61.03125 25.257812 C 61.03125 25.257812 61.023438 25.25 61.023438 25.25 C 61.023438 25.257812 61.03125 25.257812 61.03125 25.261719 C 59.167969 26.570312 57.238281 27.78125 55.386719 29.101562 C 54.953125 29.363281 54.542969 29.664062 54.15625 29.992188 C 54.09375 30.039062 54.023438 30.09375 53.960938 30.152344 C 53.835938 30.1875 53.742188 30.265625 53.679688 30.367188 C 53.652344 30.382812 53.625 30.398438 53.601562 30.417969 C 53.132812 30.707031 52.746094 31.089844 52.316406 31.421875 C 52.308594 31.425781 52.300781 31.429688 52.296875 31.429688 C 52.277344 31.351562 52.25 31.273438 52.21875 31.195312 C 52.085938 30.785156 52.050781 30.351562 51.894531 29.945312 C 51.910156 29.9375 51.917969 29.925781 51.9375 29.914062 C 52.265625 29.667969 52.570312 29.46875 52.9375 29.21875 C 53.710938 28.71875 54.515625 28.261719 55.261719 27.722656 C 55.910156 27.25 56.53125 26.734375 57.175781 26.257812 C 58.125 25.566406 59.070312 24.867188 60.054688 24.246094 Z M 48.511719 21.628906 C 49.003906 21.300781 49.492188 20.972656 50 20.667969 C 50.46875 20.851562 50.972656 20.988281 51.449219 21.160156 C 51.714844 21.277344 51.984375 21.398438 52.265625 21.476562 C 53.640625 21.90625 55 22.378906 56.398438 22.765625 C 57.234375 23.011719 58.078125 23.226562 58.90625 23.511719 C 58.984375 23.53125 59.054688 23.558594 59.128906 23.589844 C 58.792969 23.804688 58.476562 24.054688 58.144531 24.277344 C 56.832031 25.164062 55.609375 26.167969 54.328125 27.09375 C 53.308594 27.753906 52.285156 28.367188 51.292969 29.070312 C 50.515625 28.78125 49.714844 28.566406 48.925781 28.320312 C 48.097656 28.011719 47.253906 27.753906 46.425781 27.4375 C 45.285156 26.984375 44.128906 26.578125 43.007812 26.070312 C 42.839844 25.996094 42.667969 25.933594 42.496094 25.871094 C 42.988281 25.5625 43.484375 25.261719 43.941406 24.898438 C 45.421875 23.761719 46.925781 22.640625 48.511719 21.628906 Z M 47.175781 20.269531 C 47.300781 20.167969 47.457031 20.085938 47.601562 19.996094 C 47.792969 20.191406 48 20.367188 48.171875 20.589844 C 46.929688 21.398438 45.714844 22.242188 44.53125 23.128906 C 43.777344 23.710938 43.039062 24.316406 42.21875 24.8125 C 41.855469 25.019531 41.515625 25.261719 41.164062 25.484375 C 41.058594 25.53125 40.976562 25.597656 40.914062 25.6875 C 40.683594 25.90625 40.519531 26.191406 40.328125 26.441406 C 40.191406 26.636719 40.085938 26.867188 39.933594 27.054688 C 39.917969 27.050781 39.910156 27.050781 39.894531 27.046875 C 39.742188 26.988281 39.609375 26.960938 39.488281 26.960938 C 39.488281 26.960938 39.484375 26.960938 39.484375 26.960938 C 39.464844 26.902344 39.449219 26.847656 39.433594 26.789062 C 39.359375 26.40625 39.335938 25.984375 39.203125 25.617188 C 39.234375 25.59375 39.265625 25.5625 39.289062 25.535156 C 39.851562 25.140625 40.410156 24.753906 41.023438 24.4375 C 42.128906 23.773438 43.171875 22.992188 44.210938 22.226562 C 45.222656 21.601562 46.171875 20.914062 47.175781 20.269531 Z M 37.40625 16.609375 C 37.542969 16.492188 37.742188 16.398438 37.914062 16.277344 C 37.914062 16.277344 37.917969 16.277344 37.917969 16.277344 C 38.457031 16.328125 38.964844 16.574219 39.480469 16.742188 C 40.058594 16.878906 40.609375 17.121094 41.179688 17.300781 C 43.019531 17.949219 44.839844 18.660156 46.667969 19.335938 C 45.667969 20.011719 44.664062 20.6875 43.640625 21.339844 C 42.980469 21.8125 42.339844 22.304688 41.667969 22.761719 C 40.808594 23.390625 39.773438 23.871094 38.910156 24.523438 C 38.894531 24.515625 38.878906 24.511719 38.855469 24.507812 C 37.910156 24.203125 36.980469 23.839844 36.042969 23.515625 C 34.914062 23.160156 33.820312 22.738281 32.6875 22.363281 C 32.132812 22.148438 31.589844 21.910156 31.035156 21.695312 C 30.726562 21.558594 30.421875 21.398438 30.113281 21.261719 C 30.636719 20.914062 31.164062 20.578125 31.699219 20.261719 C 33.625 19.066406 35.515625 17.855469 37.40625 16.609375 Z M 34.992188 15.269531 C 35.074219 15.417969 35.152344 15.5625 35.257812 15.695312 C 35.4375 15.9375 35.65625 16.144531 35.851562 16.375 C 35.714844 16.464844 35.578125 16.554688 35.449219 16.640625 C 33.519531 17.917969 31.542969 19.109375 29.59375 20.347656 C 29.320312 20.535156 29.039062 20.714844 28.761719 20.894531 C 28.644531 20.957031 28.574219 21.050781 28.535156 21.15625 C 28.304688 21.347656 28.128906 21.601562 27.886719 21.789062 C 27.738281 21.925781 27.550781 22.09375 27.414062 22.277344 C 27.335938 22.25 27.265625 22.226562 27.191406 22.210938 C 27.164062 22.113281 27.128906 22.015625 27.101562 21.894531 C 26.933594 21.476562 26.8125 21.046875 26.691406 20.613281 C 26.761719 20.5625 26.835938 20.511719 26.902344 20.46875 C 27.347656 20.175781 27.765625 19.84375 28.210938 19.550781 C 29.289062 18.816406 30.40625 18.144531 31.457031 17.378906 C 32.242188 16.890625 33.039062 16.40625 33.828125 15.925781 C 34.222656 15.710938 34.613281 15.507812 34.992188 15.269531 Z M 19.421875 16.480469 C 20.363281 15.972656 21.285156 15.421875 22.210938 14.882812 C 23.117188 14.339844 24.066406 13.859375 24.917969 13.230469 C 25.394531 12.9375 25.898438 12.667969 26.394531 12.425781 C 26.40625 12.421875 26.414062 12.417969 26.425781 12.410156 C 26.859375 12.589844 27.289062 12.789062 27.738281 12.929688 C 29.023438 13.355469 30.332031 13.691406 31.621094 14.101562 C 32.34375 14.304688 33.054688 14.550781 33.773438 14.761719 C 32.796875 15.300781 31.855469 15.90625 30.90625 16.492188 C 30.132812 17.0625 29.304688 17.558594 28.503906 18.09375 C 27.808594 18.574219 27.097656 19.035156 26.410156 19.535156 C 26.269531 19.625 26.136719 19.722656 26 19.816406 C 25.738281 19.71875 25.46875 19.644531 25.207031 19.550781 C 24.199219 19.113281 23.152344 18.769531 22.085938 18.507812 C 21.722656 18.433594 21.378906 18.308594 21.03125 18.195312 C 20.394531 18.058594 19.785156 17.820312 19.164062 17.628906 C 18.8125 17.507812 18.46875 17.359375 18.109375 17.222656 C 18.5625 16.984375 18.992188 16.726562 19.421875 16.480469 Z M 16.96875 17.957031 C 17.054688 17.976562 17.136719 18.003906 17.222656 18.023438 C 17.800781 18.179688 18.332031 18.464844 18.90625 18.644531 C 19.996094 19 21.089844 19.335938 22.199219 19.617188 C 23 19.839844 23.78125 20.074219 24.546875 20.410156 C 24.917969 20.578125 25.289062 20.664062 25.667969 20.8125 C 25.765625 21.269531 25.929688 21.746094 26.089844 22.171875 C 26.136719 22.324219 26.167969 22.496094 26.238281 22.644531 C 26.097656 22.738281 25.960938 22.832031 25.824219 22.929688 C 25.683594 22.664062 25.53125 22.402344 25.398438 22.136719 C 25.378906 21.988281 25.316406 21.878906 25.230469 21.804688 C 25.199219 21.632812 25.085938 21.46875 24.917969 21.398438 C 24.871094 21.375 24.820312 21.363281 24.761719 21.363281 C 24.730469 21.347656 24.6875 21.332031 24.652344 21.316406 C 23.917969 21.109375 23.183594 20.910156 22.4375 20.765625 C 21.027344 20.40625 19.625 19.847656 18.214844 19.417969 C 17.613281 19.195312 16.980469 18.925781 16.332031 18.699219 C 16.535156 18.449219 16.753906 18.203125 16.96875 17.957031 Z M 6.527344 23.929688 C 7.796875 23.089844 9.046875 22.230469 10.335938 21.421875 C 11.246094 20.886719 12.148438 20.335938 13.089844 19.863281 C 13.515625 19.675781 13.925781 19.472656 14.332031 19.246094 C 14.382812 19.257812 14.4375 19.265625 14.488281 19.28125 C 14.84375 19.367188 15.199219 19.457031 15.554688 19.550781 C 16.582031 19.855469 17.539062 20.347656 18.570312 20.636719 C 19.519531 20.972656 20.484375 21.261719 21.4375 21.585938 C 22.058594 21.769531 22.703125 21.898438 23.335938 22.046875 C 23.316406 22.0625 23.292969 22.074219 23.273438 22.089844 C 21.996094 22.855469 20.769531 23.703125 19.578125 24.597656 C 18.261719 25.519531 16.90625 26.390625 15.65625 27.414062 C 15.550781 27.507812 15.414062 27.597656 15.277344 27.691406 C 14.152344 27.253906 12.976562 26.988281 11.84375 26.558594 C 10.917969 26.21875 9.957031 26 9.023438 25.699219 C 8.476562 25.457031 7.90625 25.300781 7.347656 25.109375 C 6.800781 24.898438 6.246094 24.695312 5.6875 24.53125 C 5.964844 24.328125 6.246094 24.125 6.527344 23.929688 Z M 4.710938 25.339844 C 5.125 25.488281 5.566406 25.5625 5.980469 25.71875 C 6.949219 26.074219 7.933594 26.40625 8.90625 26.753906 C 9.550781 26.96875 10.210938 27.136719 10.863281 27.324219 C 11.398438 27.484375 11.941406 27.734375 12.488281 27.871094 C 13.125 28.121094 13.808594 28.269531 14.460938 28.488281 C 14.632812 28.890625 14.730469 29.332031 14.921875 29.726562 C 14.933594 29.746094 14.945312 29.761719 14.953125 29.785156 C 14.414062 29.617188 13.875 29.449219 13.335938 29.269531 C 11.109375 28.535156 8.90625 27.75 6.722656 26.898438 C 6.03125 26.636719 5.320312 26.4375 4.648438 26.136719 C 4.523438 26.105469 4.378906 26.054688 4.230469 25.996094 C 4.382812 25.777344 4.539062 25.554688 4.710938 25.339844 Z M 3.613281 28.875 C 3.632812 28.242188 3.65625 27.601562 3.710938 26.96875 C 3.710938 26.960938 3.710938 26.960938 3.710938 26.957031 C 3.859375 26.988281 4.003906 27.019531 4.132812 27.066406 C 5.203125 27.503906 6.316406 27.84375 7.386719 28.285156 C 9.269531 28.988281 11.152344 29.664062 13.058594 30.289062 C 14.253906 30.703125 15.484375 31 16.648438 31.5 C 19.367188 32.675781 21.976562 34.167969 24.78125 35.132812 C 27.136719 36.019531 29.519531 36.871094 31.867188 37.78125 C 34.050781 38.699219 36.171875 39.769531 38.386719 40.621094 C 40.761719 41.589844 43.203125 42.347656 45.621094 43.21875 C 48.300781 44.078125 50.941406 45.070312 53.621094 45.914062 C 53.574219 46.953125 53.664062 47.992188 53.636719 49.027344 C 53.65625 49.203125 53.640625 49.460938 53.636719 49.722656 C 53.570312 49.695312 53.507812 49.667969 53.445312 49.632812 C 52.753906 49.402344 52.078125 49.113281 51.40625 48.820312 C 48.046875 47.257812 44.574219 45.886719 41.207031 44.3125 C 39.4375 43.453125 37.566406 42.800781 35.789062 41.957031 C 33.703125 40.976562 31.746094 39.839844 29.621094 38.929688 C 27.875 38.164062 26.023438 37.671875 24.257812 36.949219 C 22.535156 36.257812 20.871094 35.445312 19.144531 34.765625 C 16.5625 33.742188 13.980469 32.726562 11.367188 31.792969 C 9.332031 31.03125 7.371094 30.066406 5.292969 29.425781 C 4.921875 29.378906 4.210938 29.023438 3.613281 28.875 Z M 20.507812 36.476562 C 20.792969 36.597656 21.070312 36.722656 21.351562 36.84375 C 21.320312 37.039062 21.347656 37.253906 21.351562 37.441406 C 21.390625 37.972656 21.335938 38.5 21.308594 39.03125 C 21.308594 39.15625 21.308594 39.277344 21.320312 39.386719 C 21.144531 39.5 20.996094 39.65625 20.828125 39.78125 C 20.640625 39.929688 20.46875 40.089844 20.289062 40.25 C 20.359375 39.152344 20.46875 38.046875 20.515625 36.953125 C 20.515625 36.796875 20.507812 36.632812 20.507812 36.476562 Z M 21.226562 40.804688 C 21.4375 40.632812 21.652344 40.453125 21.867188 40.285156 C 21.917969 40.265625 21.960938 40.238281 22 40.207031 C 22.113281 40.226562 22.230469 40.238281 22.335938 40.253906 C 22.566406 40.269531 22.796875 40.269531 23.027344 40.269531 C 23.40625 40.269531 23.785156 40.269531 24.164062 40.332031 C 25.152344 40.449219 26.136719 40.640625 27.128906 40.765625 C 27.851562 40.882812 28.574219 40.992188 29.3125 41.019531 C 29.78125 41.082031 30.253906 41.144531 30.730469 41.199219 C 31.070312 41.28125 31.425781 41.285156 31.773438 41.300781 C 31.882812 41.316406 31.980469 41.296875 32.070312 41.253906 C 32.726562 41.589844 33.375 41.925781 34.027344 42.261719 C 33.089844 42.289062 32.148438 42.246094 31.210938 42.21875 C 30.234375 42.199219 29.253906 42.179688 28.273438 42.109375 C 27.804688 42.089844 27.285156 42 26.808594 41.921875 C 25.789062 41.8125 24.769531 41.648438 23.75 41.589844 C 23.191406 41.582031 22.652344 41.527344 22.085938 41.453125 C 21.605469 41.414062 21.128906 41.375 20.644531 41.339844 C 20.832031 41.160156 21.027344 40.984375 21.226562 40.804688 Z M 22.40625 37.933594 C 22.410156 37.726562 22.390625 37.511719 22.390625 37.300781 C 22.945312 37.542969 23.503906 37.777344 24.070312 38.003906 C 25.820312 38.710938 27.667969 39.203125 29.390625 39.980469 C 29.359375 39.976562 29.328125 39.976562 29.296875 39.96875 C 29.011719 39.960938 28.722656 39.949219 28.441406 39.898438 C 27.472656 39.777344 26.515625 39.609375 25.546875 39.476562 C 24.644531 39.304688 23.730469 39.210938 22.8125 39.210938 C 22.703125 39.210938 22.59375 39.210938 22.484375 39.214844 C 22.441406 39.214844 22.398438 39.210938 22.359375 39.199219 C 22.351562 39.089844 22.347656 38.980469 22.359375 38.875 C 22.390625 38.558594 22.414062 38.25 22.40625 37.933594 Z M 19.46875 36.660156 C 19.476562 37.113281 19.421875 37.5625 19.410156 38.019531 C 19.367188 38.371094 19.339844 38.714844 19.335938 39.066406 C 19.277344 39.519531 19.246094 39.976562 19.226562 40.433594 C 19.03125 40.136719 18.832031 39.84375 18.652344 39.546875 C 18.703125 39.457031 18.734375 39.347656 18.71875 39.230469 C 18.785156 38.78125 18.769531 38.324219 18.800781 37.871094 C 18.929688 37.183594 18.785156 36.566406 18.828125 35.863281 C 18.828125 35.835938 18.828125 35.8125 18.832031 35.773438 C 18.875 35.789062 18.917969 35.804688 18.960938 35.820312 C 19.144531 35.894531 19.324219 35.96875 19.507812 36.042969 C 19.441406 36.242188 19.472656 36.460938 19.46875 36.660156 Z M 17.8125 37.261719 C 17.746094 37.75 17.734375 38.246094 17.71875 38.738281 C 17.71875 38.753906 17.714844 38.769531 17.714844 38.789062 C 17.5 38.769531 17.285156 38.769531 17.074219 38.753906 C 16.675781 38.726562 16.277344 38.675781 15.878906 38.648438 C 14.839844 38.570312 13.761719 38.570312 12.707031 38.554688 C 10.679688 38.40625 8.6875 38.296875 6.65625 38.050781 C 6.5625 38.050781 6.472656 38.023438 6.386719 37.996094 C 6.398438 37.917969 6.402344 37.839844 6.414062 37.761719 C 6.496094 37.011719 6.550781 36.257812 6.625 35.507812 C 6.765625 34.347656 6.894531 33.1875 6.902344 32.023438 C 6.917969 31.742188 6.949219 31.457031 6.980469 31.171875 C 10.570312 32.632812 14.214844 33.953125 17.816406 35.375 C 17.792969 35.484375 17.785156 35.605469 17.785156 35.714844 C 17.734375 36.230469 17.8125 36.746094 17.8125 37.261719 Z M 7.183594 39.167969 C 8.917969 39.335938 10.65625 39.460938 12.386719 39.585938 C 13.339844 39.640625 14.292969 39.59375 15.253906 39.660156 C 15.730469 39.683594 16.320312 39.730469 16.8125 39.78125 C 17.070312 39.8125 17.335938 39.800781 17.59375 39.828125 C 17.660156 39.949219 17.75 40.058594 17.8125 40.183594 C 17.996094 40.496094 18.207031 40.789062 18.40625 41.085938 C 17.535156 40.984375 16.671875 40.871094 15.792969 40.824219 C 14.382812 40.671875 12.960938 40.699219 11.546875 40.652344 C 10.1875 40.46875 8.824219 40.363281 7.457031 40.332031 C 7.058594 40.304688 6.675781 40.195312 6.277344 40.160156 C 5.875 40.101562 5.472656 40.074219 5.070312 40.015625 C 5.179688 39.902344 5.289062 39.792969 5.394531 39.675781 C 5.542969 39.492188 5.824219 39.261719 6.03125 39.011719 C 6.410156 39.109375 6.800781 39.132812 7.183594 39.167969 Z M 4.632812 38.347656 C 4.828125 37.136719 5.085938 35.882812 5.347656 34.671875 C 5.570312 33.609375 5.773438 32.539062 5.859375 31.457031 C 5.886719 31.222656 5.917969 30.984375 5.964844 30.753906 C 5.96875 30.753906 5.96875 30.757812 5.972656 30.757812 C 5.972656 30.773438 5.972656 30.785156 5.972656 30.800781 C 5.925781 31.230469 5.875 31.660156 5.855469 32.089844 C 5.855469 32.835938 5.78125 33.574219 5.71875 34.320312 C 5.597656 35.226562 5.507812 36.140625 5.445312 37.054688 C 5.410156 37.40625 5.371094 37.757812 5.320312 38.101562 C 5.308594 38.144531 5.304688 38.191406 5.296875 38.234375 C 5.242188 38.3125 5.179688 38.386719 5.121094 38.460938 C 4.921875 38.679688 4.707031 38.882812 4.503906 39.09375 C 4.542969 38.847656 4.585938 38.601562 4.632812 38.347656 Z M 3.363281 39.597656 C 3.339844 39.691406 3.320312 39.792969 3.308594 39.890625 C 3.234375 40.054688 3.226562 40.257812 3.226562 40.441406 C 3.199219 40.714844 3.183594 40.984375 3.1875 41.253906 C 3.195312 41.386719 3.195312 41.511719 3.1875 41.644531 C 3.179688 41.636719 3.164062 41.632812 3.152344 41.628906 C 2.941406 41.566406 2.671875 41.449219 2.449219 41.371094 C 1.972656 41.265625 1.550781 41.019531 1.089844 40.871094 C 1.105469 40.710938 1.105469 40.542969 1.109375 40.398438 C 1.164062 39.949219 1.214844 39.503906 1.296875 39.058594 C 1.308594 38.984375 1.320312 38.90625 1.328125 38.828125 C 1.425781 38.753906 1.503906 38.648438 1.574219 38.554688 C 1.738281 38.386719 1.835938 38.269531 2.015625 38.09375 C 2.089844 38.023438 2.148438 37.945312 2.199219 37.863281 C 2.277344 37.871094 2.363281 37.867188 2.445312 37.851562 C 2.832031 37.878906 3.1875 38.03125 3.566406 38.097656 C 3.582031 38.109375 3.601562 38.117188 3.617188 38.128906 C 3.511719 38.621094 3.445312 39.113281 3.363281 39.597656 Z M 3.785156 37.078125 C 3.625 37.042969 3.464844 37.007812 3.308594 36.949219 C 3.226562 36.933594 3.136719 36.914062 3.050781 36.894531 C 3.257812 36.722656 3.472656 36.554688 3.679688 36.382812 C 3.78125 36.304688 3.875 36.21875 3.972656 36.136719 C 3.90625 36.449219 3.84375 36.765625 3.785156 37.078125 Z M 4.132812 43.238281 C 4.164062 42.765625 4.214844 42.300781 4.230469 41.828125 C 4.234375 41.554688 4.234375 41.277344 4.246094 41 C 4.351562 41.003906 4.449219 41.015625 4.554688 41.015625 C 5.074219 41.078125 5.59375 41.140625 6.109375 41.199219 C 6.601562 41.25 7.078125 41.386719 7.570312 41.390625 C 8.324219 41.390625 9.078125 41.476562 9.828125 41.507812 C 10.464844 41.570312 11.101562 41.683594 11.746094 41.710938 C 13.195312 41.734375 14.640625 41.757812 16.078125 41.890625 C 17.472656 42.011719 18.855469 42.214844 20.246094 42.347656 C 21.277344 42.410156 22.304688 42.539062 23.335938 42.617188 C 24.015625 42.617188 24.6875 42.71875 25.359375 42.796875 C 26.027344 42.882812 26.699219 42.945312 27.363281 43.070312 C 29.328125 43.273438 31.335938 43.265625 33.3125 43.316406 C 33.589844 43.328125 33.871094 43.316406 34.148438 43.304688 C 34.421875 43.296875 34.695312 43.285156 34.972656 43.296875 C 35.144531 43.316406 35.304688 43.378906 35.484375 43.371094 C 35.683594 43.363281 35.871094 43.371094 36.070312 43.386719 C 36.179688 43.394531 36.269531 43.386719 36.347656 43.351562 C 38.1875 44.15625 40.054688 44.890625 41.867188 45.753906 C 40.746094 45.792969 39.625 45.867188 38.503906 45.914062 C 37.851562 45.960938 37.1875 45.898438 36.527344 45.828125 C 36.023438 45.777344 35.515625 45.730469 35.011719 45.730469 C 34.976562 45.730469 34.933594 45.730469 34.898438 45.730469 C 33.238281 45.730469 31.566406 45.84375 29.933594 45.515625 C 29.117188 45.386719 28.3125 45.222656 27.484375 45.136719 C 26.378906 45.089844 25.296875 45.046875 24.195312 44.90625 C 22.753906 44.671875 21.304688 44.519531 19.855469 44.375 C 19.332031 44.308594 18.800781 44.234375 18.273438 44.207031 C 17.476562 44.105469 16.6875 44.019531 15.886719 43.953125 C 15.042969 43.863281 14.199219 43.808594 13.351562 43.804688 C 12.445312 43.742188 11.515625 43.65625 10.601562 43.589844 C 9.078125 43.519531 7.550781 43.554688 6.03125 43.410156 C 5.417969 43.359375 4.800781 43.28125 4.171875 43.234375 C 4.152344 43.238281 4.140625 43.238281 4.132812 43.238281 Z M 6.230469 44.488281 C 6.210938 44.550781 6.1875 44.613281 6.171875 44.671875 C 6.136719 44.769531 6.105469 44.871094 6.070312 44.96875 C 6.011719 44.800781 5.957031 44.628906 5.90625 44.460938 C 6.015625 44.472656 6.121094 44.476562 6.230469 44.488281 Z M 8.273438 59.523438 C 8.234375 59.820312 8.195312 60.113281 8.164062 60.40625 C 7.234375 57.300781 6.441406 54.152344 5.859375 50.964844 C 5.527344 49.257812 5.242188 47.550781 4.933594 45.84375 C 4.828125 45.335938 4.722656 44.828125 4.609375 44.324219 C 4.617188 44.324219 4.632812 44.328125 4.644531 44.328125 C 4.691406 44.335938 4.734375 44.339844 4.78125 44.34375 C 5.25 45.871094 5.726562 47.398438 6.21875 48.917969 C 6.578125 50.308594 6.890625 51.710938 7.234375 53.105469 C 7.371094 53.875 7.585938 54.636719 7.75 55.402344 C 7.847656 56.089844 8.015625 56.753906 8.199219 57.421875 C 8.242188 57.574219 8.285156 57.75 8.351562 57.902344 C 8.289062 58.445312 8.320312 58.996094 8.273438 59.523438 Z M 8.964844 56.1875 C 8.65625 54.535156 8.277344 52.898438 7.871094 51.269531 C 7.617188 50.246094 7.425781 49.207031 7.085938 48.210938 C 7 47.964844 6.921875 47.71875 6.847656 47.472656 C 7.027344 47.339844 7.164062 47.113281 7.324219 46.976562 C 7.335938 46.960938 7.351562 46.953125 7.363281 46.9375 C 7.378906 46.988281 7.386719 47.046875 7.398438 47.105469 C 7.523438 47.734375 7.78125 48.332031 7.886719 48.964844 C 8.304688 50.65625 8.769531 52.339844 9.242188 54.011719 C 9.339844 54.425781 9.492188 54.824219 9.59375 55.238281 C 9.597656 55.261719 9.601562 55.28125 9.609375 55.300781 C 9.585938 55.328125 9.570312 55.359375 9.5625 55.390625 C 9.519531 55.5 9.449219 55.605469 9.398438 55.714844 C 9.273438 55.949219 9.136719 56.167969 9 56.394531 C 9 56.320312 8.984375 56.257812 8.964844 56.1875 Z M 67.667969 55.433594 C 67.535156 55.445312 67.390625 55.46875 67.257812 55.480469 C 66.335938 55.589844 65.402344 55.660156 64.5 55.890625 C 60.339844 56.890625 56.035156 56.898438 51.800781 57.425781 C 50.589844 57.625 49.371094 57.742188 48.175781 58.035156 C 47.050781 58.171875 45.945312 58.390625 44.839844 58.632812 C 42.203125 59.070312 39.546875 59.429688 36.886719 59.730469 C 35.761719 59.839844 34.640625 59.96875 33.515625 60.058594 C 32.425781 60.101562 31.332031 60.085938 30.25 60.242188 C 28.851562 60.363281 27.476562 60.6875 26.082031 60.835938 C 23.796875 61.125 21.507812 61.414062 19.214844 61.640625 C 18.023438 61.726562 16.828125 61.726562 15.660156 62.03125 C 14.515625 62.167969 13.363281 62.253906 12.210938 62.390625 C 11.242188 62.492188 10.273438 62.625 9.292969 62.675781 C 9.21875 62.683594 9.140625 62.6875 9.054688 62.691406 C 9.0625 62.613281 9.074219 62.535156 9.074219 62.457031 C 9.132812 61.910156 9.125 61.359375 9.164062 60.808594 C 9.300781 60.035156 9.320312 59.246094 9.367188 58.460938 C 9.429688 58.449219 9.492188 58.4375 9.550781 58.4375 C 9.957031 58.417969 10.367188 58.40625 10.777344 58.382812 C 12.332031 58.308594 13.871094 58.066406 15.414062 57.910156 C 17.070312 57.914062 18.722656 58.101562 20.378906 57.96875 C 21.871094 57.878906 23.34375 57.632812 24.828125 57.515625 C 26.714844 57.375 28.621094 57.285156 30.503906 57.035156 C 32.882812 56.78125 35.257812 56.582031 37.621094 56.21875 C 39.933594 55.804688 42.28125 55.558594 44.617188 55.300781 C 45.578125 55.269531 46.539062 55.164062 47.5 55.109375 C 47.972656 55.070312 48.4375 55.019531 48.886719 54.886719 C 48.992188 54.898438 49.085938 54.878906 49.175781 54.839844 C 50.386719 55.144531 51.609375 55.46875 52.824219 55.734375 C 54.09375 56.003906 55.371094 56.347656 56.664062 56.433594 C 56.953125 56.503906 57.160156 56.355469 57.253906 56.148438 C 57.464844 56 57.628906 55.75 57.800781 55.585938 C 57.992188 55.382812 58.203125 55.191406 58.390625 54.988281 C 58.621094 54.730469 58.847656 54.46875 59.070312 54.207031 C 59.175781 54.207031 59.28125 54.167969 59.367188 54.113281 C 60.695312 54.03125 62.007812 53.78125 63.335938 53.664062 C 64.375 53.585938 65.40625 53.433594 66.445312 53.296875 C 66.738281 53.273438 67.035156 53.234375 67.328125 53.183594 C 67.460938 53.921875 67.628906 54.671875 67.667969 55.433594 Z M 65.757812 48.320312 C 66.035156 49.179688 66.390625 50.003906 66.738281 50.839844 C 66.527344 50.609375 66.328125 50.371094 66.144531 50.125 C 66.09375 49.945312 65.957031 49.828125 65.804688 49.777344 C 65.769531 49.664062 65.730469 49.546875 65.695312 49.4375 C 65.589844 49.128906 65.464844 48.824219 65.367188 48.515625 C 65.355469 48.367188 65.28125 48.230469 65.175781 48.140625 C 65.199219 47.765625 65.214844 47.386719 65.234375 47.003906 C 65.414062 47.441406 65.585938 47.878906 65.757812 48.320312 Z M 73.554688 32.832031 C 72.84375 33.496094 72.136719 34.167969 71.386719 34.792969 C 69.503906 36.394531 67.558594 37.917969 65.722656 39.582031 C 64.414062 40.773438 63.078125 41.933594 61.792969 43.152344 C 60.167969 44.507812 58.585938 45.914062 57.035156 47.355469 C 56.433594 47.863281 55.871094 48.414062 55.269531 48.925781 C 55.078125 49.085938 54.878906 49.242188 54.691406 49.40625 C 54.679688 48.726562 54.695312 48.011719 54.679688 47.351562 C 54.683594 46.820312 54.636719 46.285156 54.683594 45.761719 C 56.167969 44.628906 57.757812 43.605469 59.207031 42.417969 C 60.34375 41.597656 61.121094 40.363281 62.339844 39.644531 C 63.617188 38.8125 64.722656 37.757812 65.9375 36.84375 C 66.695312 36.320312 67.351562 35.664062 68.050781 35.066406 C 68.84375 34.367188 69.660156 33.707031 70.460938 33.019531 C 71.476562 32.082031 72.734375 31.457031 73.804688 30.589844 C 73.835938 31.042969 73.851562 31.5 73.878906 31.957031 C 73.902344 32.128906 73.890625 32.316406 73.902344 32.496094 C 73.773438 32.59375 73.675781 32.726562 73.554688 32.832031 Z M 73.554688 32.832031 " fill-opacity="1" fill-rule="nonzero"/></g></svg>